<svg width="38" height="24" viewBox="0 0 38 24" fill="none" xmlns="http://www.w3.org/2000/svg">
<g clip-path="url(#clip0_0_117)">
<g clip-path="url(#clip1_0_117)">
<path d="M34.3874 0H3.61312C3.48493 0 3.35651 0 3.22854 0.00067947C3.1205 0.00158543 3.01269 0.00271788 2.90466 0.00566225C2.66934 0.012004 2.43197 0.0260463 2.1996 0.0677205C1.96655 0.107648 1.74075 0.182074 1.52964 0.288548C1.10523 0.504411 0.76027 0.849374 0.544407 1.27378C0.437744 1.48497 0.363309 1.71095 0.32358 1.94419C0.281453 2.17679 0.267637 2.41393 0.261295 2.64903C0.258535 2.75697 0.256874 2.86493 0.256312 2.97291C0.255859 3.10065 0.255859 3.22884 0.255859 3.35726V20.6425C0.255859 20.7709 0.255859 20.8989 0.256312 21.0273C0.256992 21.1351 0.258351 21.2432 0.261295 21.3512C0.267637 21.5858 0.281679 21.8232 0.32358 22.0556C0.363227 22.2888 0.437586 22.5148 0.544181 22.726C0.651352 22.9369 0.791243 23.1296 0.958658 23.2967C1.12579 23.4642 1.31843 23.6041 1.52941 23.7112C1.7439 23.8206 1.96359 23.8902 2.19982 23.9325C2.43197 23.974 2.66934 23.988 2.90466 23.9943C3.01269 23.9968 3.1205 23.9982 3.22854 23.9989C3.35651 23.9998 3.48493 23.9998 3.61312 23.9998H34.3874C34.5154 23.9998 34.6438 23.9998 34.7718 23.9989C34.8796 23.9984 34.9874 23.9968 35.0959 23.9943C35.3308 23.988 35.5681 23.974 35.801 23.9325C36.0341 23.8925 36.2599 23.818 36.4709 23.7112C36.8951 23.4951 37.24 23.1502 37.4561 22.726C37.5655 22.5115 37.6348 22.2918 37.6767 22.0556C37.7189 21.8232 37.7325 21.5858 37.7388 21.3512C37.7417 21.2432 37.7433 21.1351 37.7438 21.0273C37.7447 20.8989 37.7447 20.7709 37.7447 20.6425V3.35749C37.7447 3.22907 37.7447 3.10087 37.7438 2.97268C37.7433 2.86478 37.7417 2.75689 37.7388 2.64903C37.7325 2.41393 37.7189 2.17679 37.6767 1.94419C37.6373 1.71091 37.5629 1.4849 37.4561 1.27378C37.2402 0.849448 36.8952 0.504513 36.4709 0.288548C36.2598 0.182184 36.034 0.107836 35.801 0.067947C35.5681 0.0260463 35.3308 0.0122305 35.0959 0.00588874C34.9879 0.00314533 34.8798 0.00148432 34.7718 0.000905959C34.6438 0 34.5154 0 34.3874 0Z" fill="#142E2A"/>
<path d="M34.3873 0.799805L34.766 0.800484C34.8683 0.801164 34.9709 0.802296 35.074 0.805014C35.2536 0.809997 35.4633 0.819736 35.659 0.854842C35.8289 0.885418 35.9716 0.931848 36.1084 1.00161C36.3821 1.1408 36.6045 1.36345 36.7434 1.63736C36.8128 1.77326 36.859 1.91504 36.8895 2.08649C36.9244 2.27992 36.9342 2.49033 36.9389 2.67084C36.9419 2.77276 36.9432 2.87468 36.9434 2.97886C36.9446 3.10502 36.9446 3.23095 36.9446 3.35733V20.6426C36.9446 20.769 36.9446 20.8949 36.9437 21.0235C36.9432 21.1255 36.9418 21.2274 36.9391 21.3293C36.9341 21.5096 36.9244 21.72 36.8891 21.9157C36.8634 22.0713 36.8141 22.2222 36.743 22.363C36.6038 22.637 36.3811 22.8597 36.107 22.9988C35.9711 23.0681 35.8289 23.1145 35.6606 23.1448C35.4611 23.1804 35.2423 23.1901 35.0776 23.1947C34.9741 23.1969 34.8711 23.1985 34.7653 23.199C34.6396 23.1999 34.5132 23.1999 34.3873 23.1999H3.60798C3.48341 23.1999 3.35884 23.1999 3.232 23.199C3.13007 23.1985 3.02815 23.1972 2.92624 23.1949C2.75774 23.1904 2.53895 23.1804 2.34099 23.1451C2.18448 23.119 2.03283 23.0694 1.89119 22.9979C1.75532 22.9288 1.63131 22.8386 1.52382 22.7306C1.41599 22.623 1.32593 22.4989 1.25701 22.363C1.18584 22.2214 1.13651 22.0698 1.1107 21.9134C1.07537 21.718 1.0654 21.5085 1.06087 21.3295C1.05831 21.2272 1.0568 21.1249 1.05634 21.0226L1.05566 20.7221V3.27806L1.05612 2.97796C1.05658 2.8755 1.05809 2.77304 1.06065 2.67061C1.06563 2.49123 1.07537 2.28173 1.11093 2.08468C1.13679 1.9286 1.18612 1.77733 1.25724 1.63601C1.32609 1.50056 1.41578 1.3769 1.5245 1.26841C1.63225 1.16049 1.75639 1.07029 1.89232 1.00115C2.03362 0.930167 2.18479 0.880844 2.34077 0.854842C2.53668 0.819736 2.74664 0.809997 2.92647 0.805014C3.02884 0.802296 3.13144 0.801164 3.23314 0.800484L3.61296 0.799805H34.3873Z" fill="white"/>
<path d="M10.1097 8.10171C10.4277 7.70422 10.6433 7.17039 10.5864 6.625C10.1212 6.6481 9.55363 6.93189 9.22477 7.32984C8.92965 7.67048 8.66851 8.22651 8.73646 8.74902C9.25874 8.79432 9.78058 8.48811 10.1097 8.10171Z" fill="#142E2A"/>
<path d="M10.5804 8.85119C9.82162 8.80589 9.17703 9.28152 8.81487 9.28152C8.45249 9.28152 7.89782 8.87384 7.29784 8.88493C6.51713 8.89626 5.79282 9.33791 5.39646 10.04C4.58155 11.4443 5.1813 13.528 5.97401 14.6717C6.35882 15.238 6.82267 15.8608 7.43374 15.8384C8.01129 15.8158 8.23755 15.4647 8.93922 15.4647C9.64066 15.4647 9.8445 15.8384 10.4558 15.8271C11.0895 15.8157 11.4859 15.2608 11.8707 14.6946C12.3123 14.0491 12.4928 13.4263 12.5042 13.3923C12.4928 13.381 11.282 12.9165 11.2707 11.5235C11.2594 10.3571 12.2215 9.80222 12.2668 9.76802C11.7235 8.96443 10.8746 8.87384 10.5801 8.85119" fill="#142E2A"/>
<path d="M18.1419 7.27295C19.7903 7.27295 20.9384 8.40925 20.9384 10.0635C20.9384 11.7237 19.7668 12.8659 18.1007 12.8659H16.2757V15.7686H14.957V7.27295H18.1419ZM16.2757 11.759H17.7886C18.9369 11.759 19.5901 11.1409 19.5901 10.0694C19.5901 8.99812 18.9367 8.38569 17.7945 8.38569H16.2757V11.759Z" fill="#142E2A"/>
<path d="M21.2656 14.008C21.2656 12.9188 22.0957 12.2949 23.6263 12.2006L25.2688 12.1005V11.6294C25.2688 10.9409 24.8156 10.564 24.0091 10.564C23.3437 10.564 22.8608 10.9053 22.7611 11.4292H21.5716C21.6072 10.3285 22.6431 9.52783 24.0444 9.52783C25.5515 9.52783 26.5347 10.3167 26.5347 11.5413V15.7683H25.3162V14.7498H25.2867C24.9393 15.415 24.1738 15.8329 23.3437 15.8329C22.1193 15.8329 21.2656 15.1031 21.2656 14.008ZM25.2688 13.4606V12.9836L23.803 13.0778C22.9786 13.1308 22.5491 13.4368 22.5491 13.9725C22.5491 14.4907 22.9965 14.8263 23.697 14.8263C24.5916 14.8263 25.2688 14.2551 25.2688 13.4606Z" fill="#142E2A"/>
<path d="M27.6554 18.0408V17.0225C27.7378 17.034 27.9378 17.0458 28.0438 17.0458C28.6266 17.0458 28.9564 16.7989 29.1566 16.1627L29.2743 15.7861L27.043 9.60449H28.4205L29.9749 14.6203H30.0043L31.5585 9.60449H32.9009L30.5871 16.098C30.0571 17.5876 29.4508 18.0763 28.1675 18.0763C28.0674 18.0763 27.7435 18.0646 27.6554 18.0408Z" fill="#142E2A"/>
</g>
</g>
<defs>
<clipPath id="clip0_0_117">
<rect width="38" height="24" fill="white"/>
</clipPath>
<clipPath id="clip1_0_117">
<rect width="38" height="24" fill="white"/>
</clipPath>
</defs>
</svg>
