<svg width="50" height="50" viewBox="0 0 50 50" fill="none" xmlns="http://www.w3.org/2000/svg">
<circle cx="25" cy="25" r="24.75" fill="#142E2A" stroke="white" stroke-width="0.5"/>
<path d="M18.75 24.5C18.4739 24.5 18.25 24.7239 18.25 25C18.25 25.2761 18.4739 25.5 18.75 25.5L18.75 25L18.75 24.5ZM31.6036 25.3536C31.7988 25.1583 31.7988 24.8417 31.6036 24.6464L28.4216 21.4645C28.2263 21.2692 27.9097 21.2692 27.7145 21.4645C27.5192 21.6597 27.5192 21.9763 27.7145 22.1716L30.5429 25L27.7145 27.8284C27.5192 28.0237 27.5192 28.3403 27.7145 28.5355C27.9097 28.7308 28.2263 28.7308 28.4216 28.5355L31.6036 25.3536ZM18.75 25L18.75 25.5L31.25 25.5L31.25 25L31.25 24.5L18.75 24.5L18.75 25Z" fill="white"/>
</svg>
