<svg width="50" height="50" viewBox="0 0 50 50" fill="none" xmlns="http://www.w3.org/2000/svg">
<circle cx="25" cy="25" r="24.75" transform="matrix(-1 0 0 1 50 0)" fill="#142E2A" fill-opacity="0.17" stroke="white" stroke-width="0.5"/>
<path d="M31.25 24.5C31.5261 24.5 31.75 24.7239 31.75 25C31.75 25.2761 31.5261 25.5 31.25 25.5L31.25 25L31.25 24.5ZM18.3964 25.3536C18.2012 25.1583 18.2012 24.8417 18.3964 24.6464L21.5784 21.4645C21.7737 21.2692 22.0903 21.2692 22.2855 21.4645C22.4808 21.6597 22.4808 21.9763 22.2855 22.1716L19.4571 25L22.2855 27.8284C22.4808 28.0237 22.4808 28.3403 22.2855 28.5355C22.0903 28.7308 21.7737 28.7308 21.5784 28.5355L18.3964 25.3536ZM31.25 25L31.25 25.5L18.75 25.5L18.75 25L18.75 24.5L31.25 24.5L31.25 25Z" fill="white"/>
</svg>
