<svg width="149" height="143" viewBox="0 0 149 143" fill="none" xmlns="http://www.w3.org/2000/svg">
<line x1="8.5328" y1="0.0170785" x2="0.335142" y2="133.371" stroke="#142E2A" stroke-width="0.555794"/>
<line x1="58.5405" y1="3.08745" x2="50.3429" y2="136.441" stroke="#142E2A" stroke-width="0.555794"/>
<line x1="108.54" y1="6.1698" x2="100.342" y2="139.524" stroke="#142E2A" stroke-width="0.555794"/>
<line x1="25.1939" y1="1.04449" x2="16.9962" y2="134.398" stroke="#142E2A" stroke-width="0.555794"/>
<line x1="75.2172" y1="4.11095" x2="67.0196" y2="137.465" stroke="#142E2A" stroke-width="0.555794"/>
<line x1="125.217" y1="7.18926" x2="117.019" y2="140.543" stroke="#142E2A" stroke-width="0.555794"/>
<line x1="41.8711" y1="2.06799" x2="33.6735" y2="135.422" stroke="#142E2A" stroke-width="0.555794"/>
<line x1="91.8783" y1="5.13444" x2="83.6807" y2="138.488" stroke="#142E2A" stroke-width="0.555794"/>
<line x1="141.886" y1="8.21276" x2="133.688" y2="141.566" stroke="#142E2A" stroke-width="0.555794"/>
<line x1="148.983" y1="8.93518" x2="8.22069" y2="0.282092" stroke="#142E2A" stroke-width="0.555794"/>
<line x1="145.905" y1="58.9385" x2="5.14249" y2="50.2854" stroke="#142E2A" stroke-width="0.555794"/>
<line x1="142.827" y1="108.95" x2="2.0643" y2="100.297" stroke="#142E2A" stroke-width="0.555794"/>
<line x1="147.951" y1="25.6043" x2="7.18924" y2="16.9512" stroke="#142E2A" stroke-width="0.555794"/>
<line x1="144.873" y1="75.6076" x2="4.11105" y2="66.9546" stroke="#142E2A" stroke-width="0.555794"/>
<line x1="141.787" y1="125.611" x2="1.02454" y2="116.958" stroke="#142E2A" stroke-width="0.555794"/>
<line x1="146.92" y1="42.2734" x2="6.1578" y2="33.6203" stroke="#142E2A" stroke-width="0.555794"/>
<line x1="143.857" y1="92.2768" x2="3.09525" y2="83.6237" stroke="#142E2A" stroke-width="0.555794"/>
<line x1="140.779" y1="142.284" x2="0.0170589" y2="133.631" stroke="#142E2A" stroke-width="0.555794"/>
</svg>
