<svg width="28" height="28" viewBox="0 0 28 28" fill="none" xmlns="http://www.w3.org/2000/svg">
<rect width="28" height="28" rx="14" fill="#F7F9F2"/>
<path d="M13.5399 7.1759C13.6618 7.05406 13.8274 6.98531 13.9998 6.98531C14.1722 6.98531 14.3377 7.05406 14.4597 7.1759C14.5815 7.29776 14.6502 7.46347 14.6503 7.63579L14.6496 13.35L20.3637 13.3493C20.449 13.3493 20.5335 13.3664 20.6123 13.399C20.6912 13.4317 20.7633 13.4795 20.8236 13.5399C20.8839 13.6002 20.9319 13.6723 20.9645 13.7512C20.9971 13.83 21.0142 13.9145 21.0142 13.9998C21.0142 14.085 20.9971 14.1696 20.9645 14.2483C20.9319 14.3272 20.8839 14.3993 20.8236 14.4597C20.7633 14.52 20.6912 14.5678 20.6123 14.6005C20.5335 14.6332 20.449 14.6502 20.3637 14.6502L14.6496 14.6495L14.6503 20.3637C14.6502 20.536 14.5815 20.7018 14.4597 20.8236C14.3377 20.9454 14.1722 21.0142 13.9998 21.0142C13.8274 21.0142 13.6618 20.9454 13.5399 20.8236C13.418 20.7018 13.3494 20.536 13.3493 20.3637V14.6502H7.63582C7.46349 14.6501 7.29778 14.5815 7.17592 14.4597C7.05409 14.3377 6.98533 14.1721 6.98533 13.9998C6.98533 13.8274 7.05409 13.6618 7.17592 13.5399C7.29778 13.418 7.46349 13.3494 7.63582 13.3493H13.3493V7.63579C13.3494 7.46347 13.418 7.29776 13.5399 7.1759Z" fill="#142E2A" stroke="#142E2A" stroke-width="0.3"/>
</svg>
