<svg width="110" height="110" viewBox="0 0 110 110" fill="none" xmlns="http://www.w3.org/2000/svg">
<rect width="110" height="110" rx="55" fill="#F7F9F2"/>
<path d="M46.9556 75.9016H60.2342L74.3175 89.5826V75.9016H81.158C82.091 75.9032 83.0147 75.7141 83.8719 75.3453C84.7294 74.9767 85.5022 74.4365 86.1427 73.7581C86.7836 73.0797 87.2788 72.2774 87.598 71.4003C87.9168 70.5235 88.0531 69.5905 87.9985 68.6588V45.723C87.9985 43.9089 87.2775 42.1689 85.995 40.886C84.7121 39.6031 82.9721 38.8825 81.158 38.8825H78.7437" stroke="#142E2A" stroke-width="5.11582" stroke-linecap="round" stroke-linejoin="round"/>
<path d="M67.0845 29.632H30.8701C29.872 29.5116 28.8592 29.6128 27.9044 29.9282C26.9497 30.2437 26.076 30.7659 25.3461 31.4573C24.6162 32.1491 24.0474 32.993 23.681 33.9294C23.3143 34.8658 23.1584 35.8714 23.2249 36.8749V60.213C23.2249 62.0272 23.9458 63.7671 25.2284 65.05C26.5113 66.3329 28.2512 67.0535 30.0654 67.0535H36.9059V80.7345L50.9892 67.0535H67.0845C68.8989 67.0535 70.6389 66.3329 71.9215 65.05C73.2044 63.7671 73.925 62.0272 73.925 60.213V36.4725C73.925 34.6584 73.2044 32.9185 71.9215 31.6356C70.6389 30.3527 68.8989 29.632 67.0845 29.632Z" stroke="#142E2A" stroke-width="5.11582" stroke-linecap="round" stroke-linejoin="round"/>
</svg>
