<svg width="110" height="110" viewBox="0 0 110 110" fill="none" xmlns="http://www.w3.org/2000/svg">
<rect width="110" height="110" rx="55" fill="#F7F9F2"/>
<path fill-rule="evenodd" clip-rule="evenodd" d="M60.0479 29.5828H54.1081C48.939 29.5828 44.8441 29.5828 41.6408 30.0097C38.3446 30.4508 35.6757 31.3772 33.5692 33.4646C33.1966 33.8614 32.9937 34.3861 33.0035 34.9283C33.013 35.4706 33.2343 35.9881 33.6208 36.3714C34.0072 36.755 34.5288 36.9746 35.0752 36.9841C35.6217 36.9937 36.1506 36.7925 36.5503 36.4228C37.7428 35.245 39.3739 34.5363 42.2032 34.1594C45.0917 33.7743 48.9023 33.7688 54.2657 33.7688H59.8906C65.2537 33.7688 69.0617 33.7743 71.9557 34.1594C74.7821 34.5363 76.4135 35.245 77.603 36.4257C78.7926 37.6061 79.507 39.2246 79.8866 42.0292C80.2748 44.901 80.2803 48.6794 80.2803 54.0014V65.1641C80.2803 70.4861 80.2748 74.2674 79.8866 77.1363C79.507 79.941 78.7926 81.5594 77.603 82.7399C76.4135 83.9205 74.7821 84.6292 71.9528 85.0061C69.0617 85.3912 65.2537 85.3968 59.8906 85.3968H54.2657C48.9023 85.3968 45.0917 85.3912 42.2003 85.0061C39.3739 84.6292 37.7428 83.9205 36.5532 82.7399C34.5957 80.7977 34.0023 77.781 33.901 70.7148C33.8928 70.1597 33.6628 69.6305 33.2615 69.2439C33.0626 69.0523 32.8279 68.9017 32.5703 68.8001C32.3128 68.6985 32.0379 68.6486 31.7608 68.6526C31.4839 68.6566 31.2103 68.7148 30.9559 68.8237C30.7017 68.9326 30.4715 69.0901 30.2783 69.2872C30.0855 69.4845 29.9335 69.7174 29.8312 69.973C29.729 70.2285 29.6783 70.5014 29.6823 70.7763C29.7808 77.5492 30.2223 82.3799 33.5692 85.701C35.6757 87.7883 38.3446 88.7148 41.6408 89.1559C44.847 89.5828 48.939 89.5828 54.1081 89.5828H60.0479C65.2172 89.5828 69.3121 89.5828 72.5155 89.1559C75.8114 88.7148 78.4806 87.7883 80.587 85.701C82.6906 83.6108 83.6243 80.9623 84.0688 77.6917C84.499 74.5103 84.499 70.4497 84.499 65.3206V53.845C84.499 48.7159 84.499 44.6526 84.0688 41.4739C83.6243 38.2032 82.6906 35.5548 80.587 33.4646C78.4806 31.3772 75.8114 30.4508 72.5155 30.0097C69.3092 29.5828 65.2172 29.5828 60.0479 29.5828ZM39.883 45.7577C39.1799 45.0274 38.337 44.4439 37.4035 44.0414C36.4699 43.639 35.4648 43.4257 34.447 43.4143C33.4292 43.4028 32.4195 43.593 31.477 43.9741C30.5343 44.3554 29.6781 44.9197 28.9586 45.6337C28.2388 46.3479 27.6701 47.1974 27.2861 48.1328C26.9019 49.0681 26.7101 50.0701 26.7217 51.0799C26.7335 52.0899 26.9483 53.0872 27.3539 54.0134C27.7595 54.9399 28.3475 55.7763 29.0835 56.4739L42.4535 69.7492C43.0097 70.331 43.6015 70.8779 44.2255 71.3874C44.8741 71.8897 45.5717 72.3177 46.3179 72.6712C46.9477 72.9697 47.6115 73.1874 48.5846 73.5083L54.4457 75.4479C55.0803 75.6586 55.7617 75.6897 56.413 75.5374C57.0643 75.3852 57.6601 75.0559 58.1335 74.5863C58.6066 74.1168 58.9386 73.5254 59.0919 72.8792C59.2452 72.2328 59.2141 71.5568 59.0017 70.927L57.0866 65.2339L57.0472 65.1139C56.7208 64.1457 56.5015 63.4897 56.2006 62.8646C55.8472 62.1277 55.4132 61.4314 54.9068 60.7883C54.4766 60.2414 53.9843 59.753 53.2559 59.0301L53.1688 58.9437L39.883 45.7577ZM32.0646 48.7159C32.3821 48.4005 32.7592 48.1505 33.1741 47.9799C33.5892 47.8092 34.0339 47.7214 34.4832 47.7214C34.9323 47.7214 35.3772 47.8092 35.7923 47.9799C36.2072 48.1505 36.5843 48.4005 36.9019 48.7159L37.4137 49.2237L37.3181 49.5223C37.0537 50.2759 36.5503 51.2806 35.5997 52.2237C34.7586 53.0641 33.7195 53.6828 32.5763 54.0237L32.0646 53.5159C31.7468 53.2008 31.4948 52.8266 31.3228 52.4148C31.151 52.003 31.0623 51.5614 31.0623 51.1159C31.0623 50.6701 31.151 50.2288 31.3228 49.8168C31.4948 49.405 31.7468 49.031 32.0646 48.7159ZM35.7995 57.2219C36.8279 56.6892 37.767 56.0021 38.5837 55.1845C39.4075 54.3743 40.1001 53.4423 40.6368 52.4219L50.1877 61.899C51.0341 62.739 51.3323 63.0405 51.5826 63.3585C51.9015 63.7641 52.1723 64.1985 52.3955 64.6619C52.5697 65.0274 52.7077 65.4266 53.0872 66.5539L54.2121 69.9028L53.4163 70.6926L50.0415 69.5763C48.9052 69.1994 48.503 69.0628 48.1346 68.8897C47.6697 68.6665 47.2319 68.3977 46.8212 68.0832C46.5006 67.8348 46.1968 67.539 45.3503 66.699L35.7995 57.2219ZM70.437 51.2108C70.437 50.6557 70.2148 50.1232 69.8192 49.7308C69.4237 49.3381 68.887 49.1177 68.3277 49.1177H50.047C49.4877 49.1177 48.9512 49.3381 48.5555 49.7308C48.1599 50.1232 47.9377 50.6557 47.9377 51.2108C47.9377 51.7659 48.1599 52.2981 48.5555 52.6908C48.9512 53.0832 49.4877 53.3037 50.047 53.3037H68.3277C68.887 53.3037 69.4237 53.0832 69.8192 52.6908C70.2148 52.2981 70.437 51.7659 70.437 51.2108ZM70.437 62.3734C70.437 61.8183 70.2148 61.2861 69.8192 60.8934C69.4237 60.501 68.887 60.2805 68.3277 60.2805H61.2966C60.7372 60.2805 60.2008 60.501 59.8052 60.8934C59.4097 61.2861 59.1875 61.8183 59.1875 62.3734C59.1875 62.9285 59.4097 63.461 59.8052 63.8534C60.2008 64.2459 60.7372 64.4666 61.2966 64.4666H68.3277C68.887 64.4666 69.4237 64.2459 69.8192 63.8534C70.2148 63.461 70.437 62.9285 70.437 62.3734ZM70.437 73.5363C70.437 72.9812 70.2148 72.4488 69.8192 72.0563C69.4237 71.6637 68.887 71.4432 68.3277 71.4432H64.109C63.5497 71.4432 63.0132 71.6637 62.6177 72.0563C62.2219 72.4488 61.9997 72.9812 61.9997 73.5363C61.9997 74.0914 62.2219 74.6237 62.6177 75.0163C63.0132 75.4088 63.5497 75.6292 64.109 75.6292H68.3277C68.887 75.6292 69.4237 75.4088 69.8192 75.0163C70.2148 74.6237 70.437 74.0914 70.437 73.5363Z" fill="#142E2A"/>
</svg>
