<svg width="110" height="110" viewBox="0 0 110 110" fill="none" xmlns="http://www.w3.org/2000/svg">
<rect width="110" height="110" rx="55" fill="#F7F9F2"/>
<path d="M66.3233 55.2969C63.3112 55.2981 60.3534 56.0989 57.7521 57.6175V44.5829C57.7521 40.6047 56.1718 36.7895 53.3588 33.9766C50.5459 31.1636 46.7307 29.5833 42.7525 29.5833C38.7744 29.5833 34.9592 31.1636 32.1462 33.9766C29.3332 36.7895 27.7529 40.6047 27.7529 44.5829V74.5821C27.7522 77.6392 28.6857 80.6235 30.4284 83.1352C32.1711 85.6469 34.6398 87.5661 37.5037 88.6356C40.3676 89.7051 43.49 89.8738 46.4525 89.1192C49.415 88.3645 52.0761 86.7225 54.0794 84.4132C56.0555 86.4341 58.5008 87.9348 61.1974 88.7816C63.8941 89.6285 66.7583 89.7951 69.535 89.2667C72.3117 88.7382 74.9145 87.5312 77.1116 85.753C79.3087 83.9749 81.0318 81.6809 82.1275 79.0754C83.2231 76.4699 83.6573 73.6338 83.3912 70.8199C83.1252 68.0059 82.1672 65.3015 80.6027 62.9475C79.0381 60.5935 76.9156 58.6631 74.4241 57.3283C71.9327 55.9934 69.1498 55.2955 66.3233 55.2969ZM66.3233 59.5825C69.3588 59.5877 72.2947 60.6659 74.6121 62.6264C76.9296 64.587 78.4792 67.3038 78.9872 70.2965H53.6594C54.1674 67.3038 55.7171 64.587 58.0345 62.6264C60.3519 60.6659 63.2878 59.5877 66.3233 59.5825ZM32.0385 44.5829C32.0385 41.7413 33.1673 39.0162 35.1766 37.0069C37.1858 34.9977 39.911 33.8689 42.7525 33.8689C45.594 33.8689 48.3192 34.9977 50.3285 37.0069C52.3377 39.0162 53.4665 41.7413 53.4665 44.5829V57.4397H32.0385V44.5829ZM42.7525 85.296C39.912 85.2926 37.1889 84.1628 35.1803 82.1542C33.1718 80.1457 32.0419 77.4225 32.0385 74.5821V61.7253H52.963C50.8127 64.391 49.5148 67.6423 49.2381 71.0559C48.9614 74.4696 49.7187 77.8875 51.4116 80.8647C50.4214 82.2354 49.1203 83.3517 47.6151 84.122C46.1099 84.8923 44.4434 85.2947 42.7525 85.296ZM66.3233 85.296C63.2878 85.2908 60.3519 84.2127 58.0345 82.2521C55.7171 80.2915 54.1674 77.5747 53.6594 74.5821H78.9872C78.4792 77.5747 76.9296 80.2915 74.6121 82.2521C72.2947 84.2127 69.3588 85.2908 66.3233 85.296Z" fill="#142E2A"/>
</svg>
