<svg width="110" height="110" viewBox="0 0 110 110" fill="none" xmlns="http://www.w3.org/2000/svg">
<rect width="110" height="110" rx="55" fill="#F7F9F2"/>
<path d="M55.6102 89.5829C72.1788 89.5829 85.6103 76.1514 85.6103 59.5828C85.6103 43.0144 72.1788 29.5829 55.6102 29.5829C39.0418 29.5829 25.6103 43.0144 25.6103 59.5828C25.6103 76.1514 39.0418 89.5829 55.6102 89.5829Z" stroke="#142E2A" stroke-width="4.40115" stroke-linecap="round" stroke-linejoin="round"/>
<mask id="path-3-inside-1_54_6686" fill="white">
<path d="M49.8945 68.2351C49.8461 69.8513 49.2933 71.4117 48.3146 72.6981C47.3355 73.9849 45.9791 74.9333 44.4346 75.4111L35.3665 79.7631C34.984 79.9241 34.6148 80.1155 34.2627 80.3353"/>
</mask>
<path d="M48.3146 72.6981L50.0204 73.9962L50.0205 73.9959L48.3146 72.6981ZM44.4346 75.4111L43.8012 73.3634L43.6499 73.4102L43.5071 73.4787L44.4346 75.4111ZM35.3665 79.7631L36.1978 81.7388L36.2464 81.7183L36.2939 81.6955L35.3665 79.7631ZM49.8945 68.2351L47.7521 68.1709C47.717 69.34 47.3171 70.4692 46.6087 71.4004L48.3146 72.6981L50.0205 73.9959C51.2695 72.3541 51.9751 70.3625 52.037 68.2994L49.8945 68.2351ZM48.3146 72.6981L46.6089 71.4001C45.9002 72.3314 44.9187 73.0177 43.8012 73.3634L44.4346 75.4111L45.068 77.4588C47.0395 76.849 48.7707 75.6383 50.0204 73.9962L48.3146 72.6981ZM44.4346 75.4111L43.5071 73.4787L34.4391 77.8307L35.3665 79.7631L36.2939 81.6955L45.362 77.3435L44.4346 75.4111ZM35.3665 79.7631L34.5352 77.7874C34.0472 77.9928 33.5764 78.2369 33.1274 78.5173L34.2627 80.3353L35.398 82.1534C35.6533 81.994 35.9207 81.8553 36.1978 81.7388L35.3665 79.7631Z" fill="#142E2A" mask="url(#path-3-inside-1_54_6686)"/>
<path d="M49.8945 68.2351C49.8461 69.8513 49.2933 71.4117 48.3146 72.6981C47.3355 73.9849 45.9791 74.9333 44.4346 75.4111L35.3665 79.7631C34.984 79.9241 34.6148 80.1155 34.2627 80.3353" stroke="#142E2A" stroke-width="4.40115" stroke-linecap="round" stroke-linejoin="round"/>
<path d="M77.5332 80.3456C77.1814 80.1252 76.8122 79.9341 76.4292 79.7736L67.3691 75.4213C64.0413 73.6695 61.9092 71.6896 61.9092 68.2454" stroke="#142E2A" stroke-width="4.40115" stroke-linecap="round" stroke-linejoin="round"/>
<path d="M54.6456 67.6631C62.3162 67.6631 68.5347 61.4448 68.5347 53.7741C68.5347 46.1035 62.3162 39.8852 54.6456 39.8852C46.9751 39.8852 40.7568 46.1035 40.7568 53.7741C40.7568 61.4448 46.9751 67.6631 54.6456 67.6631Z" stroke="#142E2A" stroke-width="4.40115" stroke-linecap="round" stroke-linejoin="round"/>
</svg>
