<svg width="58" height="60" viewBox="0 0 58 60" fill="none" xmlns="http://www.w3.org/2000/svg">
<path fill-rule="evenodd" clip-rule="evenodd" d="M33.3267 0H27.3869C22.2178 0 18.1229 1.15898e-06 14.9196 0.42689C11.6234 0.868001 8.95449 1.79444 6.84805 3.88178C6.47538 4.27867 6.27249 4.80333 6.28227 5.34556C6.29182 5.88778 6.51316 6.40533 6.8996 6.78867C7.28605 7.17222 7.8076 7.39178 8.35405 7.40134C8.90049 7.41089 9.42938 7.20978 9.82916 6.84C11.0216 5.66222 12.6527 4.95356 15.482 4.57667C18.3705 4.19156 22.1812 4.186 27.5445 4.186H33.1694C38.5325 4.186 42.3405 4.19156 45.2345 4.57667C48.0609 4.95356 49.6923 5.66222 50.8818 6.84289C52.0714 8.02333 52.7858 9.64178 53.1654 12.4464C53.5536 15.3182 53.5592 19.0967 53.5592 24.4187V35.5813C53.5592 40.9033 53.5536 44.6847 53.1654 47.5536C52.7858 50.3582 52.0714 51.9767 50.8818 53.1571C49.6923 54.3378 48.0609 55.0464 45.2316 55.4233C42.3405 55.8084 38.5325 55.814 33.1694 55.814H27.5445C22.1812 55.814 18.3705 55.8084 15.4792 55.4233C12.6527 55.0464 11.0216 54.3378 9.83205 53.1571C7.87449 51.2149 7.28116 48.1982 7.17983 41.132C7.1716 40.5769 6.9416 40.0478 6.54027 39.6611C6.34138 39.4696 6.10671 39.3189 5.84916 39.2173C5.5916 39.1158 5.31671 39.0658 5.0396 39.0698C4.76271 39.0738 4.48916 39.132 4.23471 39.2409C3.98049 39.3498 3.75027 39.5073 3.55716 39.7044C3.36427 39.9018 3.21227 40.1347 3.11005 40.3902C3.00783 40.6458 2.95716 40.9187 2.96116 41.1936C3.0596 47.9664 3.50116 52.7971 6.84805 56.1182C8.95449 58.2056 11.6234 59.132 14.9196 59.5731C18.1258 60 22.2178 60 27.3869 60H33.3267C38.4961 60 42.5909 60 45.7943 59.5731C49.0903 59.132 51.7594 58.2056 53.8658 56.1182C55.9694 54.028 56.9032 51.3796 57.3476 48.1089C57.7778 44.9276 57.7778 40.8669 57.7778 35.7378V24.2622C57.7778 19.1331 57.7778 15.0698 57.3476 11.8911C56.9032 8.62044 55.9694 5.972 53.8658 3.88178C51.7594 1.79444 49.0903 0.868001 45.7943 0.42689C42.588 1.15898e-06 38.4961 0 33.3267 0ZM13.1618 16.1749C12.4587 15.4447 11.6158 14.8611 10.6823 14.4587C9.74871 14.0562 8.7436 13.8429 7.72583 13.8316C6.70805 13.82 5.69827 14.0102 4.75583 14.3913C3.81316 14.7727 2.95694 15.3369 2.23738 16.0509C1.5176 16.7651 0.948937 17.6147 0.564937 18.55C0.180714 19.4853 -0.0110628 20.4873 0.000492784 21.4971C0.0122706 22.5071 0.22716 23.5044 0.632715 24.4307C1.03827 25.3571 1.62627 26.1936 2.36227 26.8911L15.7323 40.1665C16.2885 40.7482 16.8803 41.2951 17.5043 41.8047C18.1529 42.3069 18.8505 42.7349 19.5967 43.0884C20.2265 43.3869 20.8903 43.6047 21.8634 43.9256L27.7245 45.8651C28.3592 46.0758 29.0405 46.1069 29.6918 45.9547C30.3432 45.8024 30.9389 45.4731 31.4123 45.0036C31.8854 44.534 32.2174 43.9427 32.3707 43.2964C32.524 42.65 32.4929 41.974 32.2805 41.3442L30.3654 35.6511L30.326 35.5311C29.9996 34.5629 29.7803 33.9069 29.4794 33.2818C29.126 32.5449 28.6921 31.8487 28.1856 31.2056C27.7554 30.6587 27.2632 30.1702 26.5347 29.4473L26.4476 29.3609L13.1618 16.1749ZM5.34338 19.1331C5.66093 18.8178 6.03805 18.5678 6.45293 18.3971C6.86805 18.2264 7.31272 18.1387 7.76205 18.1387C8.21116 18.1387 8.65605 18.2264 9.07116 18.3971C9.48605 18.5678 9.86316 18.8178 10.1807 19.1331L10.6925 19.6409L10.5969 19.9396C10.3325 20.6931 9.82916 21.6978 8.87849 22.6409C8.03738 23.4813 6.99827 24.1 5.85516 24.4409L5.34338 23.9331C5.0256 23.618 4.7736 23.2438 4.6016 22.832C4.42982 22.4202 4.34116 21.9787 4.34116 21.5331C4.34116 21.0873 4.42982 20.646 4.6016 20.234C4.7736 19.8222 5.0256 19.4482 5.34338 19.1331ZM9.07827 27.6391C10.1067 27.1064 11.0458 26.4193 11.8625 25.6018C12.6863 24.7916 13.3789 23.8596 13.9156 22.8391L23.4665 32.3162C24.3129 33.1562 24.6112 33.4578 24.8614 33.7758C25.1803 34.1813 25.4512 34.6158 25.6743 35.0791C25.8485 35.4447 25.9865 35.8438 26.3661 36.9711L27.4909 40.32L26.6952 41.1098L23.3203 39.9936C22.1841 39.6167 21.7818 39.48 21.4134 39.3069C20.9485 39.0838 20.5107 38.8149 20.1 38.5004C19.7794 38.252 19.4756 37.9562 18.6292 37.1162L9.07827 27.6391ZM43.7158 21.628C43.7158 21.0729 43.4936 20.5404 43.098 20.148C42.7025 19.7553 42.1658 19.5349 41.6065 19.5349H23.3258C22.7665 19.5349 22.23 19.7553 21.8343 20.148C21.4387 20.5404 21.2165 21.0729 21.2165 21.628C21.2165 22.1831 21.4387 22.7153 21.8343 23.108C22.23 23.5004 22.7665 23.7209 23.3258 23.7209H41.6065C42.1658 23.7209 42.7025 23.5004 43.098 23.108C43.4936 22.7153 43.7158 22.1831 43.7158 21.628ZM43.7158 32.7907C43.7158 32.2356 43.4936 31.7033 43.098 31.3107C42.7025 30.9182 42.1658 30.6978 41.6065 30.6978H34.5754C34.016 30.6978 33.4796 30.9182 33.084 31.3107C32.6885 31.7033 32.4663 32.2356 32.4663 32.7907C32.4663 33.3458 32.6885 33.8782 33.084 34.2707C33.4796 34.6631 34.016 34.8838 34.5754 34.8838H41.6065C42.1658 34.8838 42.7025 34.6631 43.098 34.2707C43.4936 33.8782 43.7158 33.3458 43.7158 32.7907ZM43.7158 43.9536C43.7158 43.3984 43.4936 42.866 43.098 42.4736C42.7025 42.0809 42.1658 41.8604 41.6065 41.8604H37.3878C36.8285 41.8604 36.292 42.0809 35.8965 42.4736C35.5007 42.866 35.2785 43.3984 35.2785 43.9536C35.2785 44.5087 35.5007 45.0409 35.8965 45.4336C36.292 45.826 36.8285 46.0465 37.3878 46.0465H41.6065C42.1658 46.0465 42.7025 45.826 43.098 45.4336C43.4936 45.0409 43.7158 44.5087 43.7158 43.9536Z" fill="#142E2A"/>
</svg>
