<svg width="65" height="65" viewBox="0 0 65 65" fill="none" xmlns="http://www.w3.org/2000/svg">
<path d="M32.4999 62.7787C49.2225 62.7787 62.7789 49.2224 62.7789 32.4998C62.7789 15.7774 49.2225 2.22102 32.4999 2.22102C15.7775 2.22102 2.22114 15.7774 2.22114 32.4998C2.22114 49.2224 15.7775 62.7787 32.4999 62.7787Z" stroke="#142E2A" stroke-width="4.40115" stroke-linecap="round" stroke-linejoin="round"/>
<mask id="path-2-inside-1_54_6687" fill="white">
<path d="M26.7311 41.2325C26.6821 42.8637 26.1242 44.4386 25.1365 45.737C24.1482 47.0356 22.7793 47.9929 21.2203 48.4751L12.068 52.8676C11.6819 53.0301 11.3093 53.2232 10.9539 53.4452"/>
</mask>
<path d="M25.1365 45.737L26.8581 47.0471L26.8582 47.0468L25.1365 45.737ZM21.2203 48.4751L20.5811 46.4084L20.4284 46.4556L20.2843 46.5248L21.2203 48.4751ZM12.068 52.8676L12.907 54.8616L12.956 54.841L13.004 54.818L12.068 52.8676ZM26.7311 41.2325L24.5687 41.1676C24.5333 42.3477 24.1297 43.4874 23.4147 44.4272L25.1365 45.737L26.8582 47.0468C28.1188 45.3898 28.831 43.3797 28.8934 41.2973L26.7311 41.2325ZM25.1365 45.737L23.4149 44.4269C22.6996 45.3669 21.709 46.0595 20.5811 46.4084L21.2203 48.4751L21.8596 50.5419C23.8495 49.9264 25.5968 48.7044 26.8581 47.0471L25.1365 45.737ZM21.2203 48.4751L20.2843 46.5248L11.132 50.9172L12.068 52.8676L13.004 54.818L22.1564 50.4255L21.2203 48.4751ZM12.068 52.8676L11.229 50.8736C10.7364 51.0808 10.2612 51.3272 9.80802 51.6102L10.9539 53.4452L12.0998 55.2801C12.3574 55.1192 12.6274 54.9793 12.907 54.8616L12.068 52.8676Z" fill="#142E2A" mask="url(#path-2-inside-1_54_6687)"/>
<path d="M26.7311 41.2325C26.6821 42.8637 26.1242 44.4386 25.1365 45.737C24.1482 47.0356 22.7793 47.9929 21.2203 48.4751L12.068 52.8676C11.6819 53.0301 11.3093 53.2232 10.9539 53.4452" stroke="#142E2A" stroke-width="4.40115" stroke-linecap="round" stroke-linejoin="round"/>
<path d="M54.6267 53.4555C54.2715 53.2331 53.8989 53.0402 53.5123 52.8782L44.3681 48.4855C41.0094 46.7174 38.8574 44.719 38.8574 41.2428" stroke="#142E2A" stroke-width="4.40115" stroke-linecap="round" stroke-linejoin="round"/>
<path d="M31.5263 40.6551C39.2682 40.6551 45.5445 34.3791 45.5445 26.637C45.5445 18.8951 39.2682 12.6191 31.5263 12.6191C23.7845 12.6191 17.5084 18.8951 17.5084 26.637C17.5084 34.3791 23.7845 40.6551 31.5263 40.6551Z" stroke="#142E2A" stroke-width="4.40115" stroke-linecap="round" stroke-linejoin="round"/>
</svg>
