<svg width="37" height="41" viewBox="0 0 37 41" fill="none" xmlns="http://www.w3.org/2000/svg">
<path d="M20.25 10C23.3495 10 25.8613 12.552 25.8613 15.7002V16H27.4199C28.5043 16 29.4048 16.8512 29.4824 17.9502L30.4951 32.3506C30.5359 32.9318 30.3371 33.5041 29.9463 33.9307C29.5547 34.3573 29.0068 34.5996 28.4326 34.5996H12.0674C11.4932 34.5996 10.9453 34.3573 10.5537 33.9307C10.1629 33.5041 9.96414 32.9318 10.0049 32.3506L11.0176 17.9502C11.0952 16.8512 11.9957 16 13.0801 16H14.6494C14.6459 15.8999 14.6428 15.7997 14.6387 15.7002C14.5046 12.4158 17.2639 10 20.25 10ZM13.0801 17.7998C12.9254 17.7998 12.7969 17.9217 12.7861 18.0781L11.7725 32.4785C11.7666 32.5619 11.7955 32.6439 11.8516 32.7051C11.9076 32.7654 11.9855 32.7998 12.0674 32.7998H28.4326C28.5145 32.7998 28.5924 32.7654 28.6484 32.7051C28.7045 32.6439 28.7334 32.5619 28.7275 32.4785L27.7139 18.0781C27.7031 17.9217 27.5746 17.7998 27.4199 17.7998H25.8613V22.2998C25.8613 22.7966 25.4647 23.2002 24.9756 23.2002C24.4865 23.2001 24.0898 22.7966 24.0898 22.2998V17.7998H16.4102V22.2998C16.4102 22.7966 16.0135 23.2001 15.5244 23.2002C15.0353 23.2002 14.6387 22.7966 14.6387 22.2998C14.6396 22.2756 14.7147 20.1829 14.6895 17.7998H13.0801ZM20.25 11.7998C18.1293 11.7998 16.4102 13.5462 16.4102 15.7002V16H24.0898V15.7002C24.0898 13.5462 22.3707 11.7998 20.25 11.7998Z" fill="#142E2A"/>
<path d="M20.25 10C23.3495 10 25.8613 12.552 25.8613 15.7002V16H27.4199C28.5043 16 29.4048 16.8512 29.4824 17.9502L30.4951 32.3506C30.5359 32.9318 30.3371 33.5041 29.9463 33.9307C29.5547 34.3573 29.0068 34.5996 28.4326 34.5996H12.0674C11.4932 34.5996 10.9453 34.3573 10.5537 33.9307C10.1629 33.5041 9.96414 32.9318 10.0049 32.3506L11.0176 17.9502C11.0952 16.8512 11.9957 16 13.0801 16H14.6494C14.6459 15.8999 14.6428 15.7997 14.6387 15.7002C14.5046 12.4158 17.2639 10 20.25 10ZM13.0801 17.7998C12.9254 17.7998 12.7969 17.9217 12.7861 18.0781L11.7725 32.4785C11.7666 32.5619 11.7955 32.6439 11.8516 32.7051C11.9076 32.7654 11.9855 32.7998 12.0674 32.7998H28.4326C28.5145 32.7998 28.5924 32.7654 28.6484 32.7051C28.7045 32.6439 28.7334 32.5619 28.7275 32.4785L27.7139 18.0781C27.7031 17.9217 27.5746 17.7998 27.4199 17.7998H25.8613V22.2998C25.8613 22.7966 25.4647 23.2002 24.9756 23.2002C24.4865 23.2001 24.0898 22.7966 24.0898 22.2998V17.7998H16.4102V22.2998C16.4102 22.7966 16.0135 23.2001 15.5244 23.2002C15.0353 23.2002 14.6387 22.7966 14.6387 22.2998C14.6396 22.2756 14.7147 20.1829 14.6895 17.7998H13.0801ZM20.25 11.7998C18.1293 11.7998 16.4102 13.5462 16.4102 15.7002V16H24.0898V15.7002C24.0898 13.5462 22.3707 11.7998 20.25 11.7998Z" stroke="#142E2A"/>
</svg>
