<svg width="70" height="66" viewBox="0 0 70 66" fill="none" xmlns="http://www.w3.org/2000/svg">
<path d="M26.3351 48.9352H39.6296L53.7297 62.6325V48.9352H60.5784C61.5125 48.9367 62.4373 48.7474 63.2956 48.3781C64.1541 48.0091 64.9278 47.4683 65.5691 46.789C66.2107 46.1098 66.7065 45.3066 67.0261 44.4284C67.3453 43.5506 67.4818 42.6165 67.4271 41.6836V18.7205C67.4271 16.9042 66.7053 15.1622 65.4211 13.8777C64.1367 12.5933 62.3947 11.8718 60.5784 11.8718H58.1612" stroke="#142E2A" stroke-width="5.11582" stroke-linecap="round" stroke-linejoin="round"/>
<path d="M46.4881 2.61028H10.2305C9.23111 2.48967 8.21712 2.59101 7.26125 2.90683C6.30539 3.22266 5.43065 3.74551 4.69984 4.43777C3.96903 5.13035 3.39955 5.97524 3.03275 6.91277C2.66564 7.85029 2.50959 8.85714 2.57611 9.8618V33.2278C2.57611 35.0441 3.29791 36.7861 4.58203 38.0706C5.86647 39.355 7.60847 40.0765 9.42477 40.0765H16.2734V53.7738L30.3736 40.0765H46.4881C48.3047 40.0765 50.0467 39.355 51.3308 38.0706C52.6153 36.7861 53.3368 35.0441 53.3368 33.2278V9.45894C53.3368 7.64264 52.6153 5.90064 51.3308 4.6162C50.0467 3.33177 48.3047 2.61028 46.4881 2.61028Z" stroke="#142E2A" stroke-width="5.11582" stroke-linecap="round" stroke-linejoin="round"/>
</svg>
