<svg width="56" height="60" viewBox="0 0 56 60" fill="none" xmlns="http://www.w3.org/2000/svg">
<path d="M38.5704 25.7136C35.5582 25.7148 32.6004 26.5156 29.9992 28.0342V14.9996C29.9992 11.0214 28.4189 7.20625 25.6059 4.39328C22.7929 1.58031 18.9777 0 14.9996 0C11.0214 0 7.20625 1.58031 4.39328 4.39328C1.58031 7.20625 5.31805e-07 11.0214 4.72526e-07 14.9996V44.9988C-0.00076674 48.0559 0.932741 51.0402 2.67546 53.5519C4.41818 56.0636 6.88687 57.9828 9.75079 59.0523C12.6147 60.1218 15.7371 60.2905 18.6996 59.5359C21.6621 58.7812 24.3232 57.1392 26.3264 54.8299C28.3025 56.8508 30.7478 58.3515 33.4445 59.1983C36.1411 60.0452 39.0054 60.2118 41.7821 59.6834C44.5587 59.1549 47.1615 57.9479 49.3586 56.1697C51.5557 54.3916 53.2789 52.0976 54.3745 49.4921C55.4702 46.8866 55.9043 44.0505 55.6383 41.2366C55.3722 38.4227 54.4143 35.7182 52.8497 33.3642C51.2852 31.0103 49.1626 29.0798 46.6712 27.745C44.1798 26.4101 41.3969 25.7123 38.5704 25.7136ZM38.5704 29.9992C41.6059 30.0044 44.5418 31.0826 46.8592 33.0432C49.1766 35.0037 50.7263 37.7205 51.2343 40.7132H25.9064C26.4144 37.7205 27.9641 35.0037 30.2815 33.0432C32.5989 31.0826 35.5349 30.0044 38.5704 29.9992ZM4.2856 14.9996C4.2856 12.1581 5.41439 9.43291 7.42365 7.42365C9.43291 5.41439 12.1581 4.2856 14.9996 4.2856C17.8411 4.2856 20.5663 5.41439 22.5755 7.42365C24.5848 9.43291 25.7136 12.1581 25.7136 14.9996V27.8564H4.2856V14.9996ZM14.9996 55.7127C12.1591 55.7093 9.43594 54.5795 7.42741 52.5709C5.41888 50.5624 4.289 47.8392 4.2856 44.9988V32.142H25.21C23.0598 34.8077 21.7618 38.059 21.4851 41.4727C21.2084 44.8863 21.9658 48.3042 23.6586 51.2814C22.6685 52.6521 21.3674 53.7684 19.8622 54.5387C18.3569 55.309 16.6905 55.7114 14.9996 55.7127ZM38.5704 55.7127C35.5349 55.7075 32.5989 54.6294 30.2815 52.6688C27.9641 50.7082 26.4144 47.9914 25.9064 44.9988H51.2343C50.7263 47.9914 49.1766 50.7082 46.8592 52.6688C44.5418 54.6294 41.6059 55.7075 38.5704 55.7127Z" fill="#142E2A"/>
</svg>
