<svg width="48" height="48" viewBox="0 0 48 48" fill="none" xmlns="http://www.w3.org/2000/svg">
<path d="M36 1H12C5.92487 1 1 5.92487 1 12V36C1 42.0751 5.92487 47 12 47H36C42.0751 47 47 42.0751 47 36V12C47 5.92487 42.0751 1 36 1Z" fill="#142E2A"/>
<path d="M36 1H12C5.92487 1 1 5.92487 1 12V36C1 42.0751 5.92487 47 12 47H36C42.0751 47 47 42.0751 47 36V12C47 5.92487 42.0751 1 36 1Z" stroke="#D3DABE"/>
<path d="M23.5104 33.8434C23.6533 33.9453 23.8242 34 23.9994 34C24.1746 34 24.3455 33.9453 24.4885 33.8434L24 33.1487L24.4896 33.8434L24.4987 33.8366L24.5224 33.8195L24.6126 33.7537C24.6908 33.6969 24.8018 33.6141 24.9454 33.5051C26.6219 32.232 28.2045 30.8381 29.6805 29.3346C30.9757 28.0088 32.2923 26.4593 33.2896 24.8156C34.2825 23.181 35 21.383 35 19.5804C35 17.4407 34.34 15.7686 33.1723 14.6335C32.0103 13.5051 30.4421 13 28.7949 13C26.8487 13 25.1305 13.9456 24 15.4031C22.8695 13.9456 21.1502 13 19.2051 13C15.7303 13 13 15.9956 13 19.5804C13 21.383 13.7187 23.1799 14.7104 24.8156C15.7077 26.4593 17.0243 28.0088 18.3195 29.3358C19.8931 30.9376 21.5875 32.4146 23.3874 33.7537L23.4776 33.8195L23.5013 33.8366L23.5104 33.8434Z" fill="white"/>
</svg>
