<svg width="1453" height="1212" viewBox="0 0 1453 1212" fill="none" xmlns="http://www.w3.org/2000/svg">
<path d="M231.258 69.9654C162.548 22.6519 49.2585 4.46418 1.20246 1.28451V1210.8H1451.57V343.735C1272.85 361.668 1017.54 266.946 912.222 217.343C835.742 171.937 657.66 150.654 579.409 159.632C453.031 174.131 296.836 115.122 231.258 69.9654Z" fill="url(#paint0_linear_101_971)" stroke="#DFF49F" stroke-width="2.40401"/>
<circle cx="5" cy="5" r="4.5" transform="matrix(1.00026 0 0 -1.00026 59.2173 14.6005)" fill="#DFF49F" stroke="#DFF49F"/>
<circle cx="5" cy="5" r="4.5" transform="matrix(1.00026 0 0 -1.00026 193.252 55.6111)" fill="#DFF49F" stroke="#DFF49F"/>
<circle cx="5" cy="5" r="4.5" transform="matrix(1.00026 0 0 -1.00026 326.286 125.629)" fill="#DFF49F" stroke="#DFF49F"/>
<circle cx="5" cy="5" r="4.5" transform="matrix(1.00026 0 0 -1.00026 584.352 163.639)" fill="#DFF49F" stroke="#DFF49F"/>
<circle cx="5" cy="5" r="4.5" transform="matrix(1.00026 0 0 -1.00026 461.321 161.638)" fill="#DFF49F" stroke="#DFF49F"/>
<circle cx="5" cy="5" r="4.5" transform="matrix(1.00026 0 0 -1.00026 727.389 172.641)" fill="#DFF49F" stroke="#DFF49F"/>
<circle cx="5" cy="5" r="4.5" transform="matrix(1.00026 0 0 -1.00026 862.423 202.649)" fill="#DFF49F" stroke="#DFF49F"/>
<circle cx="5" cy="5" r="4.5" transform="matrix(1.00026 0 0 -1.00026 993.457 260.664)" fill="#DFF49F" stroke="#DFF49F"/>
<circle cx="5" cy="5" r="4.5" transform="matrix(1.00026 0 0 -1.00026 1128.49 305.675)" fill="#DFF49F" stroke="#DFF49F"/>
<circle cx="5" cy="5" r="4.5" transform="matrix(1.00026 0 0 -1.00026 1261.53 337.683)" fill="#DFF49F" stroke="#DFF49F"/>
<circle cx="5" cy="5" r="4.5" transform="matrix(1.00026 0 0 -1.00026 1394.56 351.687)" fill="#DFF49F" stroke="#DFF49F"/>
<defs>
<linearGradient id="paint0_linear_101_971" x1="774.585" y1="1.28451" x2="753.591" y2="1210.9" gradientUnits="userSpaceOnUse">
<stop stop-color="#87AF73"/>
<stop offset="0.322115" stop-color="#87AF73" stop-opacity="0.7"/>
<stop offset="0.647397" stop-color="#87AF73" stop-opacity="0.7"/>
<stop offset="1" stop-color="#87AF73" stop-opacity="0.7"/>
</linearGradient>
</defs>
</svg>
