<svg width="78" height="25" viewBox="0 0 78 25" fill="none" xmlns="http://www.w3.org/2000/svg">
<g clip-path="url(#clip0_0_17)">
<path d="M47.8838 21.7236H46.6593C46.4387 21.6725 46.2143 21.6389 45.9883 21.623C45.834 21.5797 45.6772 21.5461 45.5187 21.5223L45.0993 21.4049C44.2801 21.1766 43.4916 20.8499 42.7509 20.432C42.295 20.1784 41.8577 19.8925 41.4425 19.5765C41.0567 19.2746 40.7213 18.9056 40.3187 18.6204C40.2475 18.5576 40.1802 18.4903 40.1174 18.4191C39.8154 18.0501 39.48 17.7146 39.1948 17.3288L38.5742 16.574C38.4903 16.4733 38.4903 16.423 38.5574 16.3056L38.7754 15.9869C39.0973 15.5547 39.3887 15.1007 39.6477 14.6282C40.1677 13.6888 40.6709 12.7662 41.1574 11.8101L41.258 11.6423C41.2785 11.628 41.3036 11.6217 41.3284 11.6248C41.3532 11.6279 41.3759 11.6402 41.3922 11.6591L41.4929 11.8269C41.8937 12.6366 42.3712 13.4062 42.9187 14.1249C43.2539 14.6084 43.6422 15.0528 44.0761 15.4501C44.6812 16.0252 45.3937 16.4755 46.1729 16.7752L46.9277 16.9765C47.3252 17.0545 47.7309 17.0827 48.1354 17.0604H48.4374C48.6123 17.077 48.7889 17.0599 48.9574 17.0101C49.1587 16.943 49.3935 16.9765 49.578 16.8591C50.2266 16.6858 50.8359 16.3897 51.3729 15.9869C51.7094 15.7285 52.0236 15.4423 52.3122 15.1314C52.4341 15 52.5463 14.8598 52.6477 14.712C53.1006 14.0411 53.4864 13.3533 53.6542 12.5481C53.7884 12.263 53.738 11.9443 53.8554 11.6423C53.8639 11.5643 53.8639 11.4856 53.8554 11.4075V10.8204C53.8554 10.4849 53.889 10.1494 53.7716 9.84751C53.6542 9.54557 53.5367 8.82428 53.3354 8.33783C53.1451 7.88819 52.897 7.46527 52.5974 7.07976C52.4129 6.8617 52.2283 6.62686 52.0271 6.4088C51.4756 5.87515 50.8338 5.44352 50.1316 5.13396C49.9389 5.03928 49.7364 4.96615 49.5277 4.91589L49.0077 4.79847C48.689 4.74815 48.3535 4.73137 48.0348 4.69783L47.7329 4.73138L47.3974 4.76492C46.9577 4.78764 46.5257 4.88994 46.1225 5.06686C45.6324 5.24868 45.1696 5.49702 44.7471 5.80492C44.5082 5.98249 44.2838 6.17881 44.0761 6.39202C43.3716 7.07976 43.3213 7.16363 42.6838 8.03589C42.3987 8.43847 42.1471 8.85782 41.8954 9.27718C41.2748 10.2836 40.7045 11.3069 40.1342 12.3301C39.5638 13.3533 39.0271 14.3765 38.4567 15.383C38.0367 16.143 37.5542 16.8668 37.0142 17.5469C36.7122 17.9159 36.3767 18.2514 36.0413 18.5869L35.8064 18.8385C35.3825 19.2486 34.9221 19.6191 34.4309 19.9456C34.0237 20.221 33.5977 20.4677 33.1561 20.6836C32.4845 21.0194 31.7749 21.2728 31.0425 21.4385C30.8077 21.5727 30.5225 21.5056 30.2877 21.623H30.0529C29.9345 21.6175 29.8159 21.6288 29.7006 21.6565C29.5331 21.7116 29.3566 21.7344 29.1806 21.7236H27.9393C27.7798 21.7344 27.6198 21.7116 27.4696 21.6565L27.3187 21.623C27 21.6733 26.7148 21.5391 26.3961 21.5056C26.0606 21.4455 25.7299 21.3614 25.4064 21.254C24.3831 20.9169 23.4077 20.4489 22.5045 19.8617C22.0974 19.6206 21.7153 19.3396 21.3638 19.023C21.2954 18.9514 21.2226 18.8842 21.1458 18.8217C20.9218 18.6564 20.7239 18.4585 20.5587 18.2346C20.3406 17.9662 20.089 17.7314 19.8877 17.4462C19.3504 16.721 18.9158 15.9251 18.5961 15.0811C18.4292 14.6614 18.2946 14.2296 18.1935 13.7894C18.1264 13.5378 18.1096 13.2694 18.0258 13.0178C17.9972 12.943 17.9858 12.8628 17.9922 12.783C17.9755 12.6991 17.9922 12.6152 17.9754 12.5314C17.8971 12.3169 17.8684 12.0875 17.8916 11.8604C17.8748 11.6759 17.8748 11.5081 17.8413 11.3236C17.8189 11.0951 17.8133 10.8652 17.8245 10.6359C17.8803 10.2471 17.9027 9.85429 17.8916 9.4617C17.8796 9.31308 17.9026 9.16372 17.9587 9.02557C17.9754 8.97524 17.9755 8.92492 17.9922 8.89137C18.0958 8.01396 18.3393 7.15882 18.7135 6.35847C18.9771 5.77834 19.2915 5.22263 19.6529 4.69783C19.9024 4.3166 20.177 3.95236 20.4748 3.6075C20.8241 3.19619 21.2179 2.82489 21.649 2.50041L22.1858 2.06428C22.9562 1.50449 23.7964 1.04773 24.6851 0.705571C25.2167 0.513723 25.7602 0.356826 26.3122 0.235891C26.3948 0.216473 26.4791 0.20524 26.5638 0.202345C26.6431 0.199355 26.7218 0.188109 26.7987 0.168795C26.9191 0.11288 27.0522 0.0897363 27.1845 0.101699C27.4613 0.123627 27.7398 0.0952107 28.0064 0.0178283C28.4652 -0.0237581 28.9274 -0.00685043 29.3819 0.0681488C29.5433 0.088257 29.7057 0.0994588 29.8684 0.101699C30.0281 0.082738 30.19 0.105867 30.338 0.168795L30.489 0.202345C30.7406 0.168797 30.9587 0.286214 31.2103 0.336537C31.4608 0.385826 31.7075 0.453099 31.9484 0.537829C32.1832 0.6217 32.418 0.688797 32.6361 0.789442C32.8771 0.887814 33.1123 0.999823 33.3406 1.12493L33.9948 1.49396C34.3238 1.66945 34.6379 1.87141 34.9342 2.09783C35.3167 2.3821 35.6808 2.69024 36.0245 3.02041C36.1754 3.18815 36.3432 3.33912 36.5109 3.50686C36.6787 3.6746 36.7625 3.79202 36.8967 3.94299C37.0309 4.09396 37.3161 4.51331 37.5677 4.7817C37.6499 4.88111 37.7229 4.98779 37.7858 5.10041C37.8002 5.11929 37.8094 5.14166 37.8123 5.16523C37.8152 5.18881 37.8119 5.21275 37.8025 5.2346C37.7522 5.35202 37.6684 5.46944 37.618 5.58686C37.3329 6.07331 37.0645 6.55976 36.8296 7.06299L36.209 8.22041L35.2193 10.032C35.2152 10.0435 35.208 10.0536 35.1986 10.0613C35.1891 10.0691 35.1777 10.074 35.1657 10.0758C35.1536 10.0775 35.1413 10.0759 35.13 10.0711C35.1188 10.0664 35.1091 10.0587 35.1019 10.0488L35.0516 9.96492C34.9509 9.81395 34.8671 9.64621 34.7832 9.49525C34.4903 8.98321 34.1653 8.49018 33.8103 8.01911C33.6258 7.78428 33.4077 7.54944 33.24 7.29783C33.1818 7.21735 33.1142 7.14414 33.0387 7.07976C32.7535 6.77783 32.4684 6.47589 32.1664 6.2075C31.4941 5.5545 30.6606 5.09146 29.7509 4.86557C29.5345 4.79257 29.3083 4.75297 29.08 4.74815C28.9847 4.75997 28.888 4.75429 28.7948 4.73138C28.5683 4.68132 28.3336 4.68132 28.1071 4.73138H27.9058C27.5796 4.72981 27.2558 4.78662 26.9496 4.89912C26.5282 5.01746 26.1227 5.18643 25.7419 5.40234C25.3344 5.64923 24.9524 5.93578 24.6013 6.25782C23.7905 7.02836 23.1999 8.00113 22.8903 9.07589C22.8735 9.31073 22.7393 9.52879 22.7561 9.7804C22.7729 10.032 22.7561 9.86428 22.7393 9.88105C22.6219 10.1662 22.6722 10.4682 22.6554 10.7533V11.4411C22.6517 11.6057 22.6744 11.77 22.7225 11.9275C22.7896 12.1288 22.7561 12.3469 22.8567 12.5481C23.0655 13.3898 23.4484 14.1784 23.9806 14.863C24.1484 15.0643 24.3496 15.232 24.5342 15.4333C24.9786 15.8868 25.5015 16.2562 26.0774 16.5236C26.489 16.7306 26.9305 16.8721 27.3858 16.943L27.6206 16.9933L27.9058 17.0269H28.8451L29.1303 16.9933C29.2066 16.9685 29.2853 16.9517 29.3651 16.943C29.903 16.8776 30.4253 16.7187 30.9084 16.4733C31.4488 16.2106 31.9375 15.8526 32.3509 15.4165L32.569 15.1985C32.9023 14.8683 33.2055 14.5091 33.4748 14.1249C34.0354 13.3545 34.5346 12.5413 34.9677 11.6927C35.5883 10.4682 36.2593 9.26041 36.9638 8.08621C37.3496 7.41525 37.7354 6.7275 38.1548 6.05654C38.5742 5.38557 38.7419 5.11718 39.0774 4.66428C39.4129 4.21137 39.5638 4.06041 39.8154 3.75847C40.0091 3.51232 40.2163 3.27712 40.4361 3.05396L40.8722 2.68492C41.1071 2.50041 41.3419 2.33267 41.56 2.13138C41.9997 1.78519 42.4715 1.48187 42.969 1.22557C43.5585 0.915448 44.1763 0.662674 44.8142 0.470728L45.049 0.403633C45.2838 0.319762 45.5187 0.286212 45.7535 0.219115C45.9884 0.152019 46.1393 0.185567 46.3238 0.135245C46.5173 0.0989657 46.7146 0.0876937 46.9109 0.101699L47.1625 0.0681488C47.6946 -0.0325956 48.2408 -0.0325956 48.7729 0.0681488L49.209 0.101699C49.3852 0.0814355 49.5637 0.104466 49.729 0.168795C49.7745 0.195549 49.8274 0.207288 49.88 0.202345C49.9585 0.190489 50.0387 0.196214 50.1148 0.219115C50.2993 0.319761 50.5006 0.286215 50.6851 0.353312C50.8696 0.420409 51.1548 0.487503 51.3896 0.554599C52.3213 0.865308 53.2071 1.29973 54.0232 1.84621C54.5365 2.1691 55.0095 2.55201 55.4322 2.98686L56.1535 3.70815C56.4489 4.0228 56.713 4.3655 56.9419 4.73138C57.5107 5.56708 57.9517 6.48297 58.2503 7.44879C58.319 7.64976 58.364 7.85805 58.3845 8.06944C58.417 8.29673 58.4675 8.52109 58.5354 8.74041C58.5971 8.91241 58.6256 9.09456 58.6193 9.27718C58.6168 9.46939 58.6394 9.66112 58.6864 9.84751C58.7186 9.97363 58.7355 10.1032 58.7367 10.2333V11.5752C58.7476 11.7844 58.725 11.9939 58.6696 12.1959C58.6421 12.2592 58.6305 12.3283 58.6361 12.3972C58.6332 12.5598 58.6221 12.7222 58.6025 12.8836C58.5019 13.2862 58.418 13.7056 58.2838 14.1081C57.9918 15.0273 57.5861 15.9064 57.0761 16.7249C56.89 17.0151 56.6884 17.2951 56.4722 17.5636C56.191 17.943 55.8766 18.2966 55.5329 18.6204C55.4037 18.7662 55.2572 18.8958 55.0967 19.0062L54.929 19.1236C54.511 19.5161 54.0495 19.8594 53.5535 20.1469C53.0713 20.4536 52.56 20.7121 52.0271 20.9185C51.7309 21.0156 51.4398 21.1276 51.1548 21.254C50.8864 21.3546 50.5845 21.3714 50.3161 21.4888C50.0477 21.6062 49.7793 21.6398 49.4942 21.623H49.36C49.1396 21.701 48.9048 21.7297 48.6722 21.7069L47.8838 21.7236Z" fill="#142E2A"/>
<path d="M60.232 10.7856V0.469428C60.2487 0.251363 60.2991 0.201045 60.5004 0.201045H67.1765C67.4717 0.234519 67.7685 0.251318 68.0655 0.251365H68.2165C68.4048 0.294466 68.5951 0.328058 68.7868 0.352012C68.9633 0.353998 69.1386 0.382265 69.3068 0.435883C69.4838 0.479026 69.663 0.512624 69.8436 0.536529L70.3133 0.67072C71.6115 1.01131 72.8347 1.5916 73.9197 2.38169C74.4837 2.80055 74.9961 3.28478 75.4462 3.82427C75.7189 4.10509 75.9608 4.41439 76.1675 4.74685C76.3855 5.0991 76.6204 5.43459 76.8049 5.80362C77.151 6.45069 77.4158 7.13805 77.5933 7.85007C77.6939 8.03459 77.6771 8.26943 77.7778 8.45394C77.8784 8.63846 77.9455 9.12491 77.8952 9.47717C77.8989 9.58962 77.9101 9.7017 77.9288 9.81265C77.985 10.0202 78.0077 10.2354 77.9958 10.4501V11.3223C78.0077 11.5204 77.985 11.7191 77.9288 11.9094C77.912 12.0101 77.912 12.1107 77.8952 12.1946C77.9156 12.3598 77.8924 12.5275 77.8281 12.681C77.8089 12.7293 77.7976 12.7802 77.7946 12.832C77.7971 12.9911 77.7744 13.1496 77.7275 13.3017C77.6604 13.4527 77.6771 13.6204 77.61 13.7881C77.5429 13.9559 77.5429 14.0565 77.4926 14.2075C77.4423 14.3585 77.4088 14.5094 77.3417 14.6604C77.0497 15.4764 76.6491 16.2494 76.1507 16.9585C75.7616 17.5257 75.3054 18.0439 74.792 18.5017C74.7752 18.5352 74.7417 18.552 74.7249 18.5688C73.3718 19.8164 71.7096 20.6794 69.9107 21.0681C69.6758 21.1856 69.3907 21.1352 69.1558 21.2527C68.921 21.3701 68.401 21.3868 67.9984 21.3701H60.3829C60.3501 21.3703 60.3183 21.3585 60.2935 21.3369C60.2688 21.3152 60.2529 21.2853 60.2488 21.2527C60.2488 21.152 60.232 21.0346 60.232 20.9172V10.7856ZM65.0629 10.8694V16.3714C65.0602 16.5002 65.0658 16.6291 65.0797 16.7572C65.0774 16.7858 65.0808 16.8146 65.0897 16.842C65.0986 16.8693 65.1128 16.8946 65.1315 16.9165C65.1502 16.9383 65.1731 16.9562 65.1987 16.9692C65.2244 16.9821 65.2523 16.9899 65.281 16.992H65.5326C66.1533 16.992 66.7739 17.0088 67.3946 16.992C67.7054 16.986 68.0147 16.9466 68.3171 16.8746L69.072 16.6901C69.408 16.6081 69.7342 16.49 70.0449 16.3378C70.3488 16.1811 70.6403 16.0017 70.9171 15.801C71.0693 15.7044 71.2149 15.5979 71.3533 15.4823C71.7757 15.0718 72.1372 14.603 72.4268 14.0901C72.5107 13.9223 72.5778 13.7546 72.6449 13.5868L73.0139 12.6307C73.0328 12.5883 73.0441 12.5429 73.0475 12.4965C73.081 12.2449 73.1313 12.0101 73.1481 11.7585C73.2153 11.1565 73.2153 10.5488 73.1481 9.94685C73.081 9.47717 73.081 8.99072 72.8294 8.57137C72.8106 8.5289 72.7992 8.4835 72.7958 8.43717C72.686 8.12498 72.5514 7.82208 72.3933 7.53136C72.2162 7.25612 72.014 6.99782 71.7894 6.75975C71.4883 6.39172 71.125 6.07945 70.7158 5.83717C70.3971 5.6191 70.0281 5.46814 69.6926 5.28362C69.3571 5.09911 68.9546 5.01524 68.5855 4.86427C68.2165 4.7133 67.7133 4.73008 67.2771 4.7133H65.5997L65.2642 4.74685C65.2174 4.75908 65.175 4.78458 65.1423 4.82028C65.1096 4.85599 65.0878 4.90039 65.0797 4.94814C65.0658 5.09868 65.0602 5.24988 65.0629 5.40104V10.8694Z" fill="#142E2A"/>
<path d="M16.1191 7.53272C16.1023 8.23724 16.0688 8.95853 16.052 9.67982C16.0352 10.4011 16.052 11.1895 16.0352 11.9443V14.2089C16.0571 14.4856 16.0287 14.7641 15.9514 15.0308C15.9514 15.0811 15.9346 15.1314 15.9346 15.1818C15.9401 15.3279 15.9289 15.4743 15.901 15.6179C15.8264 16.0336 15.7198 16.443 15.5823 16.8424C15.471 17.1459 15.3422 17.4428 15.1965 17.7314C14.9536 18.2189 14.6367 18.6659 14.2572 19.0566L13.5023 19.8114C12.8476 20.4584 12.0568 20.9513 11.1875 21.254C10.9694 21.3379 9.84555 21.6398 9.62748 21.6734H9.44297C9.35771 21.668 9.27223 21.6794 9.19135 21.7069C8.9567 21.7713 8.71257 21.794 8.47006 21.774H7.34619C7.13137 21.7941 6.9147 21.7713 6.70877 21.7069L6.57458 21.6734C5.38866 21.5118 4.24758 21.1124 3.21974 20.4992C3.00143 20.3876 2.80755 20.2336 2.64942 20.0463L2.43135 19.8618C2.11262 19.5934 1.82559 19.2895 1.57587 18.9559C1.34425 18.6658 1.13668 18.3573 0.955225 18.0334C0.561288 17.408 0.272311 16.7224 0.0997418 16.0037C0.0326451 15.7185 -0.00090357 15.4334 -0.0512261 15.1482C-0.0600596 15.1329 -0.0647098 15.1156 -0.0647098 15.0979C-0.0647098 15.0802 -0.0600596 15.0629 -0.0512261 15.0476C-0.0176778 15.014 -0.000903826 14.9637 0.0494187 14.9469H4.79652C4.82928 14.9539 4.85879 14.9716 4.88039 14.9972L4.93071 15.1314C5.08726 15.5667 5.34614 15.9579 5.68555 16.2721C5.84725 16.4359 6.02108 16.5873 6.20555 16.725C6.49613 16.9038 6.80552 17.05 7.12813 17.1611C7.18647 17.1879 7.2488 17.2049 7.31264 17.2114H7.51393C7.90757 17.3263 8.325 17.3321 8.72168 17.2282L9.27522 17.0772C9.57811 16.9915 9.85111 16.823 10.0636 16.5908L10.1643 16.4901C10.4486 16.2424 10.6626 15.9242 10.7849 15.5676C10.9029 15.3332 10.966 15.0751 10.9694 14.8127C10.9686 14.8036 10.9697 14.7945 10.9726 14.7858C10.9755 14.7772 10.9801 14.7692 10.9862 14.7624C11.1036 14.343 11.0701 13.9069 11.0701 13.4876V0.705631C11.0701 0.152083 11.0365 0.18563 11.5565 0.18563H15.9346C16.0688 0.18563 16.1191 0.252725 16.1359 0.403692V6.59337C16.1359 6.8953 16.1191 7.21401 16.1191 7.53272Z" fill="#142E2A"/>
</g>
<defs>
<clipPath id="clip0_0_17">
<rect width="77.102" height="24.3742" fill="white" transform="scale(1.01165)"/>
</clipPath>
</defs>
</svg>
