<svg width="35" height="35" viewBox="0 0 35 35" fill="none" xmlns="http://www.w3.org/2000/svg">
<rect width="34.9999" height="34.9999" rx="17.3913" fill="#F7F9F2"/>
<g clip-path="url(#clip0_0_67)">
<path d="M21.5111 14.6699C22.1005 14.6699 22.5783 14.192 22.5783 13.6026C22.5783 13.0132 22.1005 12.5353 21.5111 12.5353C20.9216 12.5353 20.4438 13.0132 20.4438 13.6026C20.4438 14.192 20.9216 14.6699 21.5111 14.6699Z" fill="#142E2A"/>
<path d="M17.6702 14.029C16.9948 14.029 16.3345 14.2293 15.7728 14.6046C15.2112 14.9798 14.7735 15.5132 14.515 16.1373C14.2565 16.7613 14.1888 17.448 14.3206 18.1105C14.4524 18.773 14.7777 19.3815 15.2553 19.8591C15.7329 20.3368 16.3415 20.662 17.0039 20.7938C17.6664 20.9256 18.3531 20.858 18.9772 20.5995C19.6012 20.341 20.1346 19.9032 20.5099 19.3416C20.8852 18.78 21.0855 18.1197 21.0855 17.4442C21.0855 16.5384 20.7256 15.6698 20.0852 15.0293C19.4447 14.3888 18.576 14.029 17.6702 14.029ZM17.6702 19.1518C17.3325 19.1518 17.0023 19.0517 16.7215 18.864C16.4407 18.6764 16.2218 18.4097 16.0926 18.0977C15.9634 17.7857 15.9295 17.4423 15.9954 17.1111C16.0613 16.7798 16.2239 16.4756 16.4628 16.2367C16.7016 15.9979 17.0058 15.8353 17.3371 15.7694C17.6683 15.7035 18.0117 15.7373 18.3237 15.8666C18.6357 15.9958 18.9024 16.2147 19.0901 16.4955C19.2777 16.7763 19.3778 17.1065 19.3778 17.4442C19.3778 17.8971 19.1979 18.3314 18.8777 18.6517C18.5575 18.9719 18.1231 19.1518 17.6702 19.1518Z" fill="#142E2A"/>
<path d="M21.9387 10.6172H13.4007C11.9861 10.6172 10.8393 11.764 10.8393 13.1786V21.7167C10.8393 23.1313 11.9861 24.2781 13.4007 24.2781H21.9387C23.3534 24.2781 24.5002 23.1313 24.5002 21.7167V13.1786C24.5002 11.764 23.3534 10.6172 21.9387 10.6172Z" stroke="#142E2A" stroke-width="2" stroke-miterlimit="10"/>
</g>
<defs>
<clipPath id="clip0_0_67">
<rect width="16.6957" height="16.6957" fill="white" transform="translate(9.09995 9.09995) scale(1.00625)"/>
</clipPath>
</defs>
</svg>
