<svg width="35" height="35" viewBox="0 0 35 35" fill="none" xmlns="http://www.w3.org/2000/svg">
<rect width="34.9999" height="34.9999" rx="17.3913" fill="#F7F9F2"/>
<path d="M17.8416 10.7415H20.054C20.054 10.7415 19.9278 13.7073 23.1202 13.9247V16.2151C23.1202 16.2151 21.4126 16.3238 20.054 15.2368L20.0763 19.9728C20.0762 20.8207 19.8357 21.6496 19.3851 22.3546C18.9344 23.0595 18.294 23.6088 17.5447 23.933C16.7954 24.2571 15.971 24.3415 15.1758 24.1755C14.3807 24.0095 13.6505 23.6006 13.0776 23.0004C12.5048 22.4003 12.115 21.636 11.9577 20.8041C11.8005 19.9723 11.8827 19.1103 12.194 18.3273C12.5053 17.5444 13.0317 16.8756 13.7067 16.4056C14.3816 15.9356 15.1747 15.6856 15.9855 15.6871H16.5572V18.0396C16.1842 17.9187 15.7842 17.9239 15.4142 18.0545C15.0442 18.1851 14.7231 18.4344 14.4964 18.767C14.2697 19.0995 14.1492 19.4983 14.1518 19.9066C14.1544 20.315 14.2801 20.7121 14.5111 21.0414C14.742 21.3707 15.0664 21.6154 15.438 21.7408C15.8096 21.8662 16.2096 21.8658 16.581 21.7397C16.9524 21.6135 17.2763 21.3681 17.5067 21.0384C17.737 20.7086 17.862 20.3113 17.8638 19.9029L17.8416 10.7415Z" fill="#142E2A"/>
</svg>
