<svg width="84" height="16" viewBox="0 0 84 16" fill="none" xmlns="http://www.w3.org/2000/svg">
<g clip-path="url(#clip0_54_6378)">
<g clip-path="url(#clip1_54_6378)">
<path d="M15.75 0H0V15.75H15.75V0Z" fill="#00B67A"/>
<path d="M32.8125 0H17.0625V15.75H32.8125V0Z" fill="#00B67A"/>
<path d="M49.875 0H34.125V15.75H49.875V0Z" fill="#00B67A"/>
<path d="M66.9375 0H51.1875V15.75H66.9375V0Z" fill="#00B67A"/>
<path d="M84 0H68.25V15.75H84V0Z" fill="#00B67A"/>
<path d="M7.8748 10.6149L10.2701 10.0078L11.2709 13.0922L7.8748 10.6149ZM13.3873 6.62815H9.1709L7.8748 2.65784L6.57871 6.62815H2.3623L5.7748 9.08909L4.47871 13.0594L7.89121 10.5985L9.99121 9.08909L13.3873 6.62815Z" fill="white"/>
<path d="M24.9373 10.6149L27.3326 10.0078L28.3334 13.0922L24.9373 10.6149ZM30.4498 6.62815H26.2334L24.9373 2.65784L23.6412 6.62815H19.4248L22.8373 9.08909L21.5412 13.0594L24.9537 10.5985L27.0537 9.08909L30.4498 6.62815Z" fill="white"/>
<path d="M41.9998 10.6149L44.3951 10.0078L45.3959 13.0922L41.9998 10.6149ZM47.5123 6.62815H43.2959L41.9998 2.65784L40.7037 6.62815H36.4873L39.8998 9.08909L38.6037 13.0594L42.0162 10.5985L44.1162 9.08909L47.5123 6.62815Z" fill="white"/>
<path d="M59.0623 10.6149L61.4576 10.0078L62.4584 13.0922L59.0623 10.6149ZM64.5748 6.62815H60.3584L59.0623 2.65784L57.7662 6.62815H53.5498L56.9623 9.08909L55.6662 13.0594L59.0787 10.5985L61.1787 9.08909L64.5748 6.62815Z" fill="white"/>
<path d="M76.1248 10.6149L78.5201 10.0078L79.5209 13.0922L76.1248 10.6149ZM81.6373 6.62815H77.4209L76.1248 2.65784L74.8287 6.62815H70.6123L74.0248 9.08909L72.7287 13.0594L76.1412 10.5985L78.2412 9.08909L81.6373 6.62815Z" fill="white"/>
</g>
</g>
<defs>
<clipPath id="clip0_54_6378">
<rect width="84" height="15.75" fill="white"/>
</clipPath>
<clipPath id="clip1_54_6378">
<rect width="84" height="15.75" fill="white"/>
</clipPath>
</defs>
</svg>
