<svg width="380" height="96" viewBox="0 0 380 96" fill="none" xmlns="http://www.w3.org/2000/svg">
<path d="M14.0026 34.309L4.47499 0.625546H10.2974L17.3709 26.9468L25.0219 0.625546H30.1225L37.7254 26.9468L44.7989 0.625546H50.6213L41.0937 34.309H34.6939L27.5722 9.72008L20.4025 34.309H14.0026ZM65.1289 9.62384C67.8877 9.62384 70.1172 10.506 71.8175 12.2704C73.5177 14.0348 74.3678 16.4568 74.3678 19.5364V34.309H69.1709V20.0657C69.1709 18.2693 68.6897 16.8898 67.7273 15.9275C66.7649 14.9651 65.4497 14.4839 63.7815 14.4839C61.953 14.4839 60.4774 15.0613 59.3546 16.2162C58.2318 17.339 57.6704 19.0712 57.6704 21.413V34.309H52.4735V0.625546H57.6704V13.329C59.2423 10.8589 61.7285 9.62384 65.1289 9.62384ZM97.8157 10.2494H103.013V34.309H97.8157V30.8444C95.8589 33.5712 93.0519 34.9345 89.3949 34.9345C86.0907 34.9345 83.2677 33.7155 80.9259 31.2775C78.5841 28.8074 77.4132 25.8079 77.4132 22.2792C77.4132 18.7184 78.5841 15.7189 80.9259 13.2809C83.2677 10.8429 86.0907 9.62384 89.3949 9.62384C93.0519 9.62384 95.8589 10.9712 97.8157 13.6659V10.2494ZM84.7754 27.8129C86.219 29.2565 88.0315 29.9783 90.2129 29.9783C92.3943 29.9783 94.2068 29.2565 95.6504 27.8129C97.0939 26.3372 97.8157 24.4927 97.8157 22.2792C97.8157 20.0657 97.0939 18.2372 95.6504 16.7936C94.2068 15.3179 92.3943 14.5801 90.2129 14.5801C88.0315 14.5801 86.219 15.3179 84.7754 16.7936C83.3319 18.2372 82.6101 20.0657 82.6101 22.2792C82.6101 24.4927 83.3319 26.3372 84.7754 27.8129ZM121.292 15.2538H115.325V26.8024C115.325 27.7969 115.55 28.5187 115.999 28.9678C116.448 29.3848 117.106 29.6254 117.972 29.6896C118.87 29.7216 119.977 29.7056 121.292 29.6414V34.309C117.314 34.7902 114.459 34.4534 112.727 33.2985C110.995 32.1116 110.129 29.9462 110.129 26.8024V15.2538H105.702V10.2494H110.129V5.05251L115.325 3.5127V10.2494H121.292V15.2538ZM149.29 15.2538H143.323V26.8024C143.323 27.7969 143.548 28.5187 143.997 28.9678C144.446 29.3848 145.103 29.6254 145.97 29.6896C146.868 29.7216 147.974 29.7056 149.29 29.6414V34.309C145.312 34.7902 142.457 34.4534 140.725 33.2985C138.992 32.1116 138.126 29.9462 138.126 26.8024V15.2538H133.699V10.2494H138.126V5.05251L143.323 3.5127V10.2494H149.29V15.2538ZM163.17 34.9345C159.641 34.9345 156.641 33.7155 154.171 31.2775C151.701 28.8394 150.466 25.84 150.466 22.2792C150.466 18.7184 151.701 15.7189 154.171 13.2809C156.641 10.8429 159.641 9.62384 163.17 9.62384C166.73 9.62384 169.73 10.8429 172.168 13.2809C174.638 15.7189 175.873 18.7184 175.873 22.2792C175.873 25.84 174.638 28.8394 172.168 31.2775C169.73 33.7155 166.73 34.9345 163.17 34.9345ZM157.828 27.7167C159.272 29.1602 161.052 29.882 163.17 29.882C165.287 29.882 167.067 29.1602 168.511 27.7167C169.954 26.2731 170.676 24.4606 170.676 22.2792C170.676 20.0978 169.954 18.2853 168.511 16.8417C167.067 15.3981 165.287 14.6764 163.17 14.6764C161.052 14.6764 159.272 15.3981 157.828 16.8417C156.385 18.2853 155.663 20.0978 155.663 22.2792C155.663 24.4606 156.385 26.2731 157.828 27.7167ZM194.286 24.4927C194.671 26.3212 195.553 27.7327 196.933 28.7272C198.312 29.6896 199.996 30.1707 201.985 30.1707C204.744 30.1707 206.813 29.1763 208.193 27.1874L212.475 29.6896C210.101 33.1862 206.589 34.9345 201.937 34.9345C198.023 34.9345 194.864 33.7476 192.458 31.3737C190.052 28.9678 188.849 25.9363 188.849 22.2792C188.849 18.6863 190.036 15.6869 192.409 13.2809C194.783 10.8429 197.831 9.62384 201.552 9.62384C205.081 9.62384 207.968 10.8589 210.214 13.329C212.491 15.7991 213.63 18.7986 213.63 22.3273C213.63 22.8727 213.566 23.5945 213.438 24.4927H194.286ZM194.238 20.2582H208.385C208.032 18.3013 207.214 16.8257 205.931 15.8312C204.68 14.8368 203.204 14.3395 201.504 14.3395C199.579 14.3395 197.975 14.8688 196.692 15.9275C195.409 16.9861 194.591 18.4297 194.238 20.2582ZM237.287 34.309H231.272L225.306 26.0806L219.291 34.309H213.228L222.274 21.9424L213.709 10.2494H219.724L225.258 17.8522L230.791 10.2494H236.854L228.289 21.9905L237.287 34.309ZM253.192 9.62384C256.496 9.62384 259.319 10.8589 261.661 13.329C264.003 15.7671 265.174 18.7505 265.174 22.2792C265.174 25.84 264.003 28.8394 261.661 31.2775C259.319 33.7155 256.496 34.9345 253.192 34.9345C249.535 34.9345 246.728 33.5872 244.771 30.8925V43.9328H239.575V10.2494H244.771V13.714C246.728 10.9872 249.535 9.62384 253.192 9.62384ZM246.937 27.8129C248.38 29.2565 250.193 29.9783 252.374 29.9783C254.556 29.9783 256.368 29.2565 257.812 27.8129C259.255 26.3372 259.977 24.4927 259.977 22.2792C259.977 20.0657 259.255 18.2372 257.812 16.7936C256.368 15.3179 254.556 14.5801 252.374 14.5801C250.193 14.5801 248.38 15.3179 246.937 16.7936C245.493 18.2372 244.771 20.0657 244.771 22.2792C244.771 24.4927 245.493 26.3372 246.937 27.8129ZM272.771 24.4927C273.156 26.3212 274.038 27.7327 275.418 28.7272C276.797 29.6896 278.481 30.1707 280.47 30.1707C283.229 30.1707 285.298 29.1763 286.678 27.1874L290.96 29.6896C288.586 33.1862 285.074 34.9345 280.422 34.9345C276.508 34.9345 273.349 33.7476 270.943 31.3737C268.537 28.9678 267.334 25.9363 267.334 22.2792C267.334 18.6863 268.521 15.6869 270.895 13.2809C273.268 10.8429 276.316 9.62384 280.037 9.62384C283.566 9.62384 286.453 10.8589 288.699 13.329C290.976 15.7991 292.115 18.7986 292.115 22.3273C292.115 22.8727 292.051 23.5945 291.923 24.4927H272.771ZM272.723 20.2582H286.87C286.517 18.3013 285.699 16.8257 284.416 15.8312C283.165 14.8368 281.689 14.3395 279.989 14.3395C278.064 14.3395 276.46 14.8688 275.177 15.9275C273.894 16.9861 273.076 18.4297 272.723 20.2582ZM306.7 34.9345C303.075 34.9345 300.044 33.7155 297.606 31.2775C295.2 28.8394 293.997 25.84 293.997 22.2792C293.997 18.6863 295.2 15.6869 297.606 13.2809C300.044 10.8429 303.075 9.62384 306.7 9.62384C309.042 9.62384 311.175 10.1852 313.1 11.308C315.025 12.4308 316.468 13.9385 317.431 15.8312L312.956 18.4297C312.41 17.2748 311.576 16.3766 310.453 15.735C309.363 15.0613 308.096 14.7245 306.652 14.7245C304.535 14.7245 302.754 15.4463 301.311 16.8898C299.899 18.3334 299.194 20.1299 299.194 22.2792C299.194 24.4285 299.899 26.225 301.311 27.6685C302.754 29.1121 304.535 29.8339 306.652 29.8339C308.063 29.8339 309.331 29.4971 310.453 28.8234C311.608 28.1497 312.474 27.2515 313.052 26.1287L317.527 28.679C316.5 30.6038 315.025 32.1276 313.1 33.2504C311.175 34.3732 309.042 34.9345 306.7 34.9345ZM333.505 15.2538H327.539V26.8024C327.539 27.7969 327.763 28.5187 328.212 28.9678C328.661 29.3848 329.319 29.6254 330.185 29.6896C331.083 29.7216 332.19 29.7056 333.505 29.6414V34.309C329.528 34.7902 326.673 34.4534 324.94 33.2985C323.208 32.1116 322.342 29.9462 322.342 26.8024V15.2538H317.915V10.2494H322.342V5.05251L327.539 3.5127V10.2494H333.505V15.2538ZM352.986 5.67806C352.344 6.31965 351.574 6.64045 350.676 6.64045C349.778 6.64045 348.992 6.31965 348.318 5.67806C347.677 5.00439 347.356 4.21845 347.356 3.32022C347.356 2.422 347.677 1.65209 348.318 1.0105C348.96 0.336831 349.746 -3.82417e-06 350.676 -3.82417e-06C351.606 -3.82417e-06 352.392 0.336831 353.034 1.0105C353.676 1.65209 353.996 2.422 353.996 3.32022C353.996 4.21845 353.66 5.00439 352.986 5.67806ZM348.078 34.309V10.2494H353.275V34.309H348.078ZM370.761 9.62384C373.52 9.62384 375.749 10.506 377.45 12.2704C379.15 14.0348 380 16.4568 380 19.5364V34.309H374.803V20.0657C374.803 18.2693 374.322 16.8898 373.359 15.9275C372.397 14.9651 371.082 14.4839 369.414 14.4839C367.585 14.4839 366.11 15.0613 364.987 16.2162C363.864 17.339 363.303 19.0712 363.303 21.413V34.309H358.106V10.2494H363.303V13.329C364.874 10.8589 367.361 9.62384 370.761 9.62384ZM5.87045 67.1905L5.53362 65.6506L12.7996 62.7154L13.0402 63.2928C13.3289 63.9665 13.4252 64.7364 13.4252 65.5063C13.4252 66.8055 12.9921 68.0085 12.5109 69.2115L8.70948 78.9797C8.51701 79.4127 7.93958 80.9525 7.93958 81.6743C7.93958 82.8773 8.61324 84.1284 10.3937 84.1284C16.2642 84.1284 19.9213 70.0776 20.7874 66.18C20.9799 65.3138 21.2686 64.2071 21.5573 63.389H26.1286C24.7813 66.4205 23.6746 69.7889 22.6159 73.2054L20.1137 81.145C17.7559 88.5554 15.0131 95.7251 5.96669 95.7251C2.9833 95.7251 -9.42897e-05 94.5703 -9.42897e-05 92.3568C-9.42897e-05 90.7689 0.817933 89.8546 2.55022 89.8546C4.28252 89.8546 5.10054 91.2501 5.58173 93.7041C5.67797 94.0891 6.35164 94.041 7.12155 94.041C11.8854 94.041 14.8206 86.9193 15.6386 82.6848H15.5424C13.5695 85.0427 11.7891 87.1118 8.51701 87.1118C5.38926 87.1118 3.84944 84.4653 3.84944 81.9631C3.84944 79.8939 4.57123 78.5466 5.38926 76.6218L7.60274 71.4249C8.32453 69.7889 8.70948 68.6822 8.70948 67.9122C8.70948 67.2867 8.08393 66.9017 7.41026 66.9017C6.88095 66.9017 6.30352 67.0461 5.87045 67.1905ZM47.6379 71.6655C47.6379 78.9797 42.6335 87.1118 34.2608 87.1118C29.497 87.1118 26.273 82.5886 26.273 78.1616C26.273 70.8475 31.2774 62.7154 39.6501 62.7154C44.4139 62.7154 47.6379 67.2386 47.6379 71.6655ZM30.3631 80.5676C30.3631 82.1074 30.6518 85.4276 34.5976 85.4276C40.6606 85.4276 43.5478 74.0234 43.5478 69.2596C43.5478 67.7198 43.2591 64.3995 39.3133 64.3995C33.2503 64.3995 30.3631 75.8038 30.3631 80.5676ZM51.0063 66.9499L50.7657 65.3138L58.4647 62.7154C58.8016 63.5334 58.8978 64.4477 58.8978 65.3619C58.8978 66.613 58.3685 68.3934 57.5986 70.3663L54.8077 77.2474C54.0859 79.0278 53.5085 80.5195 53.5085 81.3375C53.5085 83.2142 54.8558 84.1284 56.6843 84.1284C60.7745 84.1284 63.9022 79.2203 65.2977 76.1887C67.1743 72.1467 68.5698 66.8055 69.2916 63.389H73.9591C73.1411 65.3619 72.4193 67.3348 71.7456 69.3077L68.7141 78.0173C68.1367 79.6052 67.463 81.7706 67.463 82.8292C67.463 83.6472 67.8961 84.1284 68.6179 84.1284C69.5322 84.1284 70.8795 83.166 71.3126 82.7811L71.9381 84.2247C70.5908 85.7645 68.8585 87.1118 66.7412 87.1118C64.239 87.1118 63.3729 85.8126 63.3729 83.8397C63.3729 83.4066 63.421 82.5886 63.4691 82.1074H63.3729C60.9669 84.6096 58.9459 87.1118 55.0483 87.1118C51.9687 87.1118 49.4183 85.3795 49.4183 82.0593C49.4183 81.0969 49.8033 79.6052 50.477 77.9692L53.4122 70.7994C53.8934 69.5964 54.2784 68.5859 54.2784 68.0566C54.2784 67.4792 53.9897 66.6611 53.2679 66.6611C52.4017 66.6611 51.8724 66.7574 51.0063 66.9499ZM75.3384 68.2491L80.824 62.7154C82.7969 63.5334 83.5668 65.6988 83.5668 67.7198C83.5668 68.7303 83.3262 69.6445 83.1819 70.5107H83.2781L85.6841 66.998C87.9938 63.6296 89.1968 62.7154 90.9772 62.7154C92.6132 62.7154 93.4312 63.5815 93.4312 65.1694C93.4312 66.6611 92.5651 68.1047 90.1591 68.1047C89.3411 68.1047 88.7156 67.5754 88.1381 67.5754C87.0795 67.5754 85.251 70.3182 84.3848 71.7137C81.5939 76.1887 80.1503 81.3375 78.9474 86.4381H74.376L78.803 73.9271C79.2842 72.5317 79.8135 71.04 79.8135 69.7889C79.8135 68.6822 79.2842 68.1047 78.4181 68.1047C77.4557 68.1047 76.8301 68.9709 76.1083 69.5002L75.3384 68.2491ZM105.975 65.2176L114.54 62.7154L107.659 85.9569C106.311 90.4802 103.136 95.7251 97.8424 95.7251C96.0139 95.7251 94.5222 95.1477 94.5222 93.0786C94.5222 91.4907 95.7733 90.7689 97.3131 90.7689C99.0935 90.7689 99.8634 93.1267 100.441 93.1267C101.596 93.1267 101.981 91.635 102.221 90.8651L108.477 69.837C108.621 69.3077 108.814 68.5378 108.814 68.0085C108.814 66.8536 108.044 66.613 107.033 66.613C106.552 66.613 105.975 66.6611 105.541 66.8536L105.975 65.2176ZM113.433 52.0329C115.021 52.0329 116.32 53.3802 116.32 54.9201C116.32 56.5561 115.021 57.8072 113.433 57.8072C111.845 57.8072 110.546 56.5561 110.546 54.9201C110.546 53.3802 111.845 52.0329 113.433 52.0329ZM136.546 71.6655C136.546 78.9797 131.541 87.1118 123.169 87.1118C118.405 87.1118 115.181 82.5886 115.181 78.1616C115.181 70.8475 120.185 62.7154 128.558 62.7154C133.322 62.7154 136.546 67.2386 136.546 71.6655ZM119.271 80.5676C119.271 82.1074 119.56 85.4276 123.505 85.4276C129.568 85.4276 132.456 74.0234 132.456 69.2596C132.456 67.7198 132.167 64.3995 128.221 64.3995C122.158 64.3995 119.271 75.8038 119.271 80.5676ZM139.914 66.9499L139.673 65.3138L147.373 62.7154C147.709 63.5334 147.806 64.4477 147.806 65.3619C147.806 66.613 147.276 68.3934 146.506 70.3663L143.715 77.2474C142.994 79.0278 142.416 80.5195 142.416 81.3375C142.416 83.2142 143.764 84.1284 145.592 84.1284C149.682 84.1284 152.81 79.2203 154.205 76.1887C156.082 72.1467 157.478 66.8055 158.199 63.389H162.867C162.049 65.3619 161.327 67.3348 160.653 69.3077L157.622 78.0173C157.044 79.6052 156.371 81.7706 156.371 82.8292C156.371 83.6472 156.804 84.1284 157.526 84.1284C158.44 84.1284 159.787 83.166 160.22 82.7811L160.846 84.2247C159.499 85.7645 157.766 87.1118 155.649 87.1118C153.147 87.1118 152.281 85.8126 152.281 83.8397C152.281 83.4066 152.329 82.5886 152.377 82.1074H152.281C149.875 84.6096 147.854 87.1118 143.956 87.1118C140.876 87.1118 138.326 85.3795 138.326 82.0593C138.326 81.0969 138.711 79.6052 139.385 77.9692L142.32 70.7994C142.801 69.5964 143.186 68.5859 143.186 68.0566C143.186 67.4792 142.897 66.6611 142.176 66.6611C141.309 66.6611 140.78 66.7574 139.914 66.9499ZM164.246 68.2491L169.732 62.7154C171.705 63.5334 172.475 65.6988 172.475 67.7198C172.475 68.7303 172.234 69.6445 172.09 70.5107H172.186L174.592 66.998C176.902 63.6296 178.105 62.7154 179.885 62.7154C181.521 62.7154 182.339 63.5815 182.339 65.1694C182.339 66.6611 181.473 68.1047 179.067 68.1047C178.249 68.1047 177.623 67.5754 177.046 67.5754C175.987 67.5754 174.159 70.3182 173.293 71.7137C170.502 76.1887 169.058 81.3375 167.855 86.4381H163.284L167.711 73.9271C168.192 72.5317 168.721 71.04 168.721 69.7889C168.721 68.6822 168.192 68.1047 167.326 68.1047C166.363 68.1047 165.738 68.9709 165.016 69.5002L164.246 68.2491ZM184.729 86.4381H179.917C181.746 82.3961 183.382 77.3436 184.97 72.7723C185.307 71.8099 185.595 70.5107 185.595 69.837C185.595 68.8265 185.018 68.1047 184.056 68.1047C183.334 68.1047 182.083 68.8265 181.505 69.4039L180.88 68.0085L186.413 62.7154C189.012 64.1108 189.349 67.0461 189.349 69.6927H189.445C191.947 66.5649 194.738 62.7154 199.261 62.7154C202.437 62.7154 204.651 64.4477 204.651 67.7198C204.651 68.9227 204.266 70.2701 203.736 71.6174L200.031 81.2413C199.79 81.8187 199.598 82.3961 199.598 83.1179C199.598 83.6472 200.031 84.1284 200.801 84.1284C202.148 84.1284 203.014 83.4066 203.833 82.5405L204.458 84.0803C202.822 85.6682 201.282 87.1118 198.876 87.1118C197.192 87.1118 195.315 86.1013 195.315 84.2247C195.315 83.551 195.748 82.1555 196.374 80.4714L199.55 72.1949C200.224 70.4626 200.56 69.0671 200.56 68.4897C200.56 66.9499 199.261 65.6988 197.625 65.6988C194.93 65.6988 192.188 67.8641 189.3 72.9166C187.279 76.4293 185.643 82.4924 184.729 86.4381ZM210.216 77.3917L215.269 75.3226C221.428 72.7723 222.39 69.5002 222.39 67.2867C222.39 65.7469 221.284 64.3995 219.84 64.3995C214.884 64.3995 210.216 73.061 210.216 77.3917ZM223.208 80.7601L224.075 82.2999C222.102 84.4171 217.338 87.1118 213.392 87.1118C208.195 87.1118 206.126 83.5029 206.126 78.7391C206.126 70.655 214.403 62.7154 221.284 62.7154C223.834 62.7154 226.48 64.0627 226.48 67.0942C226.48 70.5588 223.401 73.8309 220.177 75.2264L210.361 79.4127C210.794 82.1074 212.478 84.1284 215.557 84.1284C218.204 84.1284 221.524 82.1074 223.208 80.7601ZM229.239 67.1905L228.903 65.6506L236.169 62.7154L236.409 63.2928C236.698 63.9665 236.794 64.7364 236.794 65.5063C236.794 66.8055 236.361 68.0085 235.88 69.2115L232.078 78.9797C231.886 79.4127 231.309 80.9525 231.309 81.6743C231.309 82.8773 231.982 84.1284 233.763 84.1284C239.633 84.1284 243.29 70.0776 244.156 66.18C244.349 65.3138 244.638 64.2071 244.926 63.389H249.498C248.15 66.4205 247.044 69.7889 245.985 73.2054L243.483 81.145C241.125 88.5554 238.382 95.7251 229.336 95.7251C226.352 95.7251 223.369 94.5703 223.369 92.3568C223.369 90.7689 224.187 89.8546 225.919 89.8546C227.652 89.8546 228.47 91.2501 228.951 93.7041C229.047 94.0891 229.721 94.041 230.491 94.041C235.254 94.041 238.19 86.9193 239.008 82.6848H238.911C236.939 85.0427 235.158 87.1118 231.886 87.1118C228.758 87.1118 227.218 84.4653 227.218 81.9631C227.218 79.8939 227.94 78.5466 228.758 76.6218L230.972 71.4249C231.694 69.7889 232.078 68.6822 232.078 67.9122C232.078 67.2867 231.453 66.9017 230.779 66.9017C230.25 66.9017 229.673 67.0461 229.239 67.1905Z" fill="white"/>
</svg>
