<svg width="33" height="33" viewBox="0 0 33 33" fill="none" xmlns="http://www.w3.org/2000/svg">
<g clip-path="url(#clip0_88_8644)">
<mask id="path-1-outside-1_88_8644" maskUnits="userSpaceOnUse" x="1.22242" y="1.22242" width="30.5556" height="30.5556" fill="black">
<rect fill="white" x="1.22242" y="1.22242" width="30.5556" height="30.5556"/>
<path d="M3.53715 16.5022C3.5368 14.0676 4.2221 11.6821 5.51458 9.61881C6.80706 7.55556 8.65447 5.898 10.8453 4.83594C13.036 3.77389 15.4816 3.35027 17.902 3.61359C20.3224 3.87692 22.6197 4.81654 24.5308 6.32487H22.5587C22.3878 6.32653 22.2246 6.39555 22.1043 6.51694C21.9841 6.63833 21.9167 6.80226 21.9167 6.9731C21.9167 7.14395 21.9841 7.30788 22.1043 7.42927C22.2246 7.55066 22.3878 7.61968 22.5587 7.62134H26.2256C26.3976 7.62134 26.5625 7.55304 26.684 7.43147C26.8056 7.30989 26.8739 7.145 26.8739 6.97307V3.30598C26.8747 3.22033 26.8586 3.13536 26.8264 3.05598C26.7942 2.97661 26.7465 2.9044 26.6863 2.84354C26.626 2.78268 26.5543 2.73436 26.4752 2.70139C26.3961 2.66842 26.3113 2.65144 26.2257 2.65144C26.14 2.65144 26.0552 2.66842 25.9761 2.70139C25.8971 2.73436 25.8253 2.78268 25.7651 2.84354C25.7048 2.9044 25.6572 2.97661 25.625 3.05598C25.5928 3.13536 25.5766 3.22033 25.5774 3.30598V5.5011C22.7508 3.16932 19.1351 2.01504 15.4802 2.27764C11.8253 2.54025 8.41178 4.19959 5.94754 6.91151C3.48329 9.62344 2.15746 13.1798 2.24502 16.8431C2.33259 20.5063 3.82683 23.9953 6.41784 26.5864C6.47778 26.6477 6.54928 26.6966 6.62822 26.7301C6.70716 26.7636 6.79196 26.7811 6.87771 26.7816C6.96346 26.782 7.04845 26.7655 7.12777 26.7329C7.20709 26.7003 7.27916 26.6523 7.33979 26.5917C7.40043 26.5311 7.44843 26.459 7.48102 26.3797C7.5136 26.3004 7.53013 26.2154 7.52963 26.1296C7.52914 26.0439 7.51164 25.9591 7.47814 25.8801C7.44464 25.8012 7.39581 25.7297 7.33448 25.6698C6.12681 24.4687 5.16937 23.04 4.51755 21.4664C3.86574 19.8928 3.53251 18.2055 3.53715 16.5022Z"/>
<path d="M10.8362 28.1678C10.4684 27.9889 10.1044 27.7898 9.75443 27.5765C9.6077 27.4869 9.43139 27.4593 9.26429 27.4997C9.09719 27.5402 8.95299 27.6453 8.86341 27.792C8.77384 27.9388 8.74622 28.1151 8.78664 28.2822C8.82706 28.4493 8.93221 28.5935 9.07895 28.6831C9.46418 28.9182 9.86486 29.137 10.2697 29.3338C10.3463 29.371 10.4294 29.3928 10.5144 29.3978C10.5994 29.4029 10.6845 29.3912 10.765 29.3634C10.8454 29.3355 10.9196 29.2921 10.9833 29.2356C11.0469 29.1791 11.0988 29.1106 11.136 29.0341C11.1732 28.9575 11.195 28.8744 11.2001 28.7894C11.2051 28.7044 11.1934 28.6193 11.1656 28.5388C11.1378 28.4584 11.0944 28.3842 11.0379 28.3206C10.9814 28.2569 10.9128 28.205 10.8362 28.1678Z"/>
<path d="M28.1732 10.8485C28.2103 10.9251 28.2622 10.9937 28.3258 11.0503C28.3894 11.1068 28.4635 11.1503 28.5439 11.1783C28.6243 11.2062 28.7095 11.218 28.7945 11.2131C28.8794 11.2081 28.9626 11.1864 29.0392 11.1493C29.1158 11.1122 29.1844 11.0604 29.241 10.9968C29.2976 10.9332 29.3411 10.859 29.369 10.7786C29.3969 10.6982 29.4088 10.6131 29.4038 10.5281C29.3988 10.4431 29.3772 10.3599 29.3401 10.2833C29.1447 9.87972 28.9264 9.47905 28.6912 9.09217C28.6469 9.01943 28.5888 8.95612 28.5201 8.90585C28.4514 8.85558 28.3734 8.81933 28.2907 8.79919C28.1236 8.7585 27.9472 8.78584 27.8003 8.87521C27.6534 8.96458 27.548 9.10864 27.5073 9.27571C27.4666 9.44278 27.494 9.61917 27.5834 9.76608C27.7972 10.1178 27.9956 10.482 28.1732 10.8485Z"/>
<path d="M18.04 29.3763C17.6307 29.4249 17.2167 29.4538 16.809 29.4637C16.6402 29.4702 16.4806 29.5423 16.3642 29.6646C16.2477 29.787 16.1837 29.95 16.1856 30.119C16.1876 30.2879 16.2554 30.4493 16.3747 30.569C16.4939 30.6886 16.6552 30.757 16.8241 30.7595C16.8291 30.7595 16.8345 30.7595 16.8396 30.7592C17.2878 30.7488 17.7426 30.7167 18.1921 30.6637C18.3627 30.6433 18.5182 30.5561 18.6246 30.4212C18.7309 30.2862 18.7793 30.1146 18.7592 29.944C18.739 29.7734 18.652 29.6177 18.5172 29.5112C18.3824 29.4047 18.2106 29.3564 18.04 29.3763Z"/>
<path d="M14.3506 29.2883C13.9474 29.2209 13.5419 29.1332 13.1456 29.027C12.9795 28.9826 12.8025 29.006 12.6536 29.0921C12.5048 29.1781 12.3962 29.3198 12.3518 29.486C12.3074 29.6521 12.3308 29.8291 12.4169 29.9779C12.5029 30.1268 12.6446 30.2354 12.8108 30.2798C13.2469 30.3963 13.6933 30.4928 14.1373 30.5669C14.2213 30.5809 14.3072 30.5782 14.3901 30.559C14.4731 30.5399 14.5514 30.5045 14.6207 30.455C14.69 30.4056 14.7488 30.3429 14.7939 30.2707C14.839 30.1985 14.8694 30.1181 14.8834 30.0342C14.8974 29.9502 14.8947 29.8643 14.8755 29.7814C14.8563 29.6984 14.821 29.6201 14.7715 29.5508C14.722 29.4815 14.6594 29.4227 14.5872 29.3776C14.515 29.3325 14.4346 29.3023 14.3506 29.2883Z"/>
<path d="M30.1268 16.1897C29.955 16.1855 29.7885 16.2497 29.6639 16.3683C29.5394 16.4868 29.4671 16.6499 29.4627 16.8217C29.4523 17.2316 29.4226 17.6456 29.3738 18.0527C29.3535 18.2234 29.4018 18.3952 29.5081 18.5304C29.6144 18.6655 29.7699 18.7529 29.9407 18.7734C29.9665 18.7763 29.9925 18.7778 30.0185 18.7778C30.177 18.7776 30.3298 18.7193 30.4483 18.6141C30.5667 18.5088 30.6425 18.3639 30.6614 18.2066C30.7145 17.7593 30.7475 17.3044 30.7586 16.8541C30.7608 16.7689 30.7461 16.6842 30.7156 16.6048C30.685 16.5253 30.639 16.4527 30.5804 16.391C30.5217 16.3293 30.4514 16.2797 30.3736 16.2452C30.2958 16.2107 30.2119 16.1918 30.1268 16.1897Z"/>
<path d="M28.1371 23.6045C27.9948 23.508 27.8201 23.472 27.6513 23.5042C27.4825 23.5364 27.3333 23.6343 27.2366 23.7763C27.0061 24.1153 26.757 24.4474 26.4956 24.7629C26.44 24.8283 26.398 24.9041 26.3719 24.9858C26.3458 25.0676 26.3363 25.1537 26.3437 25.2392C26.3512 25.3247 26.3756 25.4079 26.4155 25.4838C26.4554 25.5598 26.51 25.6271 26.5761 25.6819C26.6422 25.7366 26.7185 25.7777 26.8006 25.8027C26.8827 25.8277 26.9689 25.8361 27.0543 25.8275C27.1397 25.8189 27.2225 25.7934 27.298 25.7526C27.3734 25.7117 27.44 25.6562 27.4939 25.5894C27.7813 25.2425 28.0557 24.8775 28.3089 24.5047C28.3568 24.4343 28.3902 24.3552 28.4075 24.2718C28.4248 24.1885 28.4254 24.1026 28.4095 24.019C28.3935 23.9354 28.3613 23.8558 28.3145 23.7846C28.2678 23.7135 28.2075 23.6523 28.1371 23.6045Z"/>
<path d="M29.0304 13.1579C29.1354 13.5526 29.2228 13.9581 29.2902 14.3632C29.3154 14.5145 29.3933 14.652 29.5103 14.7513C29.6272 14.8506 29.7756 14.9052 29.929 14.9054C29.9647 14.9053 30.0004 14.9023 30.0356 14.8965C30.1196 14.8826 30.2 14.8522 30.2723 14.8072C30.3446 14.7622 30.4073 14.7034 30.4568 14.6341C30.5063 14.5649 30.5417 14.4865 30.561 14.4036C30.5802 14.3207 30.5829 14.2348 30.5689 14.1508C30.4952 13.7051 30.3988 13.2586 30.2833 12.8242C30.2391 12.6581 30.1306 12.5163 29.9819 12.4301C29.8331 12.3439 29.6562 12.3204 29.4901 12.3646C29.3239 12.4089 29.1822 12.5173 29.096 12.6661C29.0098 12.8148 28.9861 12.9917 29.0304 13.1579Z"/>
<path d="M24.7516 26.5048C24.4347 26.7669 24.1027 27.0159 23.765 27.2448C23.6945 27.2926 23.6342 27.3537 23.5874 27.4248C23.5406 27.4959 23.5082 27.5755 23.4922 27.6591C23.4761 27.7427 23.4767 27.8287 23.4938 27.912C23.511 27.9954 23.5444 28.0746 23.5922 28.145C23.6399 28.2155 23.7011 28.2758 23.7722 28.3226C23.8433 28.3695 23.9229 28.4018 24.0065 28.4179C24.0901 28.4339 24.176 28.4333 24.2594 28.4162C24.3428 28.399 24.4219 28.3656 24.4924 28.3178C24.864 28.0662 25.2289 27.7924 25.5777 27.5044C25.7103 27.3948 25.7939 27.2371 25.8101 27.0659C25.8264 26.8947 25.774 26.7241 25.6644 26.5915C25.5549 26.459 25.3972 26.3754 25.226 26.3591C25.0548 26.3428 24.8841 26.3952 24.7516 26.5048Z"/>
<path d="M29.6643 20.0401C29.5006 19.9881 29.3228 20.0031 29.1702 20.082C29.0175 20.1609 28.9024 20.2971 28.85 20.4607C28.7259 20.8497 28.5809 21.2382 28.4192 21.6157C28.3838 21.6942 28.3644 21.779 28.3622 21.8651C28.36 21.9511 28.3749 22.0368 28.4061 22.117C28.4374 22.1973 28.4843 22.2705 28.5441 22.3324C28.604 22.3943 28.6755 22.4436 28.7547 22.4776C28.8338 22.5115 28.9189 22.5293 29.005 22.53C29.0911 22.5307 29.1765 22.5142 29.2561 22.4816C29.3358 22.4489 29.4081 22.4007 29.4689 22.3397C29.5297 22.2788 29.5778 22.2063 29.6103 22.1266C29.7889 21.711 29.9484 21.2828 30.0848 20.8545C30.1107 20.7734 30.1204 20.688 30.1133 20.6032C30.1061 20.5184 30.0824 20.4358 30.0433 20.3602C30.0043 20.2845 29.9507 20.2173 29.8857 20.1624C29.8207 20.1075 29.7455 20.0659 29.6643 20.0401Z"/>
<path d="M21.6031 28.4248C21.2292 28.5849 20.8405 28.7296 20.4478 28.8549C20.3667 28.8808 20.2915 28.9224 20.2264 28.9773C20.1614 29.0322 20.1078 29.0994 20.0688 29.175C20.0297 29.2506 20.0059 29.3332 19.9988 29.418C19.9916 29.5029 20.0012 29.5882 20.0271 29.6693C20.053 29.7504 20.0945 29.8257 20.1495 29.8907C20.2044 29.9557 20.2716 30.0093 20.3472 30.0484C20.4228 30.0874 20.5054 30.1112 20.5902 30.1183C20.675 30.1255 20.7604 30.1159 20.8415 30.09C21.2736 29.9523 21.7015 29.7931 22.1133 29.6168C22.2714 29.5491 22.3961 29.4214 22.46 29.2618C22.5239 29.1021 22.5218 28.9236 22.4541 28.7656C22.3864 28.6075 22.2587 28.4828 22.099 28.4189C21.9394 28.355 21.7611 28.3571 21.6031 28.4248Z"/>
<path d="M11.0198 15.1779C11.0198 14.1155 10.3212 13.2642 9.24 13.0089C8.64603 12.8682 8.02191 12.933 7.46951 13.1928C6.91711 13.4525 6.46907 13.8918 6.19851 14.439C6.12275 14.5926 6.11088 14.77 6.16551 14.9324C6.22014 15.0948 6.33681 15.2289 6.49004 15.3055C6.64327 15.3822 6.8206 15.395 6.98328 15.3413C7.14596 15.2876 7.28076 15.1716 7.35824 15.0188C7.49664 14.7316 7.72945 14.5006 8.01774 14.3644C8.30604 14.2283 8.63234 14.1952 8.9421 14.2707C9.12539 14.3139 9.72327 14.5073 9.72327 15.1779C9.72327 15.854 8.9424 16.3755 8.11565 16.9277C7.18473 17.549 6.13008 18.2532 6.13008 19.4193C6.13008 19.5913 6.19838 19.7562 6.31995 19.8777C6.44152 19.9993 6.60641 20.0676 6.77834 20.0676H10.3715C10.4572 20.0684 10.5422 20.0523 10.6215 20.0201C10.7009 19.9879 10.7731 19.9403 10.834 19.88C10.8948 19.8197 10.9432 19.748 10.9761 19.6689C11.0091 19.5898 11.0261 19.505 11.0261 19.4194C11.0261 19.3337 11.0091 19.2489 10.9761 19.1698C10.9432 19.0908 10.8948 19.019 10.834 18.9588C10.7731 18.8985 10.7009 18.8509 10.6215 18.8187C10.5422 18.7865 10.4572 18.7703 10.3715 18.7711H7.80327C8.07487 18.5138 8.45877 18.2574 8.83544 18.0058C9.85952 17.3221 11.0198 16.5472 11.0198 15.1779Z"/>
<path d="M17.1503 17.3125C17.1502 17.1406 17.0819 16.9758 16.9604 16.8542C16.8388 16.7326 16.6739 16.6643 16.502 16.6643H15.9753V13.2205C15.9753 13.0863 15.9336 12.9553 15.8559 12.8458C15.7783 12.7363 15.6686 12.6535 15.5419 12.609C15.4153 12.5645 15.2779 12.5604 15.1488 12.5973C15.0197 12.6342 14.9053 12.7102 14.8213 12.8149L11.5395 16.9071C11.4632 17.0025 11.4153 17.1174 11.4014 17.2388C11.3876 17.3601 11.4083 17.4829 11.4611 17.593C11.514 17.7031 11.5968 17.7961 11.7002 17.8611C11.8036 17.9262 11.9232 17.9608 12.0453 17.9608H14.6788V19.784C14.678 19.8696 14.6941 19.9546 14.7263 20.034C14.7585 20.1134 14.8062 20.1856 14.8664 20.2464C14.9267 20.3073 14.9985 20.3556 15.0775 20.3886C15.1566 20.4216 15.2414 20.4385 15.327 20.4385C15.4127 20.4385 15.4975 20.4216 15.5766 20.3886C15.6556 20.3556 15.7274 20.3073 15.7876 20.2464C15.8479 20.1856 15.8955 20.1134 15.9277 20.034C15.96 19.9546 15.9761 19.8696 15.9753 19.784V17.9608H16.502C16.6739 17.9608 16.8388 17.8925 16.9604 17.7709C17.082 17.6494 17.1503 17.4845 17.1503 17.3125ZM14.6788 16.6643H13.3965L14.6788 15.0649V16.6643Z"/>
<path d="M20.468 12.2203C20.3845 12.2035 20.2985 12.2032 20.215 12.2197C20.1314 12.2361 20.0519 12.2689 19.981 12.3161C19.9101 12.3634 19.8493 12.4242 19.802 12.495C19.7546 12.5658 19.7217 12.6453 19.7052 12.7288L18.2467 20.0215C18.2129 20.1901 18.2475 20.3652 18.3428 20.5082C18.4382 20.6513 18.5864 20.7506 18.755 20.7844C18.797 20.7927 18.8398 20.797 18.8826 20.797C19.0324 20.7968 19.1774 20.7449 19.2932 20.6499C19.4089 20.5549 19.4882 20.4228 19.5176 20.276L20.9761 12.9833C20.9929 12.8998 20.993 12.8139 20.9766 12.7303C20.9601 12.6468 20.9274 12.5674 20.8802 12.4965C20.833 12.4257 20.7723 12.3648 20.7016 12.3174C20.6309 12.27 20.5515 12.237 20.468 12.2203Z"/>
<path d="M23.7944 20.0679C23.9224 20.0678 24.0476 20.0299 24.1541 19.9589C24.2606 19.8878 24.3437 19.7869 24.393 19.6688L26.8239 13.8346C26.865 13.7361 26.8811 13.6289 26.8709 13.5227C26.8606 13.4165 26.8243 13.3144 26.7651 13.2256C26.7059 13.1368 26.6257 13.0639 26.5316 13.0136C26.4375 12.9632 26.3324 12.9369 26.2256 12.9369H22.9439C22.7731 12.9385 22.6098 13.0076 22.4896 13.129C22.3694 13.2504 22.3019 13.4143 22.3019 13.5851C22.3019 13.756 22.3694 13.9199 22.4896 14.0413C22.6098 14.1627 22.7731 14.2317 22.9439 14.2334H25.2533L23.1965 19.1702C23.1556 19.2687 23.1396 19.3758 23.1499 19.4819C23.1602 19.5881 23.1965 19.6901 23.2557 19.7788C23.3148 19.8676 23.3949 19.9405 23.4888 19.9909C23.5828 20.0414 23.6878 20.0677 23.7944 20.0679Z"/>
</mask>
<path d="M3.53715 16.5022C3.5368 14.0676 4.2221 11.6821 5.51458 9.61881C6.80706 7.55556 8.65447 5.898 10.8453 4.83594C13.036 3.77389 15.4816 3.35027 17.902 3.61359C20.3224 3.87692 22.6197 4.81654 24.5308 6.32487H22.5587C22.3878 6.32653 22.2246 6.39555 22.1043 6.51694C21.9841 6.63833 21.9167 6.80226 21.9167 6.9731C21.9167 7.14395 21.9841 7.30788 22.1043 7.42927C22.2246 7.55066 22.3878 7.61968 22.5587 7.62134H26.2256C26.3976 7.62134 26.5625 7.55304 26.684 7.43147C26.8056 7.30989 26.8739 7.145 26.8739 6.97307V3.30598C26.8747 3.22033 26.8586 3.13536 26.8264 3.05598C26.7942 2.97661 26.7465 2.9044 26.6863 2.84354C26.626 2.78268 26.5543 2.73436 26.4752 2.70139C26.3961 2.66842 26.3113 2.65144 26.2257 2.65144C26.14 2.65144 26.0552 2.66842 25.9761 2.70139C25.8971 2.73436 25.8253 2.78268 25.7651 2.84354C25.7048 2.9044 25.6572 2.97661 25.625 3.05598C25.5928 3.13536 25.5766 3.22033 25.5774 3.30598V5.5011C22.7508 3.16932 19.1351 2.01504 15.4802 2.27764C11.8253 2.54025 8.41178 4.19959 5.94754 6.91151C3.48329 9.62344 2.15746 13.1798 2.24502 16.8431C2.33259 20.5063 3.82683 23.9953 6.41784 26.5864C6.47778 26.6477 6.54928 26.6966 6.62822 26.7301C6.70716 26.7636 6.79196 26.7811 6.87771 26.7816C6.96346 26.782 7.04845 26.7655 7.12777 26.7329C7.20709 26.7003 7.27916 26.6523 7.33979 26.5917C7.40043 26.5311 7.44843 26.459 7.48102 26.3797C7.5136 26.3004 7.53013 26.2154 7.52963 26.1296C7.52914 26.0439 7.51164 25.9591 7.47814 25.8801C7.44464 25.8012 7.39581 25.7297 7.33448 25.6698C6.12681 24.4687 5.16937 23.04 4.51755 21.4664C3.86574 19.8928 3.53251 18.2055 3.53715 16.5022Z" fill="#87AF73"/>
<path d="M10.8362 28.1678C10.4684 27.9889 10.1044 27.7898 9.75443 27.5765C9.6077 27.4869 9.43139 27.4593 9.26429 27.4997C9.09719 27.5402 8.95299 27.6453 8.86341 27.792C8.77384 27.9388 8.74622 28.1151 8.78664 28.2822C8.82706 28.4493 8.93221 28.5935 9.07895 28.6831C9.46418 28.9182 9.86486 29.137 10.2697 29.3338C10.3463 29.371 10.4294 29.3928 10.5144 29.3978C10.5994 29.4029 10.6845 29.3912 10.765 29.3634C10.8454 29.3355 10.9196 29.2921 10.9833 29.2356C11.0469 29.1791 11.0988 29.1106 11.136 29.0341C11.1732 28.9575 11.195 28.8744 11.2001 28.7894C11.2051 28.7044 11.1934 28.6193 11.1656 28.5388C11.1378 28.4584 11.0944 28.3842 11.0379 28.3206C10.9814 28.2569 10.9128 28.205 10.8362 28.1678Z" fill="#87AF73"/>
<path d="M28.1732 10.8485C28.2103 10.9251 28.2622 10.9937 28.3258 11.0503C28.3894 11.1068 28.4635 11.1503 28.5439 11.1783C28.6243 11.2062 28.7095 11.218 28.7945 11.2131C28.8794 11.2081 28.9626 11.1864 29.0392 11.1493C29.1158 11.1122 29.1844 11.0604 29.241 10.9968C29.2976 10.9332 29.3411 10.859 29.369 10.7786C29.3969 10.6982 29.4088 10.6131 29.4038 10.5281C29.3988 10.4431 29.3772 10.3599 29.3401 10.2833C29.1447 9.87972 28.9264 9.47905 28.6912 9.09217C28.6469 9.01943 28.5888 8.95612 28.5201 8.90585C28.4514 8.85558 28.3734 8.81933 28.2907 8.79919C28.1236 8.7585 27.9472 8.78584 27.8003 8.87521C27.6534 8.96458 27.548 9.10864 27.5073 9.27571C27.4666 9.44278 27.494 9.61917 27.5834 9.76608C27.7972 10.1178 27.9956 10.482 28.1732 10.8485Z" fill="#87AF73"/>
<path d="M18.04 29.3763C17.6307 29.4249 17.2167 29.4538 16.809 29.4637C16.6402 29.4702 16.4806 29.5423 16.3642 29.6646C16.2477 29.787 16.1837 29.95 16.1856 30.119C16.1876 30.2879 16.2554 30.4493 16.3747 30.569C16.4939 30.6886 16.6552 30.757 16.8241 30.7595C16.8291 30.7595 16.8345 30.7595 16.8396 30.7592C17.2878 30.7488 17.7426 30.7167 18.1921 30.6637C18.3627 30.6433 18.5182 30.5561 18.6246 30.4212C18.7309 30.2862 18.7793 30.1146 18.7592 29.944C18.739 29.7734 18.652 29.6177 18.5172 29.5112C18.3824 29.4047 18.2106 29.3564 18.04 29.3763Z" fill="#87AF73"/>
<path d="M14.3506 29.2883C13.9474 29.2209 13.5419 29.1332 13.1456 29.027C12.9795 28.9826 12.8025 29.006 12.6536 29.0921C12.5048 29.1781 12.3962 29.3198 12.3518 29.486C12.3074 29.6521 12.3308 29.8291 12.4169 29.9779C12.5029 30.1268 12.6446 30.2354 12.8108 30.2798C13.2469 30.3963 13.6933 30.4928 14.1373 30.5669C14.2213 30.5809 14.3072 30.5782 14.3901 30.559C14.4731 30.5399 14.5514 30.5045 14.6207 30.455C14.69 30.4056 14.7488 30.3429 14.7939 30.2707C14.839 30.1985 14.8694 30.1181 14.8834 30.0342C14.8974 29.9502 14.8947 29.8643 14.8755 29.7814C14.8563 29.6984 14.821 29.6201 14.7715 29.5508C14.722 29.4815 14.6594 29.4227 14.5872 29.3776C14.515 29.3325 14.4346 29.3023 14.3506 29.2883Z" fill="#87AF73"/>
<path d="M30.1268 16.1897C29.955 16.1855 29.7885 16.2497 29.6639 16.3683C29.5394 16.4868 29.4671 16.6499 29.4627 16.8217C29.4523 17.2316 29.4226 17.6456 29.3738 18.0527C29.3535 18.2234 29.4018 18.3952 29.5081 18.5304C29.6144 18.6655 29.7699 18.7529 29.9407 18.7734C29.9665 18.7763 29.9925 18.7778 30.0185 18.7778C30.177 18.7776 30.3298 18.7193 30.4483 18.6141C30.5667 18.5088 30.6425 18.3639 30.6614 18.2066C30.7145 17.7593 30.7475 17.3044 30.7586 16.8541C30.7608 16.7689 30.7461 16.6842 30.7156 16.6048C30.685 16.5253 30.639 16.4527 30.5804 16.391C30.5217 16.3293 30.4514 16.2797 30.3736 16.2452C30.2958 16.2107 30.2119 16.1918 30.1268 16.1897Z" fill="#87AF73"/>
<path d="M28.1371 23.6045C27.9948 23.508 27.8201 23.472 27.6513 23.5042C27.4825 23.5364 27.3333 23.6343 27.2366 23.7763C27.0061 24.1153 26.757 24.4474 26.4956 24.7629C26.44 24.8283 26.398 24.9041 26.3719 24.9858C26.3458 25.0676 26.3363 25.1537 26.3437 25.2392C26.3512 25.3247 26.3756 25.4079 26.4155 25.4838C26.4554 25.5598 26.51 25.6271 26.5761 25.6819C26.6422 25.7366 26.7185 25.7777 26.8006 25.8027C26.8827 25.8277 26.9689 25.8361 27.0543 25.8275C27.1397 25.8189 27.2225 25.7934 27.298 25.7526C27.3734 25.7117 27.44 25.6562 27.4939 25.5894C27.7813 25.2425 28.0557 24.8775 28.3089 24.5047C28.3568 24.4343 28.3902 24.3552 28.4075 24.2718C28.4248 24.1885 28.4254 24.1026 28.4095 24.019C28.3935 23.9354 28.3613 23.8558 28.3145 23.7846C28.2678 23.7135 28.2075 23.6523 28.1371 23.6045Z" fill="#87AF73"/>
<path d="M29.0304 13.1579C29.1354 13.5526 29.2228 13.9581 29.2902 14.3632C29.3154 14.5145 29.3933 14.652 29.5103 14.7513C29.6272 14.8506 29.7756 14.9052 29.929 14.9054C29.9647 14.9053 30.0004 14.9023 30.0356 14.8965C30.1196 14.8826 30.2 14.8522 30.2723 14.8072C30.3446 14.7622 30.4073 14.7034 30.4568 14.6341C30.5063 14.5649 30.5417 14.4865 30.561 14.4036C30.5802 14.3207 30.5829 14.2348 30.5689 14.1508C30.4952 13.7051 30.3988 13.2586 30.2833 12.8242C30.2391 12.6581 30.1306 12.5163 29.9819 12.4301C29.8331 12.3439 29.6562 12.3204 29.4901 12.3646C29.3239 12.4089 29.1822 12.5173 29.096 12.6661C29.0098 12.8148 28.9861 12.9917 29.0304 13.1579Z" fill="#87AF73"/>
<path d="M24.7516 26.5048C24.4347 26.7669 24.1027 27.0159 23.765 27.2448C23.6945 27.2926 23.6342 27.3537 23.5874 27.4248C23.5406 27.4959 23.5082 27.5755 23.4922 27.6591C23.4761 27.7427 23.4767 27.8287 23.4938 27.912C23.511 27.9954 23.5444 28.0746 23.5922 28.145C23.6399 28.2155 23.7011 28.2758 23.7722 28.3226C23.8433 28.3695 23.9229 28.4018 24.0065 28.4179C24.0901 28.4339 24.176 28.4333 24.2594 28.4162C24.3428 28.399 24.4219 28.3656 24.4924 28.3178C24.864 28.0662 25.2289 27.7924 25.5777 27.5044C25.7103 27.3948 25.7939 27.2371 25.8101 27.0659C25.8264 26.8947 25.774 26.7241 25.6644 26.5915C25.5549 26.459 25.3972 26.3754 25.226 26.3591C25.0548 26.3428 24.8841 26.3952 24.7516 26.5048Z" fill="#87AF73"/>
<path d="M29.6643 20.0401C29.5006 19.9881 29.3228 20.0031 29.1702 20.082C29.0175 20.1609 28.9024 20.2971 28.85 20.4607C28.7259 20.8497 28.5809 21.2382 28.4192 21.6157C28.3838 21.6942 28.3644 21.779 28.3622 21.8651C28.36 21.9511 28.3749 22.0368 28.4061 22.117C28.4374 22.1973 28.4843 22.2705 28.5441 22.3324C28.604 22.3943 28.6755 22.4436 28.7547 22.4776C28.8338 22.5115 28.9189 22.5293 29.005 22.53C29.0911 22.5307 29.1765 22.5142 29.2561 22.4816C29.3358 22.4489 29.4081 22.4007 29.4689 22.3397C29.5297 22.2788 29.5778 22.2063 29.6103 22.1266C29.7889 21.711 29.9484 21.2828 30.0848 20.8545C30.1107 20.7734 30.1204 20.688 30.1133 20.6032C30.1061 20.5184 30.0824 20.4358 30.0433 20.3602C30.0043 20.2845 29.9507 20.2173 29.8857 20.1624C29.8207 20.1075 29.7455 20.0659 29.6643 20.0401Z" fill="#87AF73"/>
<path d="M21.6031 28.4248C21.2292 28.5849 20.8405 28.7296 20.4478 28.8549C20.3667 28.8808 20.2915 28.9224 20.2264 28.9773C20.1614 29.0322 20.1078 29.0994 20.0688 29.175C20.0297 29.2506 20.0059 29.3332 19.9988 29.418C19.9916 29.5029 20.0012 29.5882 20.0271 29.6693C20.053 29.7504 20.0945 29.8257 20.1495 29.8907C20.2044 29.9557 20.2716 30.0093 20.3472 30.0484C20.4228 30.0874 20.5054 30.1112 20.5902 30.1183C20.675 30.1255 20.7604 30.1159 20.8415 30.09C21.2736 29.9523 21.7015 29.7931 22.1133 29.6168C22.2714 29.5491 22.3961 29.4214 22.46 29.2618C22.5239 29.1021 22.5218 28.9236 22.4541 28.7656C22.3864 28.6075 22.2587 28.4828 22.099 28.4189C21.9394 28.355 21.7611 28.3571 21.6031 28.4248Z" fill="#87AF73"/>
<path d="M11.0198 15.1779C11.0198 14.1155 10.3212 13.2642 9.24 13.0089C8.64603 12.8682 8.02191 12.933 7.46951 13.1928C6.91711 13.4525 6.46907 13.8918 6.19851 14.439C6.12275 14.5926 6.11088 14.77 6.16551 14.9324C6.22014 15.0948 6.33681 15.2289 6.49004 15.3055C6.64327 15.3822 6.8206 15.395 6.98328 15.3413C7.14596 15.2876 7.28076 15.1716 7.35824 15.0188C7.49664 14.7316 7.72945 14.5006 8.01774 14.3644C8.30604 14.2283 8.63234 14.1952 8.9421 14.2707C9.12539 14.3139 9.72327 14.5073 9.72327 15.1779C9.72327 15.854 8.9424 16.3755 8.11565 16.9277C7.18473 17.549 6.13008 18.2532 6.13008 19.4193C6.13008 19.5913 6.19838 19.7562 6.31995 19.8777C6.44152 19.9993 6.60641 20.0676 6.77834 20.0676H10.3715C10.4572 20.0684 10.5422 20.0523 10.6215 20.0201C10.7009 19.9879 10.7731 19.9403 10.834 19.88C10.8948 19.8197 10.9432 19.748 10.9761 19.6689C11.0091 19.5898 11.0261 19.505 11.0261 19.4194C11.0261 19.3337 11.0091 19.2489 10.9761 19.1698C10.9432 19.0908 10.8948 19.019 10.834 18.9588C10.7731 18.8985 10.7009 18.8509 10.6215 18.8187C10.5422 18.7865 10.4572 18.7703 10.3715 18.7711H7.80327C8.07487 18.5138 8.45877 18.2574 8.83544 18.0058C9.85952 17.3221 11.0198 16.5472 11.0198 15.1779Z" fill="#87AF73"/>
<path d="M17.1503 17.3125C17.1502 17.1406 17.0819 16.9758 16.9604 16.8542C16.8388 16.7326 16.6739 16.6643 16.502 16.6643H15.9753V13.2205C15.9753 13.0863 15.9336 12.9553 15.8559 12.8458C15.7783 12.7363 15.6686 12.6535 15.5419 12.609C15.4153 12.5645 15.2779 12.5604 15.1488 12.5973C15.0197 12.6342 14.9053 12.7102 14.8213 12.8149L11.5395 16.9071C11.4632 17.0025 11.4153 17.1174 11.4014 17.2388C11.3876 17.3601 11.4083 17.4829 11.4611 17.593C11.514 17.7031 11.5968 17.7961 11.7002 17.8611C11.8036 17.9262 11.9232 17.9608 12.0453 17.9608H14.6788V19.784C14.678 19.8696 14.6941 19.9546 14.7263 20.034C14.7585 20.1134 14.8062 20.1856 14.8664 20.2464C14.9267 20.3073 14.9985 20.3556 15.0775 20.3886C15.1566 20.4216 15.2414 20.4385 15.327 20.4385C15.4127 20.4385 15.4975 20.4216 15.5766 20.3886C15.6556 20.3556 15.7274 20.3073 15.7876 20.2464C15.8479 20.1856 15.8955 20.1134 15.9277 20.034C15.96 19.9546 15.9761 19.8696 15.9753 19.784V17.9608H16.502C16.6739 17.9608 16.8388 17.8925 16.9604 17.7709C17.082 17.6494 17.1503 17.4845 17.1503 17.3125ZM14.6788 16.6643H13.3965L14.6788 15.0649V16.6643Z" fill="#87AF73"/>
<path d="M20.468 12.2203C20.3845 12.2035 20.2985 12.2032 20.215 12.2197C20.1314 12.2361 20.0519 12.2689 19.981 12.3161C19.9101 12.3634 19.8493 12.4242 19.802 12.495C19.7546 12.5658 19.7217 12.6453 19.7052 12.7288L18.2467 20.0215C18.2129 20.1901 18.2475 20.3652 18.3428 20.5082C18.4382 20.6513 18.5864 20.7506 18.755 20.7844C18.797 20.7927 18.8398 20.797 18.8826 20.797C19.0324 20.7968 19.1774 20.7449 19.2932 20.6499C19.4089 20.5549 19.4882 20.4228 19.5176 20.276L20.9761 12.9833C20.9929 12.8998 20.993 12.8139 20.9766 12.7303C20.9601 12.6468 20.9274 12.5674 20.8802 12.4965C20.833 12.4257 20.7723 12.3648 20.7016 12.3174C20.6309 12.27 20.5515 12.237 20.468 12.2203Z" fill="#87AF73"/>
<path d="M23.7944 20.0679C23.9224 20.0678 24.0476 20.0299 24.1541 19.9589C24.2606 19.8878 24.3437 19.7869 24.393 19.6688L26.8239 13.8346C26.865 13.7361 26.8811 13.6289 26.8709 13.5227C26.8606 13.4165 26.8243 13.3144 26.7651 13.2256C26.7059 13.1368 26.6257 13.0639 26.5316 13.0136C26.4375 12.9632 26.3324 12.9369 26.2256 12.9369H22.9439C22.7731 12.9385 22.6098 13.0076 22.4896 13.129C22.3694 13.2504 22.3019 13.4143 22.3019 13.5851C22.3019 13.756 22.3694 13.9199 22.4896 14.0413C22.6098 14.1627 22.7731 14.2317 22.9439 14.2334H25.2533L23.1965 19.1702C23.1556 19.2687 23.1396 19.3758 23.1499 19.4819C23.1602 19.5881 23.1965 19.6901 23.2557 19.7788C23.3148 19.8676 23.3949 19.9405 23.4888 19.9909C23.5828 20.0414 23.6878 20.0677 23.7944 20.0679Z" fill="#87AF73"/>
<path d="M3.53715 16.5022C3.5368 14.0676 4.2221 11.6821 5.51458 9.61881C6.80706 7.55556 8.65447 5.898 10.8453 4.83594C13.036 3.77389 15.4816 3.35027 17.902 3.61359C20.3224 3.87692 22.6197 4.81654 24.5308 6.32487H22.5587C22.3878 6.32653 22.2246 6.39555 22.1043 6.51694C21.9841 6.63833 21.9167 6.80226 21.9167 6.9731C21.9167 7.14395 21.9841 7.30788 22.1043 7.42927C22.2246 7.55066 22.3878 7.61968 22.5587 7.62134H26.2256C26.3976 7.62134 26.5625 7.55304 26.684 7.43147C26.8056 7.30989 26.8739 7.145 26.8739 6.97307V3.30598C26.8747 3.22033 26.8586 3.13536 26.8264 3.05598C26.7942 2.97661 26.7465 2.9044 26.6863 2.84354C26.626 2.78268 26.5543 2.73436 26.4752 2.70139C26.3961 2.66842 26.3113 2.65144 26.2257 2.65144C26.14 2.65144 26.0552 2.66842 25.9761 2.70139C25.8971 2.73436 25.8253 2.78268 25.7651 2.84354C25.7048 2.9044 25.6572 2.97661 25.625 3.05598C25.5928 3.13536 25.5766 3.22033 25.5774 3.30598V5.5011C22.7508 3.16932 19.1351 2.01504 15.4802 2.27764C11.8253 2.54025 8.41178 4.19959 5.94754 6.91151C3.48329 9.62344 2.15746 13.1798 2.24502 16.8431C2.33259 20.5063 3.82683 23.9953 6.41784 26.5864C6.47778 26.6477 6.54928 26.6966 6.62822 26.7301C6.70716 26.7636 6.79196 26.7811 6.87771 26.7816C6.96346 26.782 7.04845 26.7655 7.12777 26.7329C7.20709 26.7003 7.27916 26.6523 7.33979 26.5917C7.40043 26.5311 7.44843 26.459 7.48102 26.3797C7.5136 26.3004 7.53013 26.2154 7.52963 26.1296C7.52914 26.0439 7.51164 25.9591 7.47814 25.8801C7.44464 25.8012 7.39581 25.7297 7.33448 25.6698C6.12681 24.4687 5.16937 23.04 4.51755 21.4664C3.86574 19.8928 3.53251 18.2055 3.53715 16.5022Z" stroke="#87AF73" stroke-width="0.509164" mask="url(#path-1-outside-1_88_8644)"/>
<path d="M10.8362 28.1678C10.4684 27.9889 10.1044 27.7898 9.75443 27.5765C9.6077 27.4869 9.43139 27.4593 9.26429 27.4997C9.09719 27.5402 8.95299 27.6453 8.86341 27.792C8.77384 27.9388 8.74622 28.1151 8.78664 28.2822C8.82706 28.4493 8.93221 28.5935 9.07895 28.6831C9.46418 28.9182 9.86486 29.137 10.2697 29.3338C10.3463 29.371 10.4294 29.3928 10.5144 29.3978C10.5994 29.4029 10.6845 29.3912 10.765 29.3634C10.8454 29.3355 10.9196 29.2921 10.9833 29.2356C11.0469 29.1791 11.0988 29.1106 11.136 29.0341C11.1732 28.9575 11.195 28.8744 11.2001 28.7894C11.2051 28.7044 11.1934 28.6193 11.1656 28.5388C11.1378 28.4584 11.0944 28.3842 11.0379 28.3206C10.9814 28.2569 10.9128 28.205 10.8362 28.1678Z" stroke="#87AF73" stroke-width="0.509164" mask="url(#path-1-outside-1_88_8644)"/>
<path d="M28.1732 10.8485C28.2103 10.9251 28.2622 10.9937 28.3258 11.0503C28.3894 11.1068 28.4635 11.1503 28.5439 11.1783C28.6243 11.2062 28.7095 11.218 28.7945 11.2131C28.8794 11.2081 28.9626 11.1864 29.0392 11.1493C29.1158 11.1122 29.1844 11.0604 29.241 10.9968C29.2976 10.9332 29.3411 10.859 29.369 10.7786C29.3969 10.6982 29.4088 10.6131 29.4038 10.5281C29.3988 10.4431 29.3772 10.3599 29.3401 10.2833C29.1447 9.87972 28.9264 9.47905 28.6912 9.09217C28.6469 9.01943 28.5888 8.95612 28.5201 8.90585C28.4514 8.85558 28.3734 8.81933 28.2907 8.79919C28.1236 8.7585 27.9472 8.78584 27.8003 8.87521C27.6534 8.96458 27.548 9.10864 27.5073 9.27571C27.4666 9.44278 27.494 9.61917 27.5834 9.76608C27.7972 10.1178 27.9956 10.482 28.1732 10.8485Z" stroke="#87AF73" stroke-width="0.509164" mask="url(#path-1-outside-1_88_8644)"/>
<path d="M18.04 29.3763C17.6307 29.4249 17.2167 29.4538 16.809 29.4637C16.6402 29.4702 16.4806 29.5423 16.3642 29.6646C16.2477 29.787 16.1837 29.95 16.1856 30.119C16.1876 30.2879 16.2554 30.4493 16.3747 30.569C16.4939 30.6886 16.6552 30.757 16.8241 30.7595C16.8291 30.7595 16.8345 30.7595 16.8396 30.7592C17.2878 30.7488 17.7426 30.7167 18.1921 30.6637C18.3627 30.6433 18.5182 30.5561 18.6246 30.4212C18.7309 30.2862 18.7793 30.1146 18.7592 29.944C18.739 29.7734 18.652 29.6177 18.5172 29.5112C18.3824 29.4047 18.2106 29.3564 18.04 29.3763Z" stroke="#87AF73" stroke-width="0.509164" mask="url(#path-1-outside-1_88_8644)"/>
<path d="M14.3506 29.2883C13.9474 29.2209 13.5419 29.1332 13.1456 29.027C12.9795 28.9826 12.8025 29.006 12.6536 29.0921C12.5048 29.1781 12.3962 29.3198 12.3518 29.486C12.3074 29.6521 12.3308 29.8291 12.4169 29.9779C12.5029 30.1268 12.6446 30.2354 12.8108 30.2798C13.2469 30.3963 13.6933 30.4928 14.1373 30.5669C14.2213 30.5809 14.3072 30.5782 14.3901 30.559C14.4731 30.5399 14.5514 30.5045 14.6207 30.455C14.69 30.4056 14.7488 30.3429 14.7939 30.2707C14.839 30.1985 14.8694 30.1181 14.8834 30.0342C14.8974 29.9502 14.8947 29.8643 14.8755 29.7814C14.8563 29.6984 14.821 29.6201 14.7715 29.5508C14.722 29.4815 14.6594 29.4227 14.5872 29.3776C14.515 29.3325 14.4346 29.3023 14.3506 29.2883Z" stroke="#87AF73" stroke-width="0.509164" mask="url(#path-1-outside-1_88_8644)"/>
<path d="M30.1268 16.1897C29.955 16.1855 29.7885 16.2497 29.6639 16.3683C29.5394 16.4868 29.4671 16.6499 29.4627 16.8217C29.4523 17.2316 29.4226 17.6456 29.3738 18.0527C29.3535 18.2234 29.4018 18.3952 29.5081 18.5304C29.6144 18.6655 29.7699 18.7529 29.9407 18.7734C29.9665 18.7763 29.9925 18.7778 30.0185 18.7778C30.177 18.7776 30.3298 18.7193 30.4483 18.6141C30.5667 18.5088 30.6425 18.3639 30.6614 18.2066C30.7145 17.7593 30.7475 17.3044 30.7586 16.8541C30.7608 16.7689 30.7461 16.6842 30.7156 16.6048C30.685 16.5253 30.639 16.4527 30.5804 16.391C30.5217 16.3293 30.4514 16.2797 30.3736 16.2452C30.2958 16.2107 30.2119 16.1918 30.1268 16.1897Z" stroke="#87AF73" stroke-width="0.509164" mask="url(#path-1-outside-1_88_8644)"/>
<path d="M28.1371 23.6045C27.9948 23.508 27.8201 23.472 27.6513 23.5042C27.4825 23.5364 27.3333 23.6343 27.2366 23.7763C27.0061 24.1153 26.757 24.4474 26.4956 24.7629C26.44 24.8283 26.398 24.9041 26.3719 24.9858C26.3458 25.0676 26.3363 25.1537 26.3437 25.2392C26.3512 25.3247 26.3756 25.4079 26.4155 25.4838C26.4554 25.5598 26.51 25.6271 26.5761 25.6819C26.6422 25.7366 26.7185 25.7777 26.8006 25.8027C26.8827 25.8277 26.9689 25.8361 27.0543 25.8275C27.1397 25.8189 27.2225 25.7934 27.298 25.7526C27.3734 25.7117 27.44 25.6562 27.4939 25.5894C27.7813 25.2425 28.0557 24.8775 28.3089 24.5047C28.3568 24.4343 28.3902 24.3552 28.4075 24.2718C28.4248 24.1885 28.4254 24.1026 28.4095 24.019C28.3935 23.9354 28.3613 23.8558 28.3145 23.7846C28.2678 23.7135 28.2075 23.6523 28.1371 23.6045Z" stroke="#87AF73" stroke-width="0.509164" mask="url(#path-1-outside-1_88_8644)"/>
<path d="M29.0304 13.1579C29.1354 13.5526 29.2228 13.9581 29.2902 14.3632C29.3154 14.5145 29.3933 14.652 29.5103 14.7513C29.6272 14.8506 29.7756 14.9052 29.929 14.9054C29.9647 14.9053 30.0004 14.9023 30.0356 14.8965C30.1196 14.8826 30.2 14.8522 30.2723 14.8072C30.3446 14.7622 30.4073 14.7034 30.4568 14.6341C30.5063 14.5649 30.5417 14.4865 30.561 14.4036C30.5802 14.3207 30.5829 14.2348 30.5689 14.1508C30.4952 13.7051 30.3988 13.2586 30.2833 12.8242C30.2391 12.6581 30.1306 12.5163 29.9819 12.4301C29.8331 12.3439 29.6562 12.3204 29.4901 12.3646C29.3239 12.4089 29.1822 12.5173 29.096 12.6661C29.0098 12.8148 28.9861 12.9917 29.0304 13.1579Z" stroke="#87AF73" stroke-width="0.509164" mask="url(#path-1-outside-1_88_8644)"/>
<path d="M24.7516 26.5048C24.4347 26.7669 24.1027 27.0159 23.765 27.2448C23.6945 27.2926 23.6342 27.3537 23.5874 27.4248C23.5406 27.4959 23.5082 27.5755 23.4922 27.6591C23.4761 27.7427 23.4767 27.8287 23.4938 27.912C23.511 27.9954 23.5444 28.0746 23.5922 28.145C23.6399 28.2155 23.7011 28.2758 23.7722 28.3226C23.8433 28.3695 23.9229 28.4018 24.0065 28.4179C24.0901 28.4339 24.176 28.4333 24.2594 28.4162C24.3428 28.399 24.4219 28.3656 24.4924 28.3178C24.864 28.0662 25.2289 27.7924 25.5777 27.5044C25.7103 27.3948 25.7939 27.2371 25.8101 27.0659C25.8264 26.8947 25.774 26.7241 25.6644 26.5915C25.5549 26.459 25.3972 26.3754 25.226 26.3591C25.0548 26.3428 24.8841 26.3952 24.7516 26.5048Z" stroke="#87AF73" stroke-width="0.509164" mask="url(#path-1-outside-1_88_8644)"/>
<path d="M29.6643 20.0401C29.5006 19.9881 29.3228 20.0031 29.1702 20.082C29.0175 20.1609 28.9024 20.2971 28.85 20.4607C28.7259 20.8497 28.5809 21.2382 28.4192 21.6157C28.3838 21.6942 28.3644 21.779 28.3622 21.8651C28.36 21.9511 28.3749 22.0368 28.4061 22.117C28.4374 22.1973 28.4843 22.2705 28.5441 22.3324C28.604 22.3943 28.6755 22.4436 28.7547 22.4776C28.8338 22.5115 28.9189 22.5293 29.005 22.53C29.0911 22.5307 29.1765 22.5142 29.2561 22.4816C29.3358 22.4489 29.4081 22.4007 29.4689 22.3397C29.5297 22.2788 29.5778 22.2063 29.6103 22.1266C29.7889 21.711 29.9484 21.2828 30.0848 20.8545C30.1107 20.7734 30.1204 20.688 30.1133 20.6032C30.1061 20.5184 30.0824 20.4358 30.0433 20.3602C30.0043 20.2845 29.9507 20.2173 29.8857 20.1624C29.8207 20.1075 29.7455 20.0659 29.6643 20.0401Z" stroke="#87AF73" stroke-width="0.509164" mask="url(#path-1-outside-1_88_8644)"/>
<path d="M21.6031 28.4248C21.2292 28.5849 20.8405 28.7296 20.4478 28.8549C20.3667 28.8808 20.2915 28.9224 20.2264 28.9773C20.1614 29.0322 20.1078 29.0994 20.0688 29.175C20.0297 29.2506 20.0059 29.3332 19.9988 29.418C19.9916 29.5029 20.0012 29.5882 20.0271 29.6693C20.053 29.7504 20.0945 29.8257 20.1495 29.8907C20.2044 29.9557 20.2716 30.0093 20.3472 30.0484C20.4228 30.0874 20.5054 30.1112 20.5902 30.1183C20.675 30.1255 20.7604 30.1159 20.8415 30.09C21.2736 29.9523 21.7015 29.7931 22.1133 29.6168C22.2714 29.5491 22.3961 29.4214 22.46 29.2618C22.5239 29.1021 22.5218 28.9236 22.4541 28.7656C22.3864 28.6075 22.2587 28.4828 22.099 28.4189C21.9394 28.355 21.7611 28.3571 21.6031 28.4248Z" stroke="#87AF73" stroke-width="0.509164" mask="url(#path-1-outside-1_88_8644)"/>
<path d="M11.0198 15.1779C11.0198 14.1155 10.3212 13.2642 9.24 13.0089C8.64603 12.8682 8.02191 12.933 7.46951 13.1928C6.91711 13.4525 6.46907 13.8918 6.19851 14.439C6.12275 14.5926 6.11088 14.77 6.16551 14.9324C6.22014 15.0948 6.33681 15.2289 6.49004 15.3055C6.64327 15.3822 6.8206 15.395 6.98328 15.3413C7.14596 15.2876 7.28076 15.1716 7.35824 15.0188C7.49664 14.7316 7.72945 14.5006 8.01774 14.3644C8.30604 14.2283 8.63234 14.1952 8.9421 14.2707C9.12539 14.3139 9.72327 14.5073 9.72327 15.1779C9.72327 15.854 8.9424 16.3755 8.11565 16.9277C7.18473 17.549 6.13008 18.2532 6.13008 19.4193C6.13008 19.5913 6.19838 19.7562 6.31995 19.8777C6.44152 19.9993 6.60641 20.0676 6.77834 20.0676H10.3715C10.4572 20.0684 10.5422 20.0523 10.6215 20.0201C10.7009 19.9879 10.7731 19.9403 10.834 19.88C10.8948 19.8197 10.9432 19.748 10.9761 19.6689C11.0091 19.5898 11.0261 19.505 11.0261 19.4194C11.0261 19.3337 11.0091 19.2489 10.9761 19.1698C10.9432 19.0908 10.8948 19.019 10.834 18.9588C10.7731 18.8985 10.7009 18.8509 10.6215 18.8187C10.5422 18.7865 10.4572 18.7703 10.3715 18.7711H7.80327C8.07487 18.5138 8.45877 18.2574 8.83544 18.0058C9.85952 17.3221 11.0198 16.5472 11.0198 15.1779Z" stroke="#87AF73" stroke-width="0.509164" mask="url(#path-1-outside-1_88_8644)"/>
<path d="M17.1503 17.3125C17.1502 17.1406 17.0819 16.9758 16.9604 16.8542C16.8388 16.7326 16.6739 16.6643 16.502 16.6643H15.9753V13.2205C15.9753 13.0863 15.9336 12.9553 15.8559 12.8458C15.7783 12.7363 15.6686 12.6535 15.5419 12.609C15.4153 12.5645 15.2779 12.5604 15.1488 12.5973C15.0197 12.6342 14.9053 12.7102 14.8213 12.8149L11.5395 16.9071C11.4632 17.0025 11.4153 17.1174 11.4014 17.2388C11.3876 17.3601 11.4083 17.4829 11.4611 17.593C11.514 17.7031 11.5968 17.7961 11.7002 17.8611C11.8036 17.9262 11.9232 17.9608 12.0453 17.9608H14.6788V19.784C14.678 19.8696 14.6941 19.9546 14.7263 20.034C14.7585 20.1134 14.8062 20.1856 14.8664 20.2464C14.9267 20.3073 14.9985 20.3556 15.0775 20.3886C15.1566 20.4216 15.2414 20.4385 15.327 20.4385C15.4127 20.4385 15.4975 20.4216 15.5766 20.3886C15.6556 20.3556 15.7274 20.3073 15.7876 20.2464C15.8479 20.1856 15.8955 20.1134 15.9277 20.034C15.96 19.9546 15.9761 19.8696 15.9753 19.784V17.9608H16.502C16.6739 17.9608 16.8388 17.8925 16.9604 17.7709C17.082 17.6494 17.1503 17.4845 17.1503 17.3125ZM14.6788 16.6643H13.3965L14.6788 15.0649V16.6643Z" stroke="#87AF73" stroke-width="0.509164" mask="url(#path-1-outside-1_88_8644)"/>
<path d="M20.468 12.2203C20.3845 12.2035 20.2985 12.2032 20.215 12.2197C20.1314 12.2361 20.0519 12.2689 19.981 12.3161C19.9101 12.3634 19.8493 12.4242 19.802 12.495C19.7546 12.5658 19.7217 12.6453 19.7052 12.7288L18.2467 20.0215C18.2129 20.1901 18.2475 20.3652 18.3428 20.5082C18.4382 20.6513 18.5864 20.7506 18.755 20.7844C18.797 20.7927 18.8398 20.797 18.8826 20.797C19.0324 20.7968 19.1774 20.7449 19.2932 20.6499C19.4089 20.5549 19.4882 20.4228 19.5176 20.276L20.9761 12.9833C20.9929 12.8998 20.993 12.8139 20.9766 12.7303C20.9601 12.6468 20.9274 12.5674 20.8802 12.4965C20.833 12.4257 20.7723 12.3648 20.7016 12.3174C20.6309 12.27 20.5515 12.237 20.468 12.2203Z" stroke="#87AF73" stroke-width="0.509164" mask="url(#path-1-outside-1_88_8644)"/>
<path d="M23.7944 20.0679C23.9224 20.0678 24.0476 20.0299 24.1541 19.9589C24.2606 19.8878 24.3437 19.7869 24.393 19.6688L26.8239 13.8346C26.865 13.7361 26.8811 13.6289 26.8709 13.5227C26.8606 13.4165 26.8243 13.3144 26.7651 13.2256C26.7059 13.1368 26.6257 13.0639 26.5316 13.0136C26.4375 12.9632 26.3324 12.9369 26.2256 12.9369H22.9439C22.7731 12.9385 22.6098 13.0076 22.4896 13.129C22.3694 13.2504 22.3019 13.4143 22.3019 13.5851C22.3019 13.756 22.3694 13.9199 22.4896 14.0413C22.6098 14.1627 22.7731 14.2317 22.9439 14.2334H25.2533L23.1965 19.1702C23.1556 19.2687 23.1396 19.3758 23.1499 19.4819C23.1602 19.5881 23.1965 19.6901 23.2557 19.7788C23.3148 19.8676 23.3949 19.9405 23.4888 19.9909C23.5828 20.0414 23.6878 20.0677 23.7944 20.0679Z" stroke="#87AF73" stroke-width="0.509164" mask="url(#path-1-outside-1_88_8644)"/>
</g>
<defs>
<clipPath id="clip0_88_8644">
<rect width="32.4" height="32.4" fill="white" transform="scale(1.01852)"/>
</clipPath>
</defs>
</svg>
