<svg width="33" height="33" viewBox="0 0 33 33" fill="none" xmlns="http://www.w3.org/2000/svg">
<g clip-path="url(#clip0_88_8671)">
<g clip-path="url(#clip1_88_8671)">
<path d="M16.4953 10.9969V17.599H23.0972" stroke="#87AF73" stroke-width="2.025" stroke-miterlimit="10" stroke-linecap="round" stroke-linejoin="round"/>
<path d="M6.55521 28.4599L5.75306 22.0812L12.0162 23.8264" stroke="#87AF73" stroke-width="2.025" stroke-miterlimit="10" stroke-linecap="round" stroke-linejoin="round"/>
<path d="M5.76146 22.0805C7.125 24.7074 9.40368 26.7435 12.1667 27.804C14.9298 28.8645 17.9856 28.8761 20.7565 27.8363C23.5274 26.7965 25.8213 24.7775 27.2046 22.1611C28.5878 19.5446 28.9644 16.5121 28.2633 13.6367C27.5622 10.7614 25.8319 8.24261 23.3995 6.55655C20.9671 4.87051 18.0014 4.13407 15.0629 4.48647C12.1243 4.83887 9.41677 6.2557 7.45207 8.46906C5.48737 10.6824 4.40171 13.5389 4.40033 16.4986" stroke="#87AF73" stroke-width="2.025" stroke-miterlimit="10" stroke-linecap="round" stroke-linejoin="round"/>
</g>
</g>
<defs>
<clipPath id="clip0_88_8671">
<rect width="32.4" height="32.4" fill="white" transform="scale(1.01852)"/>
</clipPath>
<clipPath id="clip1_88_8671">
<rect width="32.4" height="32.4" fill="white" transform="scale(1.01852)"/>
</clipPath>
</defs>
</svg>
