<svg width="33" height="33" viewBox="0 0 33 33" fill="none" xmlns="http://www.w3.org/2000/svg">
<g clip-path="url(#clip0_54_6221)">
<g clip-path="url(#clip1_54_6221)">
<path d="M16.5004 28.6007C23.183 28.6007 28.6004 23.1833 28.6004 16.5006C28.6004 9.81795 23.183 4.40058 16.5004 4.40058C9.81771 4.40058 4.40033 9.81795 4.40033 16.5006C4.40033 23.1833 9.81771 28.6007 16.5004 28.6007Z" stroke="#142E2A" stroke-width="2.025" stroke-linecap="round" stroke-linejoin="round"/>
<path d="M14.079 19.9885C14.0595 20.6404 13.8366 21.2697 13.4418 21.7886C13.047 22.3076 12.4998 22.6901 11.8769 22.8829L8.21947 24.6382C8.06509 24.7031 7.91619 24.7802 7.77418 24.8689" stroke="#142E2A" stroke-width="2.025" stroke-linecap="round" stroke-linejoin="round"/>
<path d="M25.2239 24.8689C25.082 24.7801 24.9331 24.703 24.7786 24.6382L21.1244 22.8829C19.7821 22.1763 18.9222 21.3777 18.9222 19.9885" stroke="#142E2A" stroke-width="2.025" stroke-linecap="round" stroke-linejoin="round"/>
<path d="M16.5003 21.3393C19.6188 21.3393 22.147 18.8112 22.147 15.6926C22.147 12.5741 19.6188 10.046 16.5003 10.046C13.3817 10.046 10.8536 12.5741 10.8536 15.6926C10.8536 18.8112 13.3817 21.3393 16.5003 21.3393Z" stroke="#142E2A" stroke-width="2.025" stroke-linecap="round" stroke-linejoin="round"/>
</g>
</g>
<defs>
<clipPath id="clip0_54_6221">
<rect width="32.4" height="32.4" fill="white" transform="scale(1.01852)"/>
</clipPath>
<clipPath id="clip1_54_6221">
<rect width="32.4" height="32.4" fill="white" transform="scale(1.01852)"/>
</clipPath>
</defs>
</svg>
