<svg width="13" height="13" viewBox="0 0 13 13" fill="none" xmlns="http://www.w3.org/2000/svg">
<g clip-path="url(#clip0_54_6425)">
<path d="M12.1399 5.18083L11.0106 4.04998V3.14803C11.0104 2.73146 10.8449 2.332 10.5505 2.03724C10.2562 1.74249 9.85693 1.57649 9.44036 1.57566H8.53946L7.41018 0.445331C6.81641 -0.148444 5.78216 -0.148444 5.18891 0.445331L4.05963 1.57566H3.15873C2.74212 1.57635 2.3428 1.7423 2.04841 2.03709C1.75401 2.33188 1.5886 2.73142 1.58846 3.14803V4.04998L0.458658 5.18083C0.164896 5.47624 0 5.87591 0 6.29252C0 6.70913 0.164896 7.1088 0.458658 7.40421L1.58793 8.53506V9.43701C1.58821 9.85358 1.75367 10.253 2.04803 10.5478C2.3424 10.8426 2.74164 11.0085 3.15821 11.0094H4.05911L5.18838 12.1397C5.48501 12.4363 5.87981 12.6001 6.29928 12.6001C6.71876 12.6001 7.11303 12.4363 7.40966 12.1397L8.53893 11.0094H9.43983C9.85645 11.0087 10.2558 10.8427 10.5502 10.5479C10.8446 10.2532 11.01 9.85362 11.0101 9.43701V8.53506L12.1399 7.40421C12.4337 7.1088 12.5986 6.70913 12.5986 6.29252C12.5986 5.87591 12.4337 5.47624 12.1399 5.18083ZM9.55586 5.36091L6.90251 7.98328C6.58016 8.30353 6.15543 8.46418 5.73123 8.46418C5.30703 8.46418 4.88441 8.30406 4.56101 7.98486L3.19653 6.67288C3.14755 6.62435 3.1086 6.56664 3.08192 6.50305C3.05524 6.43946 3.04134 6.37124 3.04103 6.30228C3.04071 6.23332 3.05398 6.16498 3.08007 6.10115C3.10617 6.03732 3.14458 5.97925 3.19312 5.93027C3.24166 5.88128 3.29937 5.84234 3.36295 5.81566C3.42654 5.78898 3.49476 5.77508 3.56372 5.77476C3.63268 5.77445 3.70102 5.78771 3.76485 5.81381C3.82868 5.83991 3.88675 5.87832 3.93573 5.92686L5.29968 7.23831C5.41464 7.3518 5.56969 7.41544 5.73123 7.41544C5.89278 7.41544 6.04782 7.3518 6.16278 7.23831L8.81666 4.61541C8.91559 4.51738 9.0494 4.46267 9.18867 4.46331C9.32794 4.46395 9.46125 4.51989 9.55927 4.61882C9.6573 4.71775 9.712 4.85156 9.71136 4.99083C9.71072 5.1301 9.65479 5.26288 9.55586 5.36091Z" fill="#00B67A"/>
</g>
<defs>
<clipPath id="clip0_54_6425">
<rect width="12.6" height="12.6" fill="white"/>
</clipPath>
</defs>
</svg>
