<svg width="13" height="13" viewBox="0 0 13 13" fill="none" xmlns="http://www.w3.org/2000/svg">
<g clip-path="url(#clip0_54_6388)">
<path d="M12.5252 5.34526L11.3601 4.17852V3.24794C11.3598 2.81815 11.1891 2.40601 10.8854 2.1019C10.5817 1.79779 10.1698 1.62652 9.73998 1.62566H8.81048L7.64537 0.459465C7.03275 -0.153155 5.96567 -0.153155 5.35359 0.459465L4.18848 1.62566H3.25898C2.82915 1.62638 2.41716 1.7976 2.11342 2.10174C1.80968 2.40589 1.63902 2.81811 1.63887 3.24794V4.17852L0.473214 5.34526C0.170129 5.65004 0 6.0624 0 6.49223C0 6.92206 0.170129 7.33442 0.473214 7.6392L1.63833 8.80594V9.73652C1.63862 10.1663 1.80933 10.5784 2.11304 10.8826C2.41674 11.1867 2.82865 11.3579 3.25844 11.3588H4.18794L5.35305 12.525C5.65909 12.831 6.06642 13 6.49921 13C6.932 13 7.33879 12.831 7.64483 12.525L8.80994 11.3588H9.73943C10.1693 11.3581 10.5813 11.1869 10.885 10.8827C11.1887 10.5786 11.3594 10.1664 11.3595 9.73652V8.80594L12.5252 7.6392C12.8283 7.33442 12.9984 6.92206 12.9984 6.49223C12.9984 6.0624 12.8283 5.65004 12.5252 5.34526ZM9.85914 5.53105L7.12158 8.23666C6.789 8.56707 6.35079 8.73282 5.91313 8.73282C5.47547 8.73282 5.03943 8.56761 4.70576 8.23828L3.29798 6.88467C3.24745 6.83459 3.20726 6.77505 3.17974 6.70944C3.15221 6.64384 3.13787 6.57345 3.13754 6.5023C3.13722 6.43116 3.15091 6.36064 3.17783 6.29479C3.20475 6.22893 3.24439 6.16902 3.29446 6.11848C3.34454 6.06794 3.40408 6.02776 3.46969 6.00024C3.53529 5.97271 3.60568 5.95837 3.67683 5.95804C3.74797 5.95772 3.81849 5.9714 3.88434 5.99833C3.9502 6.02525 4.01011 6.06489 4.06065 6.11496L5.46788 7.46804C5.58649 7.58514 5.74646 7.6508 5.91313 7.6508C6.0798 7.6508 6.23977 7.58514 6.35838 7.46804L9.09648 4.76189C9.19855 4.66076 9.33661 4.60431 9.4803 4.60497C9.62399 4.60563 9.76153 4.66334 9.86266 4.76541C9.9638 4.86748 10.0202 5.00554 10.0196 5.14923C10.0189 5.29292 9.96121 5.42992 9.85914 5.53105Z" fill="#00B67A"/>
</g>
<defs>
<clipPath id="clip0_54_6388">
<rect width="12.6" height="12.6" fill="white" transform="scale(1.03174)"/>
</clipPath>
</defs>
</svg>
