<svg width="18" height="18" viewBox="0 0 18 18" fill="none" xmlns="http://www.w3.org/2000/svg">
<path fill-rule="evenodd" clip-rule="evenodd" d="M2.93833 6.55976C3.96934 4.2265 6.28172 2.60265 8.99414 2.60265C10.7592 2.60265 12.452 3.30381 13.7 4.55189C14.9481 5.79997 15.6493 7.49273 15.6493 9.25778C15.6493 11.0228 14.9481 12.7156 13.7 13.9637C12.452 15.2118 10.7592 15.9129 8.99414 15.9129C8.85103 15.9129 8.71378 15.9698 8.61258 16.071C8.51139 16.1722 8.45454 16.3094 8.45454 16.4525C8.45454 16.5956 8.51139 16.7329 8.61258 16.8341C8.71378 16.9353 8.85103 16.9921 8.99414 16.9921C13.2657 16.9921 16.7285 13.5293 16.7285 9.25778C16.7285 4.98627 13.2657 1.52344 8.99414 1.52344C5.52772 1.52344 2.62896 3.80273 1.644 6.93748C1.61857 7.01833 1.61254 7.10404 1.62641 7.18765C1.64028 7.27127 1.67365 7.35044 1.72382 7.41876C1.77399 7.48707 1.83954 7.54261 1.91517 7.58087C1.9908 7.61912 2.07438 7.63903 2.15914 7.63897H3.95782C4.10094 7.63897 4.23819 7.58212 4.33938 7.48092C4.44058 7.37972 4.49743 7.24247 4.49743 7.09936C4.49743 6.95625 4.44058 6.819 4.33938 6.7178C4.23819 6.61661 4.10094 6.55976 3.95782 6.55976H2.93833Z" fill="white"/>
<path fill-rule="evenodd" clip-rule="evenodd" d="M8.99411 5.84375C9.13722 5.84375 9.27448 5.9006 9.37567 6.0018C9.47687 6.10299 9.53372 6.24024 9.53372 6.38336V9.03821L10.8144 10.3189C10.8674 10.3683 10.9099 10.4279 10.9394 10.494C10.9689 10.5602 10.9848 10.6317 10.986 10.7041C10.9873 10.7766 10.974 10.8486 10.9469 10.9158C10.9197 10.9829 10.8793 11.044 10.8281 11.0952C10.7768 11.1465 10.7158 11.1869 10.6486 11.214C10.5814 11.2411 10.5095 11.2545 10.437 11.2532C10.3645 11.2519 10.2931 11.236 10.2269 11.2066C10.1607 11.1771 10.1011 11.1345 10.0517 11.0815L8.61279 9.64257C8.51157 9.54147 8.45463 9.40432 8.45451 9.26125V6.38336C8.45451 6.24024 8.51136 6.10299 8.61255 6.0018C8.71375 5.9006 8.851 5.84375 8.99411 5.84375ZM1.79937 8.72165C1.94248 8.72165 2.07973 8.7785 2.18093 8.87969C2.28213 8.98089 2.33898 9.11814 2.33898 9.26125C2.33898 9.48789 2.34905 9.71164 2.36919 9.93252C2.38207 10.0751 2.3378 10.2169 2.24612 10.3268C2.15444 10.4367 2.02285 10.5057 1.88031 10.5185C1.73777 10.5314 1.59595 10.4871 1.48606 10.3955C1.37616 10.3038 1.30718 10.1722 1.2943 10.0297C1.27125 9.77417 1.25973 9.51777 1.25977 9.26125C1.25977 9.11814 1.31662 8.98089 1.41781 8.87969C1.51901 8.7785 1.65626 8.72165 1.79937 8.72165ZM2.10875 11.5233C2.17511 11.4982 2.24577 11.4865 2.31667 11.4888C2.38758 11.4911 2.45734 11.5073 2.52196 11.5366C2.58658 11.5658 2.64479 11.6076 2.69327 11.6594C2.74175 11.7112 2.77954 11.772 2.80448 11.8384C2.90448 12.1046 3.0196 12.3615 3.14839 12.6104C3.18373 12.6735 3.20602 12.7431 3.21394 12.815C3.22186 12.8869 3.21525 12.9596 3.1945 13.0289C3.17375 13.0982 3.13928 13.1626 3.09314 13.2183C3.04701 13.274 2.99014 13.3198 2.92593 13.3531C2.86172 13.3864 2.79147 13.4065 2.71936 13.4121C2.64725 13.4177 2.57475 13.4087 2.50617 13.3857C2.43759 13.3628 2.37433 13.3262 2.32015 13.2783C2.26596 13.2304 2.22197 13.1721 2.19077 13.1068C2.04183 12.8212 1.91017 12.5241 1.79505 12.219C1.74464 12.0851 1.74944 11.9367 1.8084 11.8064C1.86735 11.6761 1.97564 11.5745 2.10946 11.524L2.10875 11.5233ZM3.46927 14.1227C3.52123 14.0745 3.58218 14.0371 3.64863 14.0124C3.71508 13.9878 3.78573 13.9765 3.85655 13.9792C3.92737 13.9818 3.99697 13.9984 4.06138 14.028C4.12578 14.0576 4.18373 14.0995 4.23191 14.1515C4.43552 14.371 4.65352 14.576 4.88304 14.7667C4.99202 14.8583 5.06033 14.9894 5.07309 15.1312C5.08586 15.2731 5.04203 15.4142 4.95117 15.5239C4.86031 15.6335 4.72978 15.7028 4.58804 15.7166C4.4463 15.7305 4.30484 15.6877 4.1945 15.5977C3.92808 15.377 3.67644 15.139 3.44121 14.8854C3.39297 14.8335 3.35544 14.7726 3.33074 14.7061C3.30604 14.6397 3.29468 14.5691 3.29728 14.4982C3.29989 14.4274 3.31642 14.3578 3.34593 14.2934C3.37544 14.229 3.41735 14.171 3.46927 14.1227ZM5.62553 15.9495C5.68507 15.8193 5.79387 15.7182 5.92798 15.6683C6.0621 15.6183 6.21055 15.6237 6.34069 15.6833C6.55653 15.7818 6.77813 15.8689 7.00405 15.9437C7.0738 15.9638 7.13879 15.9977 7.19514 16.0434C7.25148 16.0892 7.29802 16.1458 7.33196 16.21C7.36591 16.2741 7.38657 16.3444 7.3927 16.4168C7.39883 16.4891 7.39031 16.5619 7.36765 16.6308C7.34499 16.6998 7.30866 16.7634 7.26082 16.818C7.21299 16.8726 7.15463 16.917 7.08925 16.9485C7.02387 16.98 6.9528 16.998 6.88031 17.0014C6.80781 17.0048 6.73538 16.9935 6.66733 16.9683C6.40337 16.8815 6.14444 16.7802 5.89174 16.6646C5.76161 16.6051 5.66045 16.4963 5.61053 16.3622C5.56061 16.2281 5.566 16.0796 5.62553 15.9495Z" fill="white"/>
</svg>
