<svg width="37" height="41" viewBox="0 0 37 41" fill="none" xmlns="http://www.w3.org/2000/svg">
<path d="M34 39C34.4243 39 34.8313 38.8314 35.1314 38.5314C35.4314 38.2313 35.6 37.8243 35.6 37.4V35.4064C35.6064 30.9168 29.2416 27.4 22.8 27.4C16.3584 27.4 10 30.9168 10 35.4064V37.4C10 37.8243 10.1686 38.2313 10.4686 38.5314C10.7687 38.8314 11.1757 39 11.6 39H34ZM28.5664 16.7664C28.5664 17.5237 28.4172 18.2735 28.1275 18.9731C27.8377 19.6727 27.4129 20.3084 26.8775 20.8439C26.342 21.3793 25.7063 21.8041 25.0067 22.0939C24.3071 22.3836 23.5573 22.5328 22.8 22.5328C22.0427 22.5328 21.2929 22.3836 20.5933 22.0939C19.8937 21.8041 19.258 21.3793 18.7225 20.8439C18.1871 20.3084 17.7623 19.6727 17.4725 18.9731C17.1828 18.2735 17.0336 17.5237 17.0336 16.7664C17.0336 15.2371 17.6411 13.7703 18.7225 12.6889C19.8039 11.6075 21.2707 11 22.8 11C24.3293 11 25.7961 11.6075 26.8775 12.6889C27.9589 13.7703 28.5664 15.2371 28.5664 16.7664Z" stroke="#142E2A" stroke-width="2.4" stroke-linecap="round" stroke-linejoin="round"/>
</svg>
