<svg width="87" height="17" viewBox="0 0 87 17" fill="none" xmlns="http://www.w3.org/2000/svg">
<path d="M0.0315723 16.281H16.0727V0H0.0315723V16.281Z" fill="#00B67A"/>
<path d="M13.7087 6.92653L4.61034 13.6347L5.93796 9.48883L2.46264 6.92653H6.75831L8.08565 2.78034L9.413 6.92653H13.7087ZM8.08598 11.0727L10.5708 10.5423L11.5607 13.6347L8.08598 11.0727Z" fill="white"/>
<path d="M17.7594 16.281H33.8005V0H17.7594V16.281Z" fill="#00B67A"/>
<path d="M17.7594 16.281H25.78V0H17.7594V16.281Z" fill="#00B67A"/>
<path d="M25.9729 11.0104L28.1036 10.543L29.0891 13.7057L25.7476 11.1746L22.2759 13.7057L23.6234 9.54476L20.0958 6.97316H24.456L25.8029 2.81191L27.1504 6.97316H31.5103L25.9729 11.0104Z" fill="white"/>
<path d="M35.5031 16.281H51.5442V0H35.5031V16.281Z" fill="#00B67A"/>
<path d="M35.5031 16.281H43.5236V0H35.5031V16.281Z" fill="#00B67A"/>
<path d="M49.1802 6.92654L40.0818 13.6347L41.4095 9.48883L37.9341 6.92654H42.2298L43.5572 2.78034L44.8845 6.92654L49.1802 6.92654ZM43.5575 11.0727L46.0423 10.5423L47.0323 13.6347L43.5575 11.0727Z" fill="white"/>
<path d="M53.2386 16.281H69.2797V0H53.2386V16.281Z" fill="#00B67A"/>
<path d="M53.2386 16.281H61.2591V0H53.2386V16.281Z" fill="#00B67A"/>
<path d="M66.908 6.92654L57.81 13.6347L59.1373 9.48883L55.662 6.92654H59.9577L61.285 2.78034L62.6124 6.92654L66.908 6.92654ZM61.2853 11.0727L63.7701 10.5423L64.7601 13.6347L61.2853 11.0727Z" fill="white"/>
<path d="M70.9588 16.281H86.9999V0H70.9588V16.281Z" fill="#00B67A"/>
<path d="M70.9588 16.281H78.9793V0H70.9588V16.281Z" fill="#00B67A"/>
<path d="M84.6359 6.92653L75.5378 13.6347L76.8652 9.48883L73.3899 6.92653H77.6855L79.0129 2.78034L80.3402 6.92653H84.6359ZM79.0132 11.0727L81.498 10.5423L82.488 13.6347L79.0132 11.0727Z" fill="white"/>
</svg>
