<svg width="175" height="20" viewBox="0 0 175 20" fill="none" xmlns="http://www.w3.org/2000/svg">
<path d="M23.1244 7.05927H31.2523V8.56718H28.0564V17.0439H26.299V8.56718H23.1173V7.05927H23.1244ZM30.905 9.81439H32.4073V11.2096H32.4357C32.4853 11.0123 32.5774 10.822 32.712 10.6388C32.8467 10.4556 33.0096 10.2794 33.201 10.1315C33.3923 9.97645 33.6049 9.85667 33.8387 9.75802C34.0726 9.66641 34.3135 9.61709 34.5544 9.61709C34.7387 9.61709 34.8733 9.62414 34.9442 9.63118C35.015 9.63823 35.0859 9.65232 35.1638 9.65937V11.1955C35.0505 11.1743 34.9371 11.1602 34.8166 11.1461C34.6962 11.1321 34.5828 11.125 34.4694 11.125C34.2001 11.125 33.945 11.1814 33.7041 11.2871C33.4632 11.3928 33.2577 11.5548 33.0805 11.7592C32.9033 11.9706 32.7616 12.2242 32.6553 12.5343C32.549 12.8443 32.4994 13.1966 32.4994 13.5983V17.0369H30.898V9.81439L30.905 9.81439ZM42.5264 17.0439H40.9533V16.0363H40.9249C40.7265 16.4027 40.436 16.6916 40.0462 16.9101C39.6565 17.1285 39.2597 17.2412 38.8557 17.2412C37.8991 17.2412 37.2047 17.0087 36.7795 16.5366C36.3543 16.0645 36.1417 15.3528 36.1417 14.4016V9.81439H37.7432V14.2465C37.7432 14.8807 37.8637 15.3317 38.1117 15.5924C38.3526 15.8531 38.6998 15.987 39.1392 15.987C39.4793 15.987 39.7557 15.9377 39.9824 15.832C40.2092 15.7263 40.3934 15.5924 40.5281 15.4162C40.6698 15.2471 40.769 15.0357 40.8328 14.7962C40.8966 14.5566 40.9249 14.2959 40.9249 14.014V9.82143H42.5264V17.0439ZM45.2546 14.7257C45.3042 15.1908 45.4813 15.5149 45.786 15.7051C46.0978 15.8883 46.4663 15.987 46.8986 15.987C47.0474 15.987 47.2174 15.9729 47.4088 15.9518C47.6001 15.9306 47.7843 15.8813 47.9473 15.8179C48.1174 15.7545 48.252 15.6558 48.3654 15.529C48.4717 15.4021 48.5213 15.2401 48.5142 15.0357C48.5071 14.8314 48.4292 14.6623 48.2875 14.5354C48.1457 14.4016 47.9686 14.3029 47.7489 14.2184C47.5292 14.1408 47.2812 14.0704 46.9978 14.014C46.7143 13.9576 46.4309 13.8942 46.1403 13.8308C45.8427 13.7674 45.5522 13.6828 45.2758 13.5912C44.9995 13.4996 44.7514 13.3728 44.5318 13.2107C44.3121 13.0557 44.135 12.8514 44.0074 12.6047C43.8728 12.3581 43.809 12.0551 43.809 11.6887C43.809 11.2941 43.9082 10.97 44.0995 10.7022C44.2908 10.4345 44.5389 10.2231 44.8294 10.061C45.127 9.89894 45.453 9.7862 45.8144 9.71574C46.1758 9.65232 46.523 9.61709 46.849 9.61709C47.2245 9.61709 47.5859 9.65937 47.9261 9.73688C48.2662 9.81439 48.578 9.94122 48.8543 10.1244C49.1307 10.3006 49.3575 10.5331 49.5417 10.815C49.7259 11.0968 49.8393 11.4421 49.8889 11.8437H48.2166C48.1386 11.4632 47.9686 11.2025 47.6922 11.0757C47.4159 10.9418 47.097 10.8784 46.7427 10.8784C46.6293 10.8784 46.4946 10.8854 46.3388 10.9066C46.1829 10.9277 46.0411 10.9629 45.8994 11.0123C45.7648 11.0616 45.6514 11.1391 45.5522 11.2378C45.4601 11.3364 45.4105 11.4632 45.4105 11.6253C45.4105 11.8226 45.4813 11.9776 45.616 12.0974C45.7506 12.2172 45.9278 12.3158 46.1474 12.4004C46.3671 12.4779 46.6151 12.5484 46.8986 12.6047C47.182 12.6611 47.4725 12.7245 47.7702 12.7879C48.0607 12.8514 48.3441 12.9359 48.6276 13.0275C48.911 13.1191 49.1591 13.246 49.3787 13.408C49.5984 13.5701 49.7756 13.7674 49.9102 14.007C50.0448 14.2465 50.1157 14.5495 50.1157 14.9019C50.1157 15.3317 50.0165 15.691 49.8181 15.994C49.6197 16.29 49.3646 16.5366 49.0528 16.7198C48.741 16.903 48.3867 17.0439 48.004 17.1285C47.6214 17.2131 47.2387 17.2553 46.8631 17.2553C46.4025 17.2553 45.9774 17.206 45.5876 17.1003C45.1979 16.9946 44.8577 16.8396 44.5743 16.6353C44.2908 16.4239 44.0641 16.1631 43.9011 15.8531C43.7381 15.5431 43.6531 15.1696 43.6389 14.7398H45.2546V14.7257ZM50.5409 9.81439H51.7526V7.64411H53.3541V9.81439H54.7997V11.0052H53.3541V14.8666C53.3541 15.0357 53.3612 15.1767 53.3753 15.3035C53.3895 15.4233 53.4249 15.529 53.4745 15.6135C53.5241 15.6981 53.6021 15.7615 53.7084 15.8038C53.8147 15.8461 53.9493 15.8672 54.1336 15.8672C54.2469 15.8672 54.3603 15.8672 54.4737 15.8602C54.5871 15.8531 54.7004 15.839 54.8138 15.8108V17.0439C54.6367 17.0651 54.4595 17.0792 54.2965 17.1003C54.1265 17.1215 53.9564 17.1285 53.7792 17.1285C53.3541 17.1285 53.0139 17.0862 52.7588 17.0087C52.5037 16.9312 52.2982 16.8114 52.1565 16.6564C52.0077 16.5014 51.9156 16.3111 51.8589 16.0786C51.8093 15.8461 51.7739 15.5783 51.7668 15.2824V11.0193H50.555V9.81439H50.5409ZM55.9335 9.81439H57.4499V10.7938H57.4782C57.705 10.371 58.0168 10.0751 58.4207 9.8919C58.8246 9.70869 59.2569 9.61709 59.7316 9.61709C60.3056 9.61709 60.8017 9.71574 61.2268 9.92008C61.652 10.1174 62.0063 10.3922 62.2898 10.7445C62.5732 11.0968 62.7787 11.5055 62.9204 11.9706C63.0621 12.4356 63.133 12.9359 63.133 13.4644C63.133 13.9506 63.0692 14.4227 62.9417 14.8737C62.8141 15.3317 62.6228 15.7333 62.3677 16.0856C62.1126 16.438 61.7866 16.7128 61.3898 16.9242C60.993 17.1355 60.5324 17.2412 59.9938 17.2412C59.76 17.2412 59.5261 17.2201 59.2923 17.1778C59.0585 17.1355 58.8317 17.0651 58.6191 16.9735C58.4065 16.8819 58.201 16.7621 58.0239 16.6141C57.8396 16.4661 57.6908 16.297 57.5633 16.1068H57.5349V19.7145H55.9335V9.81439ZM61.5315 13.4362C61.5315 13.1121 61.489 12.795 61.404 12.485C61.3189 12.1749 61.1914 11.9072 61.0213 11.6676C60.8513 11.428 60.6387 11.2378 60.3907 11.0968C60.1356 10.9559 59.845 10.8784 59.5191 10.8784C58.8459 10.8784 58.3357 11.1109 57.9955 11.576C57.6554 12.041 57.4853 12.6611 57.4853 13.4362C57.4853 13.8026 57.5278 14.1408 57.62 14.4509C57.7121 14.7609 57.8396 15.0287 58.0239 15.2542C58.201 15.4797 58.4136 15.6558 58.6616 15.7826C58.9096 15.9165 59.2002 15.9799 59.5261 15.9799C59.8946 15.9799 60.1993 15.9024 60.4544 15.7545C60.7095 15.6065 60.915 15.4092 61.078 15.1767C61.241 14.9371 61.3615 14.6693 61.4323 14.3663C61.4961 14.0633 61.5315 13.7533 61.5315 13.4362ZM64.3589 7.05927H65.9604V8.56718H64.3589V7.05927ZM64.3589 9.81439H65.9604V17.0439H64.3589V9.81439ZM67.3918 7.05927H68.9933V17.0439H67.3918V7.05927ZM73.904 17.2412C73.3229 17.2412 72.8057 17.1426 72.3521 16.9523C71.8986 16.7621 71.516 16.4943 71.1971 16.1631C70.8853 15.8249 70.6444 15.4233 70.4814 14.9582C70.3184 14.4932 70.2334 13.9788 70.2334 13.4221C70.2334 12.8725 70.3184 12.3652 70.4814 11.9001C70.6444 11.435 70.8853 11.0334 71.1971 10.6952C71.5089 10.357 71.8986 10.0962 72.3521 9.90599C72.8057 9.71574 73.3229 9.61709 73.904 9.61709C74.4851 9.61709 75.0024 9.71574 75.4559 9.90599C75.9094 10.0962 76.2921 10.364 76.6109 10.6952C76.9227 11.0334 77.1637 11.435 77.3266 11.9001C77.4896 12.3652 77.5747 12.8725 77.5747 13.4221C77.5747 13.9788 77.4896 14.4932 77.3266 14.9582C77.1637 15.4233 76.9227 15.8249 76.6109 16.1631C76.2991 16.5014 75.9094 16.7621 75.4559 16.9523C75.0024 17.1426 74.4851 17.2412 73.904 17.2412ZM73.904 15.9799C74.2583 15.9799 74.5701 15.9024 74.8323 15.7545C75.0945 15.6065 75.3071 15.4092 75.4771 15.1696C75.6472 14.93 75.7677 14.6552 75.8527 14.3522C75.9307 14.0492 75.9732 13.7392 75.9732 13.4221C75.9732 13.1121 75.9307 12.8091 75.8527 12.499C75.7748 12.189 75.6472 11.9212 75.4771 11.6817C75.3071 11.4421 75.0945 11.2518 74.8323 11.1039C74.5701 10.9559 74.2583 10.8784 73.904 10.8784C73.5497 10.8784 73.2379 10.9559 72.9757 11.1039C72.7135 11.2518 72.5009 11.4491 72.3309 11.6817C72.1608 11.9212 72.0403 12.189 71.9553 12.499C71.8774 12.8091 71.8349 13.1121 71.8349 13.4221C71.8349 13.7392 71.8774 14.0492 71.9553 14.3522C72.0333 14.6552 72.1608 14.93 72.3309 15.1696C72.5009 15.4092 72.7135 15.6065 72.9757 15.7545C73.2379 15.9095 73.5497 15.9799 73.904 15.9799ZM78.0423 9.81439H79.2541V7.64411H80.8556V9.81439H82.3011V11.0052H80.8556V14.8666C80.8556 15.0357 80.8626 15.1767 80.8768 15.3035C80.891 15.4233 80.9264 15.529 80.976 15.6135C81.0256 15.6981 81.1036 15.7615 81.2099 15.8038C81.3162 15.8461 81.4508 15.8672 81.635 15.8672C81.7484 15.8672 81.8618 15.8672 81.9752 15.8602C82.0886 15.8531 82.2019 15.839 82.3153 15.8108V17.0439C82.1382 17.0651 81.961 17.0792 81.798 17.1003C81.628 17.1215 81.4579 17.1285 81.2807 17.1285C80.8556 17.1285 80.5154 17.0862 80.2603 17.0087C80.0052 16.9312 79.7997 16.8114 79.658 16.6564C79.5092 16.5014 79.4171 16.3111 79.3604 16.0786C79.3108 15.8461 79.2753 15.5783 79.2683 15.2824V11.0193H78.0565V9.81439L78.0423 9.81439Z" fill="white"/>
<path d="M19.2484 7.9528H11.9071L9.63951 1.0051L7.36484 7.9528L0.0235571 7.94575L5.96887 12.244L3.6942 19.1847L9.63951 14.8935L15.5777 19.1847L13.3102 12.244L19.2484 7.9528Z" fill="#00B67A"/>
<path d="M13.8157 13.8151L13.3055 12.2438L9.63484 14.8932L13.8157 13.8151Z" fill="#142E2A"/>
<path d="M88.4803 18.0423H104.439V1.8453H88.4803V18.0423Z" fill="#00B67A"/>
<path d="M102.087 8.7361L93.0355 15.4097L94.3562 11.2852L90.8988 8.7361H95.1723L96.4928 4.61129L97.8133 8.7361H102.087ZM96.4932 12.8609L98.9651 12.3332L99.95 15.4097L96.4932 12.8609Z" fill="white"/>
<path d="M106.117 18.0423H122.075V1.8453H106.117V18.0423Z" fill="#00B67A"/>
<path d="M106.117 18.0423H114.096V1.8453H106.117V18.0423Z" fill="#00B67A"/>
<path d="M114.288 12.7988L116.407 12.3339L117.388 15.4803L114.064 12.9622L110.61 15.4803L111.95 11.3408L108.441 8.78249H112.779L114.119 4.6427L115.459 8.78249H119.797L114.288 12.7988Z" fill="white"/>
<path d="M123.769 18.0423H139.727V1.8453H123.769V18.0423Z" fill="#00B67A"/>
<path d="M123.769 18.0423H131.748V1.8453H123.769V18.0423Z" fill="#00B67A"/>
<path d="M137.375 8.7361L128.324 15.4097L129.645 11.2852L126.187 8.7361H130.461L131.781 4.61129L133.102 8.7361L137.375 8.7361ZM131.782 12.8609L134.254 12.3332L135.238 15.4097L131.782 12.8609Z" fill="white"/>
<path d="M141.413 18.0423H157.371V1.8453H141.413V18.0423Z" fill="#00B67A"/>
<path d="M141.413 18.0423H149.392V1.8453H141.413V18.0423Z" fill="#00B67A"/>
<path d="M155.012 8.7361L145.961 15.4097L147.281 11.2852L143.824 8.7361H148.097L149.418 4.61129L150.738 8.7361L155.012 8.7361ZM149.418 12.8609L151.89 12.3332L152.875 15.4097L149.418 12.8609Z" fill="white"/>
<path d="M159.042 18.0423H175V1.8453H159.042V18.0423Z" fill="#00B67A"/>
<path d="M159.042 18.0423H167.021V1.8453H159.042V18.0423Z" fill="#00B67A"/>
<path d="M172.648 8.7361L163.597 15.4097L164.917 11.2852L161.46 8.7361H165.734L167.054 4.61129L168.375 8.7361H172.648ZM167.054 12.8609L169.526 12.3332L170.511 15.4097L167.054 12.8609Z" fill="white"/>
</svg>
