<svg width="82" height="20" viewBox="0 0 82 20" fill="none" xmlns="http://www.w3.org/2000/svg">
<path d="M23.0359 7.03223H31.1326V8.53438H27.949V16.9787H26.1983V8.53438H23.0288V7.03223H23.0359ZM30.7867 9.7768H32.2832V11.1666H32.3114C32.3609 10.9701 32.4526 10.7806 32.5867 10.5981C32.7209 10.4156 32.8832 10.2401 33.0738 10.0927C33.2644 9.93825 33.4762 9.81892 33.7091 9.72065C33.9421 9.6294 34.1821 9.58026 34.4221 9.58026C34.6056 9.58026 34.7398 9.58728 34.8103 9.5943C34.8809 9.60132 34.9515 9.61536 35.0292 9.62238V11.1526C34.9162 11.1315 34.8033 11.1175 34.6833 11.1035C34.5633 11.0894 34.4503 11.0824 34.3374 11.0824C34.0691 11.0824 33.815 11.1386 33.575 11.2438C33.335 11.3491 33.1303 11.5106 32.9538 11.7141C32.7773 11.9247 32.6362 12.1774 32.5303 12.4863C32.4244 12.7951 32.375 13.1461 32.375 13.5462V16.9716H30.7796V9.7768L30.7867 9.7768ZM42.3635 16.9787H40.7964V15.9749H40.7682C40.5705 16.3399 40.2811 16.6277 39.8929 16.8453C39.5046 17.0629 39.1093 17.1752 38.7069 17.1752C37.754 17.1752 37.0622 16.9436 36.6386 16.4733C36.2151 16.003 36.0033 15.294 36.0033 14.3464V9.7768H37.5987V14.192C37.5987 14.8237 37.7187 15.273 37.9657 15.5327C38.2057 15.7924 38.5516 15.9258 38.9893 15.9258C39.3281 15.9258 39.6034 15.8766 39.8293 15.7713C40.0552 15.666 40.2388 15.5327 40.3729 15.3572C40.5141 15.1887 40.6129 14.9782 40.6764 14.7395C40.7399 14.5008 40.7682 14.2411 40.7682 13.9603V9.78382H42.3635V16.9787ZM45.0813 14.6693C45.1307 15.1326 45.3071 15.4555 45.6107 15.645C45.9213 15.8275 46.2884 15.9258 46.719 15.9258C46.8672 15.9258 47.0366 15.9117 47.2272 15.8907C47.4178 15.8696 47.6013 15.8205 47.7637 15.7573C47.9331 15.6941 48.0672 15.5959 48.1802 15.4695C48.2861 15.3432 48.3355 15.1817 48.3284 14.9782C48.3214 14.7746 48.2437 14.6061 48.1025 14.4798C47.9614 14.3464 47.7849 14.2481 47.566 14.1639C47.3472 14.0867 47.1001 14.0165 46.8178 13.9603C46.5354 13.9042 46.2531 13.841 45.9636 13.7778C45.6672 13.7147 45.3777 13.6304 45.1024 13.5392C44.8271 13.4479 44.5801 13.3216 44.3612 13.1601C44.1424 13.0057 43.9659 12.8021 43.8389 12.5565C43.7047 12.3108 43.6412 12.009 43.6412 11.644C43.6412 11.2509 43.74 10.928 43.9306 10.6612C44.1212 10.3945 44.3683 10.1839 44.6577 10.0225C44.9542 9.86104 45.2789 9.74872 45.6389 9.67853C45.9989 9.61536 46.3448 9.58026 46.6695 9.58026C47.0437 9.58026 47.4037 9.62238 47.7425 9.69959C48.0814 9.7768 48.392 9.90315 48.6673 10.0857C48.9426 10.2611 49.1684 10.4928 49.352 10.7736C49.5355 11.0543 49.6485 11.3983 49.6979 11.7984H48.0319C47.9543 11.4193 47.7849 11.1596 47.5096 11.0333C47.2343 10.8999 46.9166 10.8367 46.5637 10.8367C46.4507 10.8367 46.3166 10.8437 46.1613 10.8648C46.006 10.8859 45.8648 10.921 45.7236 10.9701C45.5895 11.0192 45.4766 11.0964 45.3777 11.1947C45.286 11.293 45.2366 11.4193 45.2366 11.5808C45.2366 11.7773 45.3071 11.9317 45.4413 12.0511C45.5754 12.1704 45.7519 12.2687 45.9707 12.3529C46.1895 12.4301 46.4366 12.5003 46.719 12.5565C47.0013 12.6126 47.2907 12.6758 47.5872 12.739C47.8766 12.8021 48.159 12.8864 48.4414 12.9776C48.7237 13.0689 48.9708 13.1952 49.1896 13.3567C49.4085 13.5181 49.5849 13.7147 49.7191 13.9533C49.8532 14.192 49.9238 14.4938 49.9238 14.8448C49.9238 15.273 49.8249 15.631 49.6273 15.9328C49.4296 16.2276 49.1755 16.4733 48.8649 16.6558C48.5543 16.8383 48.2014 16.9787 47.8202 17.0629C47.439 17.1471 47.0578 17.1892 46.6837 17.1892C46.2248 17.1892 45.8013 17.1401 45.413 17.0348C45.0248 16.9295 44.686 16.7751 44.4036 16.5715C44.1212 16.361 43.8953 16.1012 43.733 15.7924C43.5706 15.4835 43.4859 15.1115 43.4718 14.6833H45.0813V14.6693ZM50.3473 9.7768H51.5544V7.61484H53.1497V9.7768H54.5898V10.9631H53.1497V14.8097C53.1497 14.9782 53.1568 15.1185 53.1709 15.2449C53.185 15.3642 53.2203 15.4695 53.2698 15.5537C53.3192 15.638 53.3968 15.7011 53.5027 15.7433C53.6086 15.7854 53.7427 15.8064 53.9262 15.8064C54.0392 15.8064 54.1521 15.8064 54.2651 15.7994C54.378 15.7924 54.491 15.7784 54.6039 15.7503V16.9787C54.4274 16.9997 54.251 17.0138 54.0886 17.0348C53.9192 17.0559 53.7498 17.0629 53.5733 17.0629C53.1498 17.0629 52.8109 17.0208 52.5568 16.9436C52.3027 16.8664 52.098 16.747 51.9568 16.5926C51.8085 16.4382 51.7168 16.2487 51.6603 16.017C51.6109 15.7854 51.5756 15.5186 51.5685 15.2238V10.9771H50.3614V9.7768H50.3473ZM55.7192 9.7768H57.2299V10.7525H57.2581C57.484 10.3313 57.7946 10.0365 58.197 9.85401C58.5993 9.67151 59.0299 9.58026 59.5029 9.58026C60.0747 9.58026 60.5688 9.67853 60.9923 9.88209C61.4159 10.0786 61.7688 10.3524 62.0512 10.7034C62.3336 11.0543 62.5383 11.4614 62.6795 11.9247C62.8206 12.388 62.8912 12.8864 62.8912 13.4128C62.8912 13.8972 62.8277 14.3675 62.7006 14.8167C62.5736 15.273 62.383 15.6731 62.1289 16.024C61.8747 16.375 61.55 16.6488 61.1547 16.8593C60.7594 17.0699 60.3006 17.1752 59.7641 17.1752C59.5311 17.1752 59.2982 17.1542 59.0652 17.112C58.8323 17.0699 58.6064 16.9997 58.3946 16.9085C58.1828 16.8172 57.9781 16.6979 57.8017 16.5505C57.6181 16.4031 57.4699 16.2346 57.3428 16.0451H57.3146V19.639H55.7192V9.7768ZM61.2959 13.3848C61.2959 13.0619 61.2535 12.746 61.1688 12.4371C61.0841 12.1283 60.9571 11.8616 60.7876 11.6229C60.6182 11.3842 60.4065 11.1947 60.1594 11.0543C59.9053 10.9139 59.6158 10.8367 59.2911 10.8367C58.6205 10.8367 58.1123 11.0684 57.7734 11.5316C57.4346 11.9949 57.2652 12.6126 57.2652 13.3848C57.2652 13.7498 57.3075 14.0867 57.3993 14.3955C57.4911 14.7044 57.6181 14.9711 57.8017 15.1958C57.9781 15.4204 58.1899 15.5959 58.437 15.7222C58.684 15.8556 58.9735 15.9187 59.2982 15.9187C59.6653 15.9187 59.9688 15.8415 60.2229 15.6941C60.477 15.5467 60.6818 15.3502 60.8441 15.1185C61.0065 14.8799 61.1265 14.6131 61.1971 14.3113C61.2606 14.0095 61.2959 13.7006 61.2959 13.3848ZM64.1125 7.03223H65.7078V8.53438H64.1125V7.03223ZM64.1125 9.7768H65.7078V16.9787H64.1125V9.7768ZM67.1337 7.03223H68.7291V16.9787H67.1337V7.03223ZM73.621 17.1752C73.0421 17.1752 72.5268 17.0769 72.0751 16.8874C71.6233 16.6979 71.2421 16.4312 70.9244 16.1012C70.6138 15.7643 70.3738 15.3642 70.2115 14.9009C70.0491 14.4377 69.9644 13.9252 69.9644 13.3707C69.9644 12.8232 70.0491 12.3178 70.2115 11.8545C70.3738 11.3913 70.6138 10.9912 70.9244 10.6542C71.235 10.3173 71.6233 10.0576 72.0751 9.86805C72.5268 9.67853 73.0421 9.58026 73.621 9.58026C74.1998 9.58026 74.7151 9.67853 75.1669 9.86805C75.6187 10.0576 75.9999 10.3243 76.3175 10.6542C76.6281 10.9912 76.8681 11.3913 77.0305 11.8545C77.1929 12.3178 77.2776 12.8232 77.2776 13.3707C77.2776 13.9252 77.1929 14.4377 77.0305 14.9009C76.8681 15.3642 76.6281 15.7643 76.3175 16.1012C76.0069 16.4382 75.6187 16.6979 75.1669 16.8874C74.7151 17.0769 74.1998 17.1752 73.621 17.1752ZM73.621 15.9187C73.9739 15.9187 74.2845 15.8415 74.5457 15.6941C74.8069 15.5467 75.0187 15.3502 75.1881 15.1115C75.3575 14.8729 75.4775 14.5991 75.5622 14.2973C75.6399 13.9954 75.6822 13.6866 75.6822 13.3707C75.6822 13.0619 75.6399 12.76 75.5622 12.4512C75.4846 12.1423 75.3575 11.8756 75.1881 11.6369C75.0187 11.3983 74.8069 11.2088 74.5457 11.0613C74.2845 10.9139 73.9739 10.8367 73.621 10.8367C73.268 10.8367 72.9574 10.9139 72.6963 11.0613C72.4351 11.2088 72.2233 11.4053 72.0539 11.6369C71.8845 11.8756 71.7645 12.1423 71.6797 12.4512C71.6021 12.76 71.5597 13.0619 71.5597 13.3707C71.5597 13.6866 71.6021 13.9954 71.6797 14.2973C71.7574 14.5991 71.8845 14.8729 72.0539 15.1115C72.2233 15.3502 72.4351 15.5467 72.6963 15.6941C72.9574 15.8486 73.268 15.9187 73.621 15.9187ZM77.7435 9.7768H78.9506V7.61484H80.5459V9.7768H81.986V10.9631H80.5459V14.8097C80.5459 14.9782 80.553 15.1185 80.5671 15.2449C80.5812 15.3642 80.6165 15.4695 80.6659 15.5537C80.7153 15.638 80.793 15.7011 80.8989 15.7433C81.0047 15.7854 81.1389 15.8064 81.3224 15.8064C81.4354 15.8064 81.5483 15.8064 81.6612 15.7994C81.7742 15.7924 81.8871 15.7784 82.0001 15.7503V16.9787C81.8236 16.9997 81.6471 17.0138 81.4848 17.0348C81.3154 17.0559 81.1459 17.0629 80.9694 17.0629C80.5459 17.0629 80.2071 17.0208 79.9529 16.9436C79.6988 16.8664 79.4941 16.747 79.3529 16.5926C79.2047 16.4382 79.1129 16.2487 79.0565 16.017C79.007 15.7854 78.9717 15.5186 78.9647 15.2238V10.9771H77.7576V9.7768L77.7435 9.7768Z" fill="white"/>
<path d="M19.1747 7.92235H11.8615L9.60259 1.00125L7.33664 7.92234L0.0234668 7.91533L5.94601 12.1971L3.68005 19.1112L9.60259 14.8364L15.5181 19.1112L13.2592 12.1971L19.1747 7.92235Z" fill="#00B67A"/>
<path d="M13.7628 13.7622L13.2545 12.1969L9.59794 14.8362L13.7628 13.7622Z" fill="#142E2A"/>
</svg>
