<svg width="33" height="33" viewBox="0 0 33 33" fill="none" xmlns="http://www.w3.org/2000/svg">
<g clip-path="url(#clip0_54_6281)">
<g clip-path="url(#clip1_54_6281)">
<path d="M12.54 23.3637H16.8961L21.5161 27.8517V23.3637H23.7601C24.0662 23.3642 24.3692 23.3021 24.6504 23.1812C24.9317 23.0602 25.1852 22.883 25.3954 22.6605C25.6056 22.4379 25.768 22.1747 25.8727 21.887C25.9774 21.5993 26.0221 21.2933 26.0041 20.9877V13.4637C26.0041 12.8685 25.7677 12.2977 25.3468 11.8769C24.926 11.4561 24.3552 11.2197 23.7601 11.2197H22.9681" stroke="#142E2A" stroke-width="1.944" stroke-linecap="round" stroke-linejoin="round"/>
<path d="M19.1429 8.18424H7.26286C6.93535 8.14471 6.60315 8.17787 6.28992 8.28137C5.97669 8.38487 5.69014 8.55615 5.45065 8.78303C5.21117 9.00991 5.02466 9.28679 4.90439 9.59398C4.78413 9.90116 4.73307 10.2311 4.75485 10.5602V18.2163C4.75485 18.8114 4.99127 19.3822 5.4121 19.803C5.83294 20.2239 6.40371 20.4603 6.99886 20.4603H9.24286V24.9483L13.8629 20.4603H19.1429C19.738 20.4603 20.3088 20.2239 20.7296 19.803C21.1505 19.3822 21.3869 18.8114 21.3869 18.2163V10.4282C21.3869 9.83309 21.1505 9.26232 20.7296 8.84149C20.3088 8.42066 19.738 8.18424 19.1429 8.18424Z" stroke="#142E2A" stroke-width="1.944" stroke-linecap="round" stroke-linejoin="round"/>
</g>
</g>
<defs>
<clipPath id="clip0_54_6281">
<rect width="32.4" height="32.4" fill="white" transform="scale(1.01852)"/>
</clipPath>
<clipPath id="clip1_54_6281">
<rect width="32.4" height="32.4" fill="white" transform="scale(1.01852)"/>
</clipPath>
</defs>
</svg>
