<svg width="26" height="27" viewBox="0 0 26 27" fill="none" xmlns="http://www.w3.org/2000/svg">
<path fill-rule="evenodd" clip-rule="evenodd" d="M14.9968 0H12.3239C9.99785 0 8.15518 5.21532e-07 6.7137 0.192097C5.23043 0.390594 4.02945 0.807485 3.08157 1.74677C2.91387 1.92537 2.82257 2.16146 2.82697 2.40546C2.83127 2.64945 2.93087 2.88235 3.10477 3.05485C3.27866 3.22744 3.51336 3.32624 3.75926 3.33054C4.00515 3.33484 4.24315 3.24434 4.42304 3.07795C4.95963 2.54795 5.69362 2.22906 6.9668 2.05946C8.26658 1.88617 9.98135 1.88367 12.3948 1.88367H14.926C17.3393 1.88367 19.0529 1.88617 20.3552 2.05946C21.627 2.22906 22.3611 2.54796 22.8964 3.07925C23.4317 3.61044 23.7532 4.33872 23.924 5.6008C24.0987 6.89308 24.1012 8.59335 24.1012 10.9882V16.0113C24.1012 18.4062 24.0987 20.1077 23.924 21.3987C23.7532 22.6608 23.4317 23.3891 22.8964 23.9203C22.3611 24.4516 21.627 24.7705 20.3539 24.9401C19.0529 25.1134 17.3393 25.1159 14.926 25.1159H12.3948C9.98135 25.1159 8.26658 25.1134 6.9655 24.9401C5.69362 24.7705 4.95964 24.4516 4.42434 23.9203C3.54346 23.0463 3.27646 21.6888 3.23086 18.5091C3.22716 18.2593 3.12367 18.0212 2.94307 17.8472C2.85357 17.761 2.74797 17.6932 2.63207 17.6475C2.51618 17.6018 2.39248 17.5793 2.26778 17.5811C2.14318 17.5829 2.02009 17.6091 1.90559 17.6581C1.79119 17.7071 1.68759 17.778 1.60069 17.8667C1.5139 17.9555 1.4455 18.0603 1.3995 18.1753C1.3535 18.2903 1.3307 18.4131 1.3325 18.5368C1.3768 21.5845 1.57549 23.7583 3.08157 25.2528C4.02945 26.192 5.23043 26.6089 6.7137 26.8074C8.15648 26.9995 9.99785 26.9995 12.3239 26.9995H14.9968C17.3229 26.9995 19.1656 26.9995 20.6071 26.8074C22.0902 26.6089 23.2913 26.192 24.2392 25.2528C25.1858 24.3122 25.606 23.1204 25.806 21.6486C25.9996 20.217 25.9996 18.3898 25.9996 16.0817V10.9178C25.9996 8.60975 25.9996 6.78128 25.806 5.35091C25.606 3.87913 25.1858 2.68735 24.2392 1.74677C23.2913 0.807485 22.0902 0.390594 20.6071 0.192097C19.1643 5.21532e-07 17.3229 0 14.9968 0ZM5.92272 7.27857C5.60632 6.94998 5.22703 6.68738 4.80694 6.50629C4.38684 6.32519 3.93455 6.22919 3.47656 6.22409C3.01857 6.21889 2.56418 6.30449 2.14008 6.47599C1.71589 6.64758 1.3306 6.90148 1.0068 7.22277C0.682909 7.54417 0.427014 7.92646 0.254217 8.34735C0.08132 8.76825 -0.00497816 9.21914 0.000221749 9.67353C0.00552166 10.128 0.10222 10.5768 0.284717 10.9936C0.467214 11.4105 0.731808 11.7869 1.063 12.1008L7.0794 18.0746C7.32969 18.3364 7.59599 18.5825 7.87678 18.8118C8.16868 19.0378 8.48257 19.2304 8.81837 19.3895C9.10176 19.5238 9.40046 19.6218 9.83835 19.7662L12.4758 20.6389C12.7614 20.7337 13.068 20.7477 13.3611 20.6792C13.6542 20.6107 13.9223 20.4625 14.1353 20.2512C14.3482 20.0399 14.4976 19.7739 14.5666 19.4831C14.6356 19.1922 14.6216 18.888 14.526 18.6046L13.6642 16.0427L13.6465 15.9887C13.4996 15.553 13.4009 15.2578 13.2655 14.9765C13.1065 14.6449 12.9112 14.3316 12.6833 14.0423C12.4897 13.7962 12.2682 13.5764 11.9404 13.2511L11.9012 13.2122L5.92272 7.27857ZM2.40448 8.60975C2.54738 8.46785 2.71707 8.35535 2.90377 8.27856C3.09057 8.20176 3.29066 8.16226 3.49286 8.16226C3.69496 8.16226 3.89515 8.20176 4.08195 8.27856C4.26865 8.35535 4.43834 8.46785 4.58124 8.60975L4.81154 8.83825L4.76854 8.97264C4.64954 9.31174 4.42304 9.76383 3.99525 10.1882C3.61676 10.5664 3.14917 10.8448 2.63478 10.9982L2.40448 10.7697C2.26148 10.6279 2.14808 10.4595 2.07068 10.2742C1.99339 10.0889 1.95349 9.89023 1.95349 9.68973C1.95349 9.48913 1.99339 9.29054 2.07068 9.10514C2.14808 8.91984 2.26148 8.75155 2.40448 8.60975ZM4.08515 12.4374C4.54794 12.1977 4.97053 11.8885 5.33803 11.5206C5.70872 11.156 6.02041 10.7366 6.26191 10.2774L10.5597 14.542C10.9406 14.92 11.0748 15.0557 11.1874 15.1988C11.3309 15.3813 11.4528 15.5768 11.5532 15.7853C11.6316 15.9498 11.6937 16.1294 11.8645 16.6367L12.3707 18.1437L12.0126 18.4991L10.4939 17.9968C9.98265 17.8272 9.80165 17.7657 9.63585 17.6878C9.42666 17.5874 9.22966 17.4664 9.04486 17.3249C8.90057 17.2131 8.76387 17.08 8.38298 16.702L4.08515 12.4374ZM19.6718 9.73243C19.6718 9.48263 19.5718 9.24304 19.3938 9.06644C19.2158 8.88974 18.9743 8.79055 18.7226 8.79055H10.4964C10.2447 8.79055 10.0033 8.88974 9.82525 9.06644C9.64725 9.24304 9.54725 9.48263 9.54725 9.73243C9.54725 9.98222 9.64725 10.2217 9.82525 10.3984C10.0033 10.575 10.2447 10.6742 10.4964 10.6742H18.7226C18.9743 10.6742 19.2158 10.575 19.3938 10.3984C19.5718 10.2217 19.6718 9.98222 19.6718 9.73243ZM19.6718 14.7555C19.6718 14.5057 19.5718 14.2662 19.3938 14.0896C19.2158 13.913 18.9743 13.8138 18.7226 13.8138H15.5586C15.307 13.8138 15.0656 13.913 14.8876 14.0896C14.7096 14.2662 14.6096 14.5057 14.6096 14.7555C14.6096 15.0053 14.7096 15.2449 14.8876 15.4215C15.0656 15.5981 15.307 15.6974 15.5586 15.6974H18.7226C18.9743 15.6974 19.2158 15.5981 19.3938 15.4215C19.5718 15.2449 19.6718 15.0053 19.6718 14.7555ZM19.6718 19.7788C19.6718 19.529 19.5718 19.2894 19.3938 19.1128C19.2158 18.9361 18.9743 18.8369 18.7226 18.8369H16.8242C16.5725 18.8369 16.3311 18.9361 16.1531 19.1128C15.975 19.2894 15.875 19.529 15.875 19.7788C15.875 20.0285 15.975 20.268 16.1531 20.4447C16.3311 20.6213 16.5725 20.7205 16.8242 20.7205H18.7226C18.9743 20.7205 19.2158 20.6213 19.3938 20.4447C19.5718 20.268 19.6718 20.0285 19.6718 19.7788Z" fill="#142E2A"/>
</svg>
