<svg width="23" height="25" viewBox="0 0 23 25" fill="none" xmlns="http://www.w3.org/2000/svg">
<path d="M15.9226 10.6151C14.6792 10.6156 13.4581 10.9462 12.3843 11.5731V6.19214C12.3843 4.54988 11.7319 2.97489 10.5706 1.81364C9.40939 0.652384 7.8344 0 6.19214 0C4.54988 0 2.97489 0.652384 1.81364 1.81364C0.652384 2.97489 2.1954e-07 4.54988 1.95068e-07 6.19214V18.5764C-0.000316526 19.8385 0.385055 21.0704 1.10449 22.1073C1.82392 23.1442 2.84304 23.9365 4.02533 24.378C5.20762 24.8195 6.49659 24.8892 7.71957 24.5776C8.94255 24.2661 10.0411 23.5883 10.8681 22.6349C11.6839 23.4692 12.6933 24.0887 13.8066 24.4383C14.9198 24.7879 16.1022 24.8567 17.2485 24.6385C18.3948 24.4204 19.4693 23.9221 20.3763 23.188C21.2833 22.454 21.9946 21.507 22.4469 20.4314C22.8992 19.3558 23.0785 18.185 22.9686 17.0233C22.8588 15.8617 22.4633 14.7452 21.8175 13.7734C21.1716 12.8017 20.2953 12.0048 19.2668 11.4537C18.2383 10.9026 17.0895 10.6145 15.9226 10.6151ZM15.9226 12.3843C17.1758 12.3864 18.3878 12.8315 19.3444 13.6409C20.3011 14.4503 20.9409 15.5718 21.1506 16.8072H10.6947C10.9044 15.5718 11.5442 14.4503 12.5008 13.6409C13.4575 12.8315 14.6695 12.3864 15.9226 12.3843ZM1.76918 6.19214C1.76918 5.0191 2.23517 3.8941 3.06464 3.06464C3.8941 2.23517 5.0191 1.76918 6.19214 1.76918C7.36518 1.76918 8.49018 2.23517 9.31964 3.06464C10.1491 3.8941 10.6151 5.0191 10.6151 6.19214V11.4997H1.76918V6.19214ZM6.19214 22.9994C5.01953 22.998 3.89535 22.5315 3.06619 21.7024C2.23703 20.8732 1.77059 19.749 1.76918 18.5764V13.2689H10.4072C9.51956 14.3693 8.98374 15.7115 8.86951 17.1208C8.75529 18.53 9.06794 19.941 9.76677 21.17C9.35803 21.7359 8.82091 22.1967 8.19952 22.5147C7.57812 22.8327 6.89017 22.9988 6.19214 22.9994ZM15.9226 22.9994C14.6695 22.9972 13.4575 22.5521 12.5008 21.7428C11.5442 20.9334 10.9044 19.8119 10.6947 18.5764H21.1506C20.9409 19.8119 20.3011 20.9334 19.3444 21.7428C18.3878 22.5521 17.1758 22.9972 15.9226 22.9994Z" fill="#142E2A"/>
</svg>
