<svg width="37" height="41" viewBox="0 0 37 41" fill="none" xmlns="http://www.w3.org/2000/svg">
<path d="M27.8799 31.9795C28.2279 31.9795 28.5616 31.8413 28.8077 31.5953C29.0537 31.3492 29.1919 31.0155 29.1919 30.6675V29.0328C29.1972 25.3513 23.9781 22.4675 18.6959 22.4675C13.4138 22.4675 8.19995 25.3513 8.19995 29.0328V30.6675C8.19995 31.0155 8.33818 31.3492 8.58423 31.5953C8.83027 31.8413 9.16399 31.9795 9.51195 31.9795H27.8799ZM23.4244 13.748C23.4244 14.3689 23.3021 14.9838 23.0645 15.5575C22.8268 16.1312 22.4785 16.6524 22.0395 17.0915C21.6004 17.5306 21.0791 17.8789 20.5054 18.1165C19.9318 18.3541 19.3169 18.4764 18.6959 18.4764C18.075 18.4764 17.4601 18.3541 16.8865 18.1165C16.3128 17.8789 15.7915 17.5306 15.3524 17.0915C14.9134 16.6524 14.5651 16.1312 14.3274 15.5575C14.0898 14.9838 13.9675 14.3689 13.9675 13.748C13.9675 12.4939 14.4657 11.2912 15.3524 10.4045C16.2392 9.51771 17.4419 9.01953 18.6959 9.01953C19.95 9.01953 21.1527 9.51771 22.0395 10.4045C22.9262 11.2912 23.4244 12.4939 23.4244 13.748Z" stroke="#142E2A" stroke-width="1.968" stroke-linecap="round" stroke-linejoin="round"/>
</svg>
