<svg width="16" height="16" viewBox="0 0 16 16" fill="none" xmlns="http://www.w3.org/2000/svg">
<path fill-rule="evenodd" clip-rule="evenodd" d="M1.73512 5.206C2.80086 2.79413 5.19115 1.11557 7.99495 1.11557C9.81947 1.11557 11.5693 1.84036 12.8594 3.13049C14.1495 4.42062 14.8743 6.17041 14.8743 7.99492C14.8743 9.81944 14.1495 11.5692 12.8594 12.8594C11.5693 14.1495 9.81947 14.8743 7.99495 14.8743C7.84702 14.8743 7.70515 14.933 7.60054 15.0376C7.49594 15.1423 7.43717 15.2841 7.43717 15.4321C7.43717 15.58 7.49594 15.7219 7.60054 15.8265C7.70515 15.9311 7.84702 15.9898 7.99495 15.9898C12.4104 15.9898 15.9899 12.4104 15.9899 7.99492C15.9899 3.57949 12.4104 0 7.99495 0C4.41174 0 1.41532 2.35609 0.397175 5.59645C0.370891 5.68002 0.364665 5.76862 0.379 5.85505C0.393335 5.94148 0.427829 6.02332 0.479687 6.09394C0.531545 6.16455 0.599308 6.22196 0.677487 6.26151C0.755666 6.30106 0.842061 6.32163 0.929674 6.32157H2.78896C2.93689 6.32157 3.07877 6.2628 3.18337 6.1582C3.28798 6.05359 3.34674 5.91172 3.34674 5.76378C3.34674 5.61585 3.28798 5.47397 3.18337 5.36937C3.07877 5.26476 2.93689 5.206 2.78896 5.206H1.73512Z" fill="white"/>
<path fill-rule="evenodd" clip-rule="evenodd" d="M7.99492 4.46587C8.14286 4.46587 8.28473 4.52463 8.38934 4.62924C8.49394 4.73384 8.55271 4.87572 8.55271 5.02365V7.76796L9.87652 9.09177C9.93132 9.14283 9.97528 9.20441 10.0058 9.27283C10.0362 9.34125 10.0526 9.41511 10.054 9.49001C10.0553 9.5649 10.0415 9.6393 10.0135 9.70875C9.9854 9.7782 9.94364 9.8413 9.89068 9.89426C9.83771 9.94723 9.77462 9.98898 9.70517 10.017C9.63571 10.0451 9.56132 10.0589 9.48643 10.0575C9.41153 10.0562 9.33767 10.0398 9.26925 10.0093C9.20083 9.97886 9.13925 9.93491 9.08818 9.8801L7.60076 8.39268C7.49612 8.28817 7.43727 8.14639 7.43714 7.99851V5.02365C7.43714 4.87572 7.4959 4.73384 7.60051 4.62924C7.70512 4.52463 7.84699 4.46587 7.99492 4.46587ZM0.557785 7.44072C0.705719 7.44072 0.847594 7.49949 0.952199 7.60409C1.0568 7.7087 1.11557 7.85057 1.11557 7.99851C1.11557 8.23278 1.12598 8.46407 1.14681 8.69239C1.16012 8.83973 1.11436 8.98633 1.01959 9.09993C0.924814 9.21353 0.788795 9.28483 0.641453 9.29815C0.494111 9.31146 0.347515 9.2657 0.233914 9.17093C0.120313 9.07615 0.0490124 8.94014 0.0356984 8.79279C0.0118699 8.5287 -4.15782e-05 8.26367 1.0904e-07 7.99851C1.0904e-07 7.85057 0.0587666 7.7087 0.163372 7.60409C0.267977 7.49949 0.409852 7.44072 0.557785 7.44072ZM0.877582 10.3367C0.946187 10.3108 1.01923 10.2987 1.09252 10.3011C1.16581 10.3034 1.23792 10.3202 1.30471 10.3505C1.37151 10.3807 1.43169 10.4239 1.4818 10.4774C1.53191 10.5309 1.57097 10.5938 1.59675 10.6625C1.70013 10.9377 1.81912 11.2032 1.95225 11.4605C1.98878 11.5257 2.01182 11.5976 2.02001 11.6719C2.0282 11.7463 2.02137 11.8215 1.99992 11.8931C1.97847 11.9647 1.94284 12.0313 1.89514 12.0889C1.84745 12.1464 1.78867 12.1938 1.7223 12.2282C1.65592 12.2627 1.58331 12.2834 1.50877 12.2892C1.43423 12.2949 1.35929 12.2857 1.2884 12.2619C1.21751 12.2382 1.15212 12.2004 1.09611 12.1509C1.0401 12.1014 0.994617 12.0411 0.962366 11.9737C0.808417 11.6784 0.672317 11.3712 0.553323 11.0559C0.501212 10.9175 0.506173 10.7641 0.567115 10.6294C0.628058 10.4947 0.739995 10.3897 0.878326 10.3375L0.877582 10.3367ZM2.28395 13.0238C2.33766 12.974 2.40066 12.9352 2.46935 12.9098C2.53804 12.8843 2.61107 12.8726 2.68428 12.8754C2.75748 12.8781 2.82943 12.8953 2.896 12.9259C2.96258 12.9564 3.02248 12.9998 3.07228 13.0535C3.28275 13.2804 3.5081 13.4923 3.74534 13.6894C3.85799 13.7842 3.92861 13.9196 3.9418 14.0663C3.95499 14.2129 3.90969 14.3588 3.81577 14.4721C3.72185 14.5855 3.58692 14.6571 3.4404 14.6714C3.29389 14.6857 3.14766 14.6415 3.03361 14.5484C2.75821 14.3203 2.4981 14.0743 2.25494 13.8121C2.20508 13.7585 2.16628 13.6955 2.14075 13.6268C2.11522 13.5582 2.10347 13.4851 2.10616 13.4119C2.10885 13.3387 2.12594 13.2668 2.15645 13.2002C2.18695 13.1336 2.23027 13.0736 2.28395 13.0238ZM4.51286 14.9121C4.5744 14.7776 4.68686 14.673 4.82549 14.6214C4.96413 14.5698 5.11759 14.5754 5.25211 14.6369C5.47522 14.7388 5.70429 14.8288 5.93781 14.9061C6.00991 14.9268 6.0771 14.9619 6.13534 15.0092C6.19358 15.0565 6.24169 15.115 6.27677 15.1813C6.31186 15.2476 6.33322 15.3203 6.33956 15.3951C6.3459 15.4698 6.33709 15.5451 6.31367 15.6164C6.29024 15.6876 6.25269 15.7534 6.20324 15.8099C6.15379 15.8663 6.09347 15.9121 6.02588 15.9447C5.9583 15.9773 5.88484 15.9959 5.8099 15.9994C5.73497 16.0029 5.66009 15.9913 5.58975 15.9652C5.31689 15.8755 5.04924 15.7707 4.78803 15.6513C4.65351 15.5898 4.54895 15.4773 4.49734 15.3387C4.44574 15.2001 4.45132 15.0466 4.51286 14.9121Z" fill="white"/>
</svg>
