<svg width="37" height="41" viewBox="0 0 37 41" fill="none" xmlns="http://www.w3.org/2000/svg">
<path d="M18.45 8.19922C21.5494 8.19922 24.0613 10.7512 24.0613 13.8994V14.1992H25.6199C26.7043 14.1992 27.6048 15.0504 27.6824 16.1494L28.6951 30.5498C28.7358 31.1311 28.5371 31.7033 28.1462 32.1299C27.7546 32.5565 27.2067 32.7988 26.6326 32.7988H10.2673C9.69317 32.7988 9.1453 32.5565 8.75366 32.1299C8.36281 31.7033 8.16409 31.1311 8.20483 30.5498L9.21753 16.1494C9.2951 15.0504 10.1956 14.1992 11.28 14.1992H12.8494C12.8458 14.0991 12.8428 13.9989 12.8386 13.8994C12.7045 10.615 15.4639 8.19922 18.45 8.19922ZM11.28 15.999C11.1254 15.999 10.9969 16.1209 10.9861 16.2773L9.97241 30.6777C9.96654 30.7611 9.99543 30.8431 10.0515 30.9043C10.1076 30.9646 10.1854 30.999 10.2673 30.999H26.6326C26.7145 30.999 26.7923 30.9646 26.8484 30.9043C26.9045 30.8431 26.9334 30.7611 26.9275 30.6777L25.9138 16.2773C25.903 16.1209 25.7745 15.999 25.6199 15.999H24.0613V20.499C24.0613 20.9958 23.6646 21.3994 23.1755 21.3994C22.6865 21.3993 22.2898 20.9958 22.2898 20.499V15.999H14.6101V20.499C14.6101 20.9958 14.2134 21.3993 13.7244 21.3994C13.2353 21.3994 12.8386 20.9958 12.8386 20.499C12.8395 20.4748 12.9147 18.3821 12.8894 15.999H11.28ZM18.45 9.99902C16.3293 9.99902 14.6101 11.7454 14.6101 13.8994V14.1992H22.2898V13.8994C22.2898 11.7454 20.5706 9.99902 18.45 9.99902Z" fill="#142E2A"/>
<path d="M18.45 8.19922C21.5494 8.19922 24.0613 10.7512 24.0613 13.8994V14.1992H25.6199C26.7043 14.1992 27.6048 15.0504 27.6824 16.1494L28.6951 30.5498C28.7358 31.1311 28.5371 31.7033 28.1462 32.1299C27.7546 32.5565 27.2067 32.7988 26.6326 32.7988H10.2673C9.69317 32.7988 9.1453 32.5565 8.75366 32.1299C8.36281 31.7033 8.16409 31.1311 8.20483 30.5498L9.21753 16.1494C9.2951 15.0504 10.1956 14.1992 11.28 14.1992H12.8494C12.8458 14.0991 12.8428 13.9989 12.8386 13.8994C12.7045 10.615 15.4639 8.19922 18.45 8.19922ZM11.28 15.999C11.1254 15.999 10.9969 16.1209 10.9861 16.2773L9.97241 30.6777C9.96654 30.7611 9.99543 30.8431 10.0515 30.9043C10.1076 30.9646 10.1854 30.999 10.2673 30.999H26.6326C26.7145 30.999 26.7923 30.9646 26.8484 30.9043C26.9045 30.8431 26.9334 30.7611 26.9275 30.6777L25.9138 16.2773C25.903 16.1209 25.7745 15.999 25.6199 15.999H24.0613V20.499C24.0613 20.9958 23.6646 21.3994 23.1755 21.3994C22.6865 21.3993 22.2898 20.9958 22.2898 20.499V15.999H14.6101V20.499C14.6101 20.9958 14.2134 21.3993 13.7244 21.3994C13.2353 21.3994 12.8386 20.9958 12.8386 20.499C12.8395 20.4748 12.9147 18.3821 12.8894 15.999H11.28ZM18.45 9.99902C16.3293 9.99902 14.6101 11.7454 14.6101 13.8994V14.1992H22.2898V13.8994C22.2898 11.7454 20.5706 9.99902 18.45 9.99902Z" stroke="#142E2A"/>
</svg>
