<svg width="95" height="30" viewBox="0 0 95 30" fill="none" xmlns="http://www.w3.org/2000/svg">
<g clip-path="url(#clip0_0_16)">
<path d="M58.2579 26.4311H56.7681C56.4996 26.3689 56.2267 26.3279 55.9518 26.3086C55.764 26.256 55.5732 26.2151 55.3804 26.1862L54.8701 26.0433C53.8735 25.7655 52.9141 25.3681 52.013 24.8596C51.4582 24.5511 50.9263 24.2033 50.4212 23.8188C49.9518 23.4515 49.5436 23.0025 49.0538 22.6555C48.9672 22.5791 48.8854 22.4973 48.8089 22.4106C48.4416 21.9617 48.0334 21.5535 47.6865 21.0841L46.9314 20.1657C46.8293 20.0433 46.8293 19.9821 46.911 19.8392L47.1763 19.4515C47.5678 18.9256 47.9224 18.3733 48.2375 17.7984C48.8701 16.6555 49.4824 15.5331 50.0742 14.3698L50.1967 14.1657C50.2216 14.1483 50.2521 14.1407 50.2822 14.1444C50.3124 14.1482 50.3401 14.1631 50.3599 14.1862L50.4824 14.3902C50.9701 15.3754 51.551 16.3117 52.2171 17.1862C52.625 17.7743 53.0973 18.3151 53.6252 18.7984C54.3615 19.4981 55.2283 20.0459 56.1763 20.4106L57.0946 20.6555C57.5783 20.7504 58.0719 20.7847 58.564 20.7576H58.9314C59.1442 20.7778 59.359 20.757 59.564 20.6964C59.8089 20.6147 60.0946 20.6555 60.3191 20.5127C61.1082 20.3018 61.8494 19.9416 62.5028 19.4515C62.9122 19.1371 63.2945 18.789 63.6457 18.4106C63.794 18.2508 63.9304 18.0802 64.0538 17.9004C64.6048 17.0841 65.0742 16.2474 65.2783 15.2678C65.4416 14.9208 65.3803 14.5331 65.5232 14.1657C65.5335 14.0708 65.5335 13.975 65.5232 13.88V13.1657C65.5232 12.7576 65.564 12.3494 65.4212 11.9821C65.2783 11.6147 65.1354 10.7372 64.8905 10.1453C64.659 9.59829 64.3571 9.08376 63.9926 8.61473C63.7681 8.34942 63.5436 8.06371 63.2987 7.7984C62.6277 7.14915 61.8469 6.62401 60.9926 6.24738C60.7582 6.1322 60.5118 6.04322 60.2579 5.98207L59.6252 5.83922C59.2375 5.77799 58.8293 5.75759 58.4416 5.71677L58.0742 5.75759L57.6661 5.7984C57.1311 5.82604 56.6056 5.9505 56.115 6.16575C55.5187 6.38696 54.9556 6.6891 54.4416 7.06371C54.1509 7.27974 53.8779 7.51859 53.6252 7.77799C52.7681 8.61473 52.7069 8.71677 51.9314 9.77799C51.5844 10.2678 51.2783 10.778 50.9722 11.2882C50.2171 12.5127 49.5232 13.7576 48.8293 15.0025C48.1355 16.2474 47.4824 17.4923 46.7885 18.7168C46.2775 19.6414 45.6904 20.522 45.0334 21.3494C44.6661 21.7984 44.2579 22.2066 43.8497 22.6147L43.564 22.9208C43.0483 23.4198 42.4882 23.8706 41.8906 24.2678C41.3951 24.6029 40.8769 24.903 40.3395 25.1657C39.5225 25.5743 38.6591 25.8826 37.7681 26.0841C37.4824 26.2474 37.1355 26.1657 36.8497 26.3086H36.564C36.42 26.3019 36.2757 26.3157 36.1355 26.3494C35.9316 26.4165 35.717 26.4442 35.5028 26.4311H33.9926C33.7985 26.4442 33.6038 26.4164 33.4212 26.3494L33.2375 26.3086C32.8497 26.3698 32.5028 26.2066 32.115 26.1657C31.7069 26.0926 31.3045 25.9903 30.911 25.8596C29.666 25.4496 28.4793 24.8802 27.3804 24.1657C26.8851 23.8724 26.4203 23.5306 25.9926 23.1453C25.9093 23.0583 25.8207 22.9765 25.7273 22.9004C25.4548 22.6994 25.2141 22.4586 25.013 22.1862C24.7477 21.8596 24.4416 21.5739 24.1967 21.227C23.543 20.3446 23.0142 19.3763 22.6252 18.3494C22.4222 17.8389 22.2584 17.3135 22.1355 16.778C22.0538 16.4719 22.0334 16.1453 21.9314 15.8392C21.8966 15.7482 21.8827 15.6506 21.8906 15.5535C21.8701 15.4515 21.8906 15.3494 21.8701 15.2474C21.7748 14.9865 21.74 14.7074 21.7681 14.4311C21.7477 14.2066 21.7477 14.0025 21.7069 13.778C21.6797 13.5 21.6729 13.2203 21.6865 12.9413C21.7543 12.4683 21.7816 11.9903 21.7681 11.5127C21.7536 11.3319 21.7815 11.1502 21.8497 10.9821C21.8701 10.9208 21.8701 10.8596 21.8906 10.8188C22.0166 9.75132 22.3129 8.71091 22.7681 7.73718C23.0888 7.03137 23.4713 6.35527 23.911 5.71677C24.2146 5.25296 24.5487 4.80981 24.911 4.39024C25.3359 3.88982 25.815 3.43808 26.3395 3.0433L26.9926 2.51269C27.9299 1.83163 28.9522 1.27591 30.0334 0.859629C30.6801 0.626218 31.3414 0.435331 32.013 0.288196C32.1135 0.264573 32.216 0.250905 32.3191 0.247384C32.4155 0.243746 32.5113 0.230064 32.6048 0.206565C32.7514 0.138536 32.9133 0.110379 33.0742 0.124934C33.411 0.151612 33.7498 0.117039 34.0742 0.0228928C34.6324 -0.0277029 35.1947 -0.00713229 35.7477 0.0841148C35.9441 0.108579 36.1417 0.122208 36.3395 0.124934C36.5339 0.101865 36.7309 0.130005 36.911 0.206565L37.0946 0.247384C37.4008 0.206567 37.6661 0.349422 37.9722 0.410647C38.277 0.470614 38.5771 0.552461 38.8701 0.655547C39.1559 0.757588 39.4416 0.839221 39.7069 0.96167C40.0001 1.08135 40.2863 1.21763 40.564 1.36983L41.3599 1.81881C41.7602 2.03232 42.1424 2.27803 42.5028 2.5535C42.9682 2.89936 43.4112 3.27426 43.8293 3.67595C44.013 3.88003 44.2171 4.06371 44.4212 4.26779C44.6252 4.47187 44.7273 4.61473 44.8906 4.7984C45.0538 4.98207 45.4008 5.49228 45.7069 5.81881C45.8069 5.93976 45.8957 6.06955 45.9722 6.20656C45.9897 6.22953 46.0009 6.25675 46.0045 6.28544C46.008 6.31412 46.004 6.34325 45.9926 6.36983C45.9314 6.51269 45.8293 6.65554 45.7681 6.7984C45.4212 7.39024 45.0946 7.98208 44.8089 8.59432L44.0538 10.0025L42.8497 12.2066C42.8447 12.2205 42.836 12.2329 42.8245 12.2422C42.813 12.2516 42.7991 12.2577 42.7845 12.2598C42.7698 12.2619 42.7548 12.2599 42.7411 12.2542C42.7274 12.2484 42.7156 12.239 42.7069 12.227L42.6457 12.1249C42.5232 11.9413 42.4212 11.7372 42.3191 11.5535C41.9628 10.9305 41.5674 10.3307 41.1355 9.75758C40.911 9.47187 40.6457 9.18616 40.4416 8.88003C40.3708 8.78212 40.2886 8.69305 40.1967 8.61473C39.8497 8.24738 39.5028 7.88003 39.1355 7.5535C38.3174 6.75904 37.3034 6.19568 36.1967 5.92085C35.9334 5.83204 35.6581 5.78386 35.3804 5.77799C35.2644 5.79237 35.1469 5.78546 35.0334 5.75759C34.7578 5.69668 34.4723 5.69668 34.1967 5.75759H33.9518C33.555 5.75569 33.161 5.8248 32.7885 5.96167C32.2758 6.10565 31.7824 6.31123 31.3191 6.57391C30.8234 6.87428 30.3585 7.22291 29.9314 7.61473C28.945 8.55219 28.2265 9.7357 27.8497 11.0433C27.8293 11.329 27.6661 11.5943 27.6865 11.9004C27.7069 12.2066 27.6865 12.0025 27.6661 12.0229C27.5232 12.3698 27.5844 12.7372 27.564 13.0841V13.9209C27.5595 14.1212 27.587 14.321 27.6457 14.5127C27.7273 14.7576 27.6865 15.0229 27.8089 15.2678C28.063 16.2918 28.5287 17.2512 29.1763 18.0841C29.3804 18.329 29.6252 18.5331 29.8497 18.778C30.3905 19.3297 31.0266 19.7791 31.7273 20.1045C32.2281 20.3564 32.7652 20.5285 33.3191 20.6147L33.6048 20.676L33.9518 20.7168H35.0946L35.4416 20.676C35.5345 20.6458 35.6302 20.6253 35.7273 20.6147C36.3817 20.5352 37.0171 20.3418 37.6048 20.0433C38.2624 19.7237 38.8569 19.2882 39.3599 18.7576L39.6252 18.4923C40.0308 18.0906 40.3996 17.6535 40.7273 17.1862C41.4093 16.2489 42.0166 15.2594 42.5436 14.227C43.2987 12.7372 44.115 11.2678 44.9722 9.83922C45.4416 9.02289 45.911 8.18616 46.4212 7.36983C46.9314 6.5535 47.1355 6.22697 47.5436 5.67595C47.9518 5.12493 48.1355 4.94126 48.4416 4.57391C48.6772 4.27443 48.9293 3.98828 49.1967 3.71677L49.7273 3.26779C50.013 3.0433 50.2987 2.83922 50.564 2.59432C51.099 2.17314 51.673 1.8041 52.2783 1.49228C52.9955 1.11497 53.7472 0.807439 54.5232 0.573909L54.8089 0.492278C55.0946 0.390237 55.3803 0.34942 55.6661 0.267787C55.9518 0.186154 56.1354 0.226971 56.3599 0.165746C56.5953 0.121608 56.8354 0.107894 57.0742 0.124934L57.3803 0.0841148C58.0277 -0.0384549 58.6922 -0.0384549 59.3395 0.0841148L59.8701 0.124934C60.0845 0.10028 60.3017 0.1283 60.5028 0.206565C60.5582 0.239115 60.6225 0.253398 60.6865 0.247384C60.782 0.232959 60.8796 0.239924 60.9722 0.267787C61.1967 0.390236 61.4416 0.349423 61.6661 0.431056C61.8906 0.512689 62.2375 0.594318 62.5232 0.67595C63.6568 1.05397 64.7344 1.58251 65.7273 2.24738C66.3518 2.64022 66.9273 3.10609 67.4416 3.63513L68.3191 4.51269C68.6785 4.89551 68.9998 5.31245 69.2783 5.75759C69.9704 6.77434 70.5069 7.88864 70.8701 9.06371C70.9537 9.30821 71.0085 9.56162 71.0334 9.81881C71.073 10.0953 71.1344 10.3683 71.2171 10.6351C71.2921 10.8444 71.3268 11.066 71.3191 11.2882C71.3161 11.522 71.3435 11.7553 71.4008 11.9821C71.4399 12.1355 71.4604 12.2931 71.462 12.4515V14.0841C71.4752 14.3386 71.4477 14.5935 71.3803 14.8392C71.3468 14.9162 71.3328 15.0004 71.3395 15.0841C71.3361 15.282 71.3225 15.4795 71.2987 15.676C71.1763 16.1657 71.0742 16.676 70.911 17.1658C70.5557 18.284 70.0621 19.3536 69.4416 20.3494C69.2151 20.7025 68.9699 21.0431 68.7069 21.3698C68.3647 21.8314 67.9822 22.2616 67.564 22.6555C67.4069 22.833 67.2287 22.9906 67.0334 23.1249L66.8293 23.2678C66.3208 23.7452 65.7593 24.1629 65.1559 24.5127C64.5692 24.8859 63.9471 25.2004 63.2987 25.4515C62.9384 25.5697 62.5842 25.7059 62.2375 25.8596C61.911 25.9821 61.5436 26.0025 61.2171 26.1453C60.8905 26.2882 60.564 26.329 60.2171 26.3086H60.0538C59.7858 26.4036 59.5001 26.4384 59.2171 26.4106L58.2579 26.4311Z" fill="#142E2A"/>
<path d="M73.2812 13.1197V0.568713C73.3017 0.303407 73.3629 0.242188 73.6078 0.242188H81.7302C82.0893 0.282913 82.4505 0.303352 82.8119 0.303409H82.9955C83.2246 0.355848 83.4562 0.396717 83.6894 0.42586C83.9042 0.428276 84.1174 0.462667 84.3221 0.527901C84.5374 0.580391 84.7554 0.621268 84.9751 0.650351L85.5466 0.813614C87.1261 1.22799 88.6142 1.934 89.9343 2.89525C90.6205 3.40485 91.2439 3.99399 91.7915 4.65035C92.1233 4.992 92.4175 5.36831 92.669 5.77279C92.9343 6.20137 93.22 6.60953 93.4445 7.05851C93.8656 7.84576 94.1878 8.68203 94.4037 9.5483C94.5262 9.77279 94.5057 10.0585 94.6282 10.283C94.7506 10.5075 94.8323 11.0993 94.771 11.5279C94.7755 11.6647 94.7892 11.8011 94.8119 11.9361C94.8803 12.1885 94.9079 12.4504 94.8935 12.7116V13.7728C94.9079 14.0138 94.8803 14.2555 94.8119 14.4871C94.7915 14.6095 94.7915 14.732 94.771 14.834C94.7958 15.035 94.7677 15.2391 94.6894 15.4259C94.6661 15.4845 94.6523 15.5465 94.6486 15.6095C94.6517 15.8031 94.6241 15.996 94.567 16.181C94.4853 16.3646 94.5057 16.5687 94.4241 16.7728C94.3425 16.9769 94.3425 17.0993 94.2812 17.283C94.22 17.4667 94.1792 17.6503 94.0976 17.834C93.7424 18.8269 93.255 19.7673 92.6486 20.6299C92.1752 21.3201 91.6202 21.9505 90.9955 22.5075C90.9751 22.5483 90.9343 22.5687 90.9139 22.5891C89.2677 24.1071 87.2454 25.157 85.0568 25.6299C84.771 25.7728 84.4241 25.7116 84.1384 25.8544C83.8527 25.9973 83.22 26.0177 82.7302 25.9973H73.4649C73.4249 25.9976 73.3862 25.9832 73.3561 25.9569C73.326 25.9306 73.3067 25.8941 73.3017 25.8544C73.3017 25.732 73.2812 25.5891 73.2812 25.4463V13.1197ZM79.1588 13.2218V19.9157C79.1554 20.0724 79.1622 20.2292 79.1792 20.385C79.1764 20.4199 79.1806 20.455 79.1914 20.4882C79.2022 20.5215 79.2195 20.5523 79.2422 20.5788C79.265 20.6054 79.2928 20.6272 79.324 20.643C79.3552 20.6587 79.3892 20.6682 79.4241 20.6708H79.7302C80.4853 20.6708 81.2404 20.6912 81.9955 20.6708C82.3737 20.6634 82.75 20.6155 83.118 20.5279L84.0364 20.3034C84.4452 20.2036 84.8421 20.0599 85.22 19.8748C85.5897 19.6842 85.9445 19.4659 86.2813 19.2218C86.4663 19.1042 86.6436 18.9746 86.8119 18.834C87.3258 18.3346 87.7657 17.7642 88.118 17.1401C88.22 16.9361 88.3017 16.732 88.3833 16.5279L88.8323 15.3646C88.8552 15.313 88.869 15.2577 88.8731 15.2014C88.9139 14.8952 88.9751 14.6095 88.9955 14.3034C89.0773 13.571 89.0773 12.8317 88.9955 12.0993C88.9139 11.5279 88.9139 10.9361 88.6078 10.4259C88.5849 10.3742 88.571 10.319 88.567 10.2626C88.4333 9.88277 88.2696 9.51425 88.0772 9.16055C87.8617 8.82568 87.6157 8.51142 87.3425 8.22177C86.9762 7.77402 86.5341 7.39409 86.0364 7.09933C85.6486 6.83402 85.1996 6.65035 84.7915 6.42586C84.3833 6.20137 83.8935 6.09933 83.4445 5.91565C82.9955 5.73198 82.3833 5.75239 81.8527 5.73198H79.8119L79.4037 5.77279C79.3467 5.78768 79.2952 5.8187 79.2553 5.86214C79.2155 5.90558 79.1891 5.9596 79.1792 6.01769C79.1622 6.20085 79.1554 6.38481 79.1588 6.56872V13.2218Z" fill="#142E2A"/>
<path d="M19.6117 9.16581C19.5913 10.023 19.5505 10.9005 19.5301 11.7781C19.5097 12.6556 19.5301 13.6148 19.5097 14.5332V17.2883C19.5364 17.625 19.5018 17.9638 19.4077 18.2883C19.4077 18.3495 19.3873 18.4107 19.3873 18.4719C19.394 18.6498 19.3803 18.8278 19.3464 19.0025C19.2556 19.5084 19.1259 20.0064 18.9587 20.4923C18.8232 20.8616 18.6665 21.2228 18.4893 21.574C18.1937 22.1671 17.8082 22.7109 17.3464 23.1862L16.4281 24.1046C15.6315 24.8918 14.6693 25.4914 13.6117 25.8597C13.3464 25.9617 11.9791 26.3291 11.7138 26.3699H11.4893C11.3856 26.3634 11.2816 26.3772 11.1832 26.4107C10.8977 26.489 10.6007 26.5167 10.3056 26.4923H8.93828C8.67692 26.5168 8.4133 26.4891 8.16277 26.4107L7.9995 26.3699C6.55667 26.1733 5.16838 25.6874 3.91787 24.9413C3.65227 24.8056 3.41638 24.6182 3.22399 24.3903L2.95869 24.1658C2.5709 23.8393 2.22169 23.4696 1.91787 23.0638C1.63607 22.7108 1.38353 22.3354 1.16277 21.9413C0.68349 21.1805 0.331908 20.3463 0.121954 19.4719C0.0403209 19.125 -0.000495754 18.7781 -0.0617202 18.4311C-0.0724674 18.4125 -0.078125 18.3914 -0.078125 18.3699C-0.078125 18.3484 -0.0724674 18.3273 -0.0617202 18.3087C-0.0209039 18.2679 -0.000496075 18.2066 0.0607284 18.1862H5.83624C5.8761 18.1947 5.912 18.2163 5.93828 18.2474L5.9995 18.4107C6.18996 18.9402 6.50494 19.4162 6.91787 19.7985C7.11461 19.9978 7.32609 20.182 7.55053 20.3495C7.90406 20.567 8.28048 20.745 8.67297 20.8801C8.74395 20.9126 8.81979 20.9333 8.89746 20.9413H9.14236C9.62128 21.081 10.1291 21.0881 10.6117 20.9617L11.2852 20.7781C11.6537 20.6737 11.9859 20.4688 12.2444 20.1862L12.3669 20.0638C12.7127 19.7624 12.9732 19.3753 13.122 18.9413C13.2655 18.6562 13.3423 18.3421 13.3464 18.023C13.3455 18.0119 13.3468 18.0008 13.3503 17.9902C13.3538 17.9797 13.3595 17.97 13.3669 17.9617C13.5097 17.4515 13.4689 16.9209 13.4689 16.4107V0.859694C13.4689 0.186224 13.4281 0.227039 14.0607 0.227039H19.3873C19.5505 0.227039 19.6117 0.30867 19.6322 0.492343V8.02295C19.6322 8.3903 19.6117 8.77806 19.6117 9.16581Z" fill="#142E2A"/>
</g>
<defs>
<clipPath id="clip0_0_16">
<rect width="94.898" height="30" fill="white"/>
</clipPath>
</defs>
</svg>
