<svg width="38" height="24" viewBox="0 0 38 24" fill="none" xmlns="http://www.w3.org/2000/svg">
<g clip-path="url(#clip0_0_143)">
<g clip-path="url(#clip1_0_143)">
<g clip-path="url(#clip2_0_143)">
<path d="M34.3872 0H3.61287C3.48468 0 3.35626 0 3.2283 0.00067947C3.12026 0.00158543 3.01245 0.00271788 2.90441 0.00566225C2.66909 0.012004 2.43173 0.0260463 2.19935 0.0677205C1.9663 0.107648 1.74051 0.182074 1.52939 0.288548C1.10499 0.504411 0.760026 0.849374 0.544163 1.27378C0.4375 1.48497 0.363065 1.71095 0.323336 1.94419C0.281209 2.17679 0.267393 2.41393 0.261051 2.64903C0.258291 2.75697 0.25663 2.86493 0.256068 2.97291C0.255615 3.10065 0.255615 3.22884 0.255615 3.35726V20.6425C0.255615 20.7709 0.255615 20.8989 0.256068 21.0273C0.256748 21.1351 0.258107 21.2432 0.261051 21.3512C0.267393 21.5858 0.281435 21.8232 0.323336 22.0556C0.362983 22.2888 0.437342 22.5148 0.543937 22.726C0.651108 22.9369 0.790999 23.1296 0.958413 23.2967C1.12554 23.4642 1.31819 23.6041 1.52917 23.7112C1.74365 23.8206 1.96335 23.8902 2.19958 23.9325C2.43173 23.974 2.66909 23.988 2.90441 23.9943C3.01245 23.9968 3.12026 23.9982 3.2283 23.9989C3.35626 23.9998 3.48468 23.9998 3.61287 23.9998H34.3872C34.5152 23.9998 34.6436 23.9998 34.7715 23.9989C34.8794 23.9984 34.9872 23.9968 35.0956 23.9943C35.3305 23.988 35.5679 23.974 35.8007 23.9325C36.0338 23.8925 36.2596 23.818 36.4707 23.7112C36.8949 23.4951 37.2397 23.1502 37.4559 22.726C37.5653 22.5115 37.6346 22.2918 37.6765 22.0556C37.7186 21.8232 37.7322 21.5858 37.7386 21.3512C37.7415 21.2432 37.7431 21.1351 37.7435 21.0273C37.7444 20.8989 37.7444 20.7709 37.7444 20.6425V3.35749C37.7444 3.22907 37.7444 3.10087 37.7435 2.97268C37.7431 2.86478 37.7414 2.75689 37.7386 2.64903C37.7322 2.41393 37.7186 2.17679 37.6765 1.94419C37.6371 1.71091 37.5627 1.4849 37.4559 1.27378C37.2399 0.849448 36.895 0.504513 36.4707 0.288548C36.2595 0.182184 36.0337 0.107836 35.8007 0.067947C35.5679 0.0260463 35.3305 0.0122305 35.0956 0.00588874C34.9876 0.00314533 34.8796 0.00148432 34.7715 0.000905959C34.6436 0 34.5152 0 34.3872 0Z" fill="#142E2A"/>
<path d="M34.3873 0.799805L34.766 0.800484C34.8683 0.801164 34.9709 0.802296 35.074 0.805014C35.2536 0.809997 35.4633 0.819736 35.659 0.854842C35.8289 0.885418 35.9716 0.931848 36.1084 1.00161C36.3821 1.1408 36.6045 1.36345 36.7434 1.63736C36.8128 1.77326 36.859 1.91504 36.8895 2.08649C36.9244 2.27992 36.9342 2.49033 36.9389 2.67084C36.9419 2.77276 36.9432 2.87468 36.9434 2.97886C36.9446 3.10502 36.9446 3.23095 36.9446 3.35733V20.6426C36.9446 20.769 36.9446 20.8949 36.9437 21.0235C36.9432 21.1255 36.9418 21.2274 36.9391 21.3293C36.9341 21.5096 36.9244 21.72 36.8891 21.9157C36.8634 22.0713 36.8141 22.2222 36.743 22.363C36.6038 22.637 36.3811 22.8597 36.107 22.9988C35.9711 23.0681 35.8289 23.1145 35.6606 23.1448C35.4611 23.1804 35.2423 23.1901 35.0776 23.1947C34.9741 23.1969 34.8711 23.1985 34.7653 23.199C34.6396 23.1999 34.5132 23.1999 34.3873 23.1999H3.60798C3.48341 23.1999 3.35884 23.1999 3.232 23.199C3.13007 23.1985 3.02815 23.1972 2.92624 23.1949C2.75774 23.1904 2.53895 23.1804 2.34099 23.1451C2.18448 23.119 2.03283 23.0694 1.89119 22.9979C1.75532 22.9288 1.63131 22.8386 1.52382 22.7306C1.41599 22.623 1.32593 22.4989 1.25701 22.363C1.18584 22.2214 1.13651 22.0698 1.1107 21.9134C1.07537 21.718 1.0654 21.5085 1.06087 21.3295C1.05831 21.2272 1.0568 21.1249 1.05634 21.0226L1.05566 20.7221V3.27806L1.05612 2.97796C1.05658 2.8755 1.05809 2.77304 1.06065 2.67061C1.06563 2.49123 1.07537 2.28173 1.11093 2.08468C1.13679 1.9286 1.18612 1.77733 1.25724 1.63601C1.32609 1.50056 1.41578 1.3769 1.5245 1.26841C1.63225 1.16049 1.75639 1.07029 1.89232 1.00115C2.03362 0.930167 2.18479 0.880844 2.34077 0.854842C2.53668 0.819736 2.74664 0.809997 2.92647 0.805014C3.02884 0.802296 3.13144 0.801164 3.23314 0.800484L3.61296 0.799805H34.3873Z" fill="white"/>
<path d="M10.1097 8.10171C10.4277 7.70422 10.6433 7.17039 10.5864 6.625C10.1212 6.6481 9.55363 6.93189 9.22477 7.32984C8.92965 7.67048 8.66851 8.22651 8.73646 8.74902C9.25874 8.79432 9.78058 8.48811 10.1097 8.10171Z" fill="#142E2A"/>
<path d="M10.5806 8.8507C9.82187 8.8054 9.17727 9.28103 8.81512 9.28103C8.45273 9.28103 7.89806 8.87335 7.29809 8.88445C6.51738 8.89577 5.79306 9.33742 5.39671 10.0395C4.58179 11.4438 5.18154 13.5275 5.97425 14.6713C6.35906 15.2375 6.82291 15.8603 7.43398 15.8379C8.01153 15.8153 8.23779 15.4642 8.93946 15.4642C9.6409 15.4642 9.84474 15.8379 10.456 15.8266C11.0898 15.8153 11.4861 15.2604 11.8709 14.6941C12.3126 14.0486 12.4931 13.4258 12.5044 13.3918C12.4931 13.3805 11.2823 12.916 11.2709 11.5231C11.2596 10.3566 12.2218 9.80173 12.267 9.76753C11.7237 8.96394 10.8748 8.87335 10.5804 8.8507" fill="#142E2A"/>
<path d="M18.1422 7.27246C19.7906 7.27246 20.9386 8.40876 20.9386 10.063C20.9386 11.7232 19.767 12.8654 18.101 12.8654H16.2759V15.7681H14.9573V7.27246H18.1422ZM16.2759 11.7585H17.7889C18.9372 11.7585 19.5904 11.1405 19.5904 10.0689C19.5904 8.99763 18.9369 8.38521 17.7947 8.38521H16.2759V11.7585Z" fill="#142E2A"/>
<path d="M21.2656 14.0075C21.2656 12.9183 22.0957 12.2944 23.6263 12.2002L25.2688 12.1V11.6289C25.2688 10.9404 24.8156 10.5635 24.0091 10.5635C23.3437 10.5635 22.8608 10.9049 22.7611 11.4287H21.5716C21.6072 10.328 22.6431 9.52734 24.0444 9.52734C25.5515 9.52734 26.5347 10.3162 26.5347 11.5408V15.7678H25.3162V14.7493H25.2867C24.9393 15.4145 24.1738 15.8324 23.3437 15.8324C22.1193 15.8324 21.2656 15.1026 21.2656 14.0075ZM25.2688 13.4601V12.9831L23.803 13.0773C22.9786 13.1303 22.5491 13.4363 22.5491 13.972C22.5491 14.4902 22.9965 14.8258 23.697 14.8258C24.5916 14.8258 25.2688 14.2546 25.2688 13.4601Z" fill="#142E2A"/>
<path d="M27.6552 18.0398V17.0215C27.7376 17.0331 27.9376 17.0448 28.0436 17.0448C28.6263 17.0448 28.9561 16.798 29.1563 16.1618L29.2741 15.7851L27.0427 9.60352H28.4202L29.9746 14.6194H30.0041L31.5583 9.60352H32.9007L30.5868 16.097C30.0569 17.5866 29.4505 18.0754 28.1672 18.0754C28.0671 18.0754 27.7433 18.0636 27.6552 18.0398Z" fill="#142E2A"/>
</g>
</g>
</g>
<defs>
<clipPath id="clip0_0_143">
<rect width="38" height="24" fill="white"/>
</clipPath>
<clipPath id="clip1_0_143">
<rect width="38" height="24" fill="white"/>
</clipPath>
<clipPath id="clip2_0_143">
<rect width="38" height="24" fill="white"/>
</clipPath>
</defs>
</svg>
