<svg width="50" height="21" viewBox="0 0 50 21" fill="none" xmlns="http://www.w3.org/2000/svg">
<g clip-path="url(#clip0_0_185)">
<g clip-path="url(#clip1_0_185)">
<g clip-path="url(#clip2_0_185)">
<path fill-rule="evenodd" clip-rule="evenodd" d="M49.9959 10.748C49.9959 7.19336 48.2735 4.38771 44.9827 4.38771C41.6775 4.38771 39.6777 7.19336 39.6777 10.7199C39.6777 14.8999 42.0392 17.0104 45.427 17.0104C47.0796 17.0104 48.3296 16.636 49.2742 16.1083V13.3307C48.3296 13.803 47.2463 14.0949 45.872 14.0949C44.5249 14.0949 43.3302 13.6226 43.1778 11.9836H49.9686C49.9686 11.8032 49.9959 11.0816 49.9959 10.748ZM43.1361 9.42891C43.1361 7.85971 44.0943 7.20704 44.9691 7.20704C45.8159 7.20704 46.7187 7.85971 46.7187 9.42891H43.1361ZM34.3182 4.38771C32.9566 4.38771 32.0818 5.02679 31.5959 5.47101L31.4155 4.60983H28.3605V20.8015L31.8317 20.0655L31.8461 16.1356C32.3456 16.4972 33.0817 17.0104 34.3038 17.0104C36.7895 17.0104 39.0531 15.0106 39.0531 10.6093C39.0395 6.58237 36.7477 4.38771 34.3182 4.38771ZM33.4851 13.9553C32.6656 13.9553 32.1797 13.6643 31.8461 13.3027L31.8317 8.15161C32.1933 7.74827 32.6928 7.47082 33.4851 7.47082C34.748 7.47082 35.6228 8.88691 35.6228 10.7063C35.6228 12.5674 34.7624 13.9553 33.4851 13.9553ZM23.5838 3.56903L27.0695 2.8193V0L23.5838 0.736098V3.56903ZM23.5838 4.62426H27.0695V16.7747H23.5838V4.62426ZM19.848 5.65142L19.6259 4.62426H16.6262V16.7747H20.0982V8.53968C20.9169 7.47082 22.3057 7.66489 22.7363 7.81799V4.62426C22.2921 4.45747 20.6667 4.15197 19.848 5.65142ZM12.9048 1.61091L9.5162 2.33338L9.50259 13.4558C9.50259 15.5109 11.0437 17.0248 13.0989 17.0248C14.2375 17.0248 15.0706 16.8163 15.5293 16.5662V13.7477C15.085 13.9281 12.8904 14.5664 12.8904 12.5113V7.58226H15.5293V4.62426H12.8904L12.9048 1.61091ZM3.5168 8.15161C3.5168 7.60955 3.96183 7.40187 4.69793 7.40187C5.75315 7.40187 7.08583 7.72099 8.14184 8.29027V5.02679C6.98883 4.56893 5.85018 4.38771 4.69793 4.38771C1.87863 4.38771 0.00390625 5.8599 0.00390625 8.31756C0.00390625 12.1504 5.28087 11.5394 5.28087 13.192C5.28087 13.8311 4.72519 14.0387 3.94739 14.0387C2.79514 14.0387 1.32295 13.5673 0.157058 12.9282V16.2326C1.44804 16.7883 2.75344 17.0248 3.94739 17.0248C6.83645 17.0248 8.8218 15.5943 8.8218 13.1086C8.80819 8.9703 3.5168 9.70636 3.5168 8.15161Z" fill="#635BFF"/>
</g>
</g>
</g>
<defs>
<clipPath id="clip0_0_185">
<rect width="50" height="20.83" fill="white"/>
</clipPath>
<clipPath id="clip1_0_185">
<rect width="50" height="20.83" fill="white"/>
</clipPath>
<clipPath id="clip2_0_185">
<rect width="49.992" height="20.83" fill="white" transform="translate(0.00390625)"/>
</clipPath>
</defs>
</svg>
