<svg width="38" height="24" viewBox="0 0 38 24" fill="none" xmlns="http://www.w3.org/2000/svg">
<g clip-path="url(#clip0_0_167)">
<g clip-path="url(#clip1_0_167)">
<g clip-path="url(#clip2_0_167)">
<path opacity="0.07" d="M35 0H3C1.3 0 0 1.3 0 3V21C0 22.7 1.4 24 3 24H35C36.7 24 38 22.7 38 21V3C38 1.3 36.6 0 35 0Z" fill="#142E2A"/>
<path d="M35 1C36.1 1 37 1.9 37 3V21C37 22.1 36.1 23 35 23H3C1.9 23 1 22.1 1 21V3C1 1.9 1.9 1 3 1H35Z" fill="white"/>
<path d="M18.093 11.9757V15.1757H17.075V7.27574H19.766C20.0884 7.27028 20.4087 7.32861 20.7085 7.44737C21.0083 7.56613 21.2817 7.74297 21.513 7.96774C21.732 8.17214 21.9086 8.41769 22.0327 8.69038C22.1568 8.96306 22.2259 9.25753 22.2361 9.55694C22.2463 9.85636 22.1974 10.1549 22.0922 10.4354C21.987 10.7159 21.8275 10.9729 21.6229 11.1917L21.513 11.3077C21.043 11.7547 20.415 11.9977 19.766 11.9817L18.093 11.9757ZM18.093 8.24374V11.0317H19.791C20.168 11.0437 20.5319 10.8967 20.7959 10.6277C20.9848 10.4309 21.1116 10.1829 21.1606 9.91458C21.2096 9.64624 21.1786 9.36943 21.0715 9.11857C20.9644 8.86771 20.7859 8.65387 20.5582 8.50366C20.3305 8.35345 20.0637 8.2735 19.791 8.27374L18.093 8.24374ZM24.577 9.59174C25.2269 9.56174 25.863 9.77974 26.3549 10.2047C26.7999 10.6347 27.0369 11.2347 27.0049 11.8537V15.1877H26.0359V14.4217H25.9869C25.8132 14.709 25.5674 14.946 25.274 15.1093C24.9806 15.2726 24.6497 15.3565 24.3139 15.3527C23.7658 15.3705 23.2314 15.1801 22.818 14.8197C22.6221 14.66 22.4651 14.4577 22.3589 14.2284C22.2527 13.999 22.2001 13.7485 22.205 13.4957C22.1934 13.2403 22.243 12.9859 22.3496 12.7535C22.4563 12.5211 22.6168 12.3176 22.818 12.1597C23.3114 11.8049 23.9086 11.6238 24.516 11.6447C25.033 11.6247 25.546 11.7377 26.006 11.9757V11.7677C26.0093 11.5958 25.9735 11.4253 25.9013 11.2692C25.829 11.1131 25.7222 10.9755 25.589 10.8667C25.3213 10.6234 24.9706 10.4917 24.6089 10.4987C24.3463 10.4963 24.0873 10.5608 23.8565 10.6863C23.6257 10.8117 23.4307 10.994 23.29 11.2157L22.395 10.6517C22.638 10.3035 22.9661 10.0233 23.348 9.83779C23.7299 9.65225 24.153 9.56754 24.577 9.59174ZM23.29 13.5197C23.2875 13.6493 23.317 13.7774 23.3758 13.8928C23.4346 14.0083 23.5208 14.1075 23.627 14.1817C23.85 14.3577 24.127 14.4507 24.412 14.4447C24.841 14.4437 25.252 14.2747 25.558 13.9727C25.863 13.6867 26.0359 13.2877 26.0359 12.8697C25.651 12.5961 25.1832 12.4639 24.712 12.4957C24.346 12.4813 23.9851 12.5844 23.6819 12.7897C23.5619 12.8701 23.4634 12.9786 23.395 13.1059C23.3267 13.2332 23.2906 13.3753 23.29 13.5197ZM32.576 9.76974L29.186 17.5597H28.138L29.419 14.8317L27.195 9.76974H28.298L29.91 13.6547L31.479 9.76974H32.576Z" fill="#5F6368"/>
<path d="M13.986 11.2843C13.986 10.9763 13.962 10.6683 13.913 10.3643H9.62305V12.1113H12.074C12.0241 12.3889 11.9187 12.6536 11.7641 12.8895C11.6094 13.1255 11.4087 13.3277 11.174 13.4843V14.6183H12.638C13.0832 14.1875 13.4331 13.6683 13.6653 13.0941C13.8975 12.5198 14.0067 11.9033 13.986 11.2843Z" fill="#4285F4"/>
<path d="M9.6289 15.7209C10.7352 15.7513 11.8116 15.359 12.6389 14.6239L11.1729 13.4839C10.8207 13.7098 10.4215 13.8523 10.0059 13.9008C9.5903 13.9492 9.16911 13.9022 8.77439 13.7633C8.37966 13.6245 8.02179 13.3975 7.72799 13.0995C7.43419 12.8016 7.2122 12.4406 7.0789 12.0439H5.5769V13.2139C5.95275 13.967 6.53095 14.6004 7.24666 15.0432C7.96237 15.486 8.78728 15.7207 9.6289 15.7209Z" fill="#34A853"/>
<path d="M7.07893 12.0495C6.88872 11.4868 6.88872 10.8772 7.07893 10.3145V9.14453H5.57693C5.25672 9.77599 5.08984 10.474 5.08984 11.182C5.08984 11.89 5.25672 12.5881 5.57693 13.2195L7.07893 12.0495Z" fill="#FBBC04"/>
<path d="M9.6289 8.44019C10.2759 8.42837 10.9014 8.6728 11.3689 9.12019L12.6689 7.82719C11.84 7.0492 10.7406 6.62485 9.6039 6.64419C8.76727 6.64838 7.94814 6.88419 7.23734 7.32547C6.52653 7.76674 5.95181 8.39625 5.5769 9.14419L7.0789 10.3152C7.25453 9.77527 7.59499 9.304 8.05241 8.96766C8.50983 8.63132 9.06118 8.44685 9.6289 8.44019Z" fill="#EA4335"/>
</g>
</g>
</g>
<defs>
<clipPath id="clip0_0_167">
<rect width="38" height="24" fill="white"/>
</clipPath>
<clipPath id="clip1_0_167">
<rect width="38" height="24" fill="white"/>
</clipPath>
<clipPath id="clip2_0_167">
<rect width="38" height="24" fill="white"/>
</clipPath>
</defs>
</svg>
