<svg width="16" height="16" viewBox="0 0 16 16" fill="none" xmlns="http://www.w3.org/2000/svg">
<path d="M11.9213 5.16431C12.5231 5.16431 13.0108 4.67653 13.0108 4.07482C13.0108 3.47311 12.5231 2.98533 11.9213 2.98533C11.3196 2.98533 10.8318 3.47311 10.8318 4.07482C10.8318 4.67653 11.3196 5.16431 11.9213 5.16431Z" fill="#142E2A"/>
<path d="M8.00048 4.51009C7.31094 4.51009 6.63689 4.71457 6.06356 5.09765C5.49023 5.48074 5.04337 6.02524 4.77949 6.66229C4.51562 7.29934 4.44658 8.00033 4.5811 8.67662C4.71562 9.35291 5.04767 9.97413 5.53524 10.4617C6.02282 10.9493 6.64403 11.2813 7.32032 11.4159C7.99661 11.5504 8.69761 11.4813 9.33466 11.2175C9.97171 10.9536 10.5162 10.5067 10.8993 9.93339C11.2824 9.36006 11.4869 8.68601 11.4869 7.99647C11.4869 7.07182 11.1195 6.18505 10.4657 5.53123C9.8119 4.87741 8.92513 4.51009 8.00048 4.51009ZM8.00048 9.73965C7.65571 9.73965 7.31868 9.63742 7.03202 9.44587C6.74535 9.25433 6.52192 8.98208 6.38999 8.66356C6.25805 8.34503 6.22353 7.99453 6.29079 7.65639C6.35805 7.31824 6.52407 7.00764 6.76786 6.76385C7.01165 6.52006 7.32226 6.35404 7.6604 6.28678C7.99855 6.21951 8.34905 6.25403 8.66757 6.38597C8.9861 6.51791 9.25834 6.74134 9.44989 7.028C9.64143 7.31467 9.74367 7.6517 9.74367 7.99647C9.74367 8.45879 9.56001 8.90218 9.2331 9.22909C8.90619 9.556 8.4628 9.73965 8.00048 9.73965Z" fill="#142E2A"/>
<path d="M12.3579 1.02721H3.64199C2.19789 1.02721 1.02721 2.19789 1.02721 3.64199V12.3579C1.02721 13.802 2.19789 14.9727 3.64199 14.9727H12.3579C13.802 14.9727 14.9727 13.802 14.9727 12.3579V3.64199C14.9727 2.19789 13.802 1.02721 12.3579 1.02721Z" stroke="#142E2A" stroke-width="2" stroke-miterlimit="10"/>
</svg>
