<svg width="13" height="14" viewBox="0 0 13 14" fill="none" xmlns="http://www.w3.org/2000/svg">
<path d="M6.85115 0H9.12656C9.12656 0 8.99678 3.05023 12.28 3.2738V5.62936C12.28 5.62936 10.5239 5.74114 9.12656 4.62325L9.14949 9.49404C9.14944 10.3661 8.9021 11.2186 8.43861 11.9436C7.97511 12.6686 7.31644 13.2335 6.54582 13.5669C5.77522 13.9003 4.92736 13.9871 4.10956 13.8164C3.29176 13.6457 2.54076 13.2251 1.95162 12.6079C1.36247 11.9906 0.961649 11.2046 0.799882 10.349C0.638115 9.49351 0.722673 8.60698 1.04285 7.80173C1.36303 6.99649 1.90445 6.30869 2.59858 5.82529C3.2927 5.34194 4.10835 5.0848 4.94228 5.08639H5.53022V7.50578C5.1466 7.3815 4.73527 7.38685 4.35475 7.52119C3.97423 7.65548 3.64391 7.91187 3.4108 8.25389C3.17769 8.59586 3.05366 9.00603 3.05637 9.426C3.05907 9.84601 3.18838 10.2544 3.42587 10.5931C3.66337 10.9317 3.99696 11.1834 4.37918 11.3124C4.7614 11.4413 5.17277 11.4409 5.55474 11.3112C5.93671 11.1815 6.26983 10.9291 6.50674 10.5899C6.7436 10.2508 6.87217 9.84215 6.87407 9.42218L6.85115 0Z" fill="#142E2A"/>
</svg>
