<svg width="50" height="50" viewBox="0 0 50 50" fill="none" xmlns="http://www.w3.org/2000/svg">
<rect width="50" height="50" rx="25" fill="#F7F9F2"/>
<path d="M21.6172 31.3806H26.8084L32.3142 36.7291V31.3806H34.9884C35.3532 31.3812 35.7143 31.3073 36.0494 31.1631C36.3847 31.019 36.6868 30.8078 36.9372 30.5426C37.1877 30.2774 37.3813 29.9637 37.5061 29.6208C37.6308 29.2781 37.684 28.9133 37.6627 28.549V19.5825C37.6627 18.8732 37.3808 18.193 36.8794 17.6915C36.3779 17.1899 35.6977 16.9082 34.9884 16.9082H34.0446" stroke="#142E2A" stroke-width="2" stroke-linecap="round" stroke-linejoin="round"/>
<path d="M29.4865 13.2917H15.3287C14.9385 13.2446 14.5425 13.2842 14.1693 13.4075C13.796 13.5308 13.4545 13.735 13.1691 14.0053C12.8837 14.2757 12.6614 14.6057 12.5181 14.9717C12.3748 15.3378 12.3138 15.731 12.3398 16.1233V25.2472C12.3398 25.9564 12.6217 26.6366 13.1231 27.1382C13.6246 27.6397 14.3048 27.9214 15.0141 27.9214H17.6883V33.2699L23.1941 27.9214H29.4865C30.1958 27.9214 30.876 27.6397 31.3775 27.1382C31.879 26.6366 32.1607 25.9564 32.1607 25.2472V15.966C32.1607 15.2567 31.879 14.5765 31.3775 14.075C30.876 13.5734 30.1958 13.2917 29.4865 13.2917Z" stroke="#142E2A" stroke-width="2" stroke-linecap="round" stroke-linejoin="round"/>
</svg>
