<svg width="52" height="52" viewBox="0 0 52 52" fill="none" xmlns="http://www.w3.org/2000/svg">
<rect width="52" height="52" rx="25.5705" fill="#F7F9F2"/>
<path d="M30.3769 24.2489C29.1463 24.2494 27.9379 24.5766 26.8751 25.1971V19.8717C26.8751 18.2465 26.2295 16.6878 25.0803 15.5385C23.931 14.3893 22.3723 13.7437 20.7471 13.7437C19.1218 13.7437 17.5631 14.3893 16.4138 15.5385C15.2646 16.6878 14.619 18.2465 14.619 19.8717V32.1279C14.6187 33.3769 15 34.5961 15.712 35.6223C16.424 36.6485 17.4326 37.4325 18.6027 37.8695C19.7727 38.3064 21.0484 38.3753 22.2587 38.067C23.469 37.7587 24.5562 37.0879 25.3746 36.1444C26.182 36.9701 27.181 37.5832 28.2827 37.9291C29.3844 38.2751 30.5546 38.3432 31.689 38.1273C32.8234 37.9114 33.8868 37.4183 34.7844 36.6918C35.6821 35.9653 36.3861 35.0281 36.8337 33.9637C37.2813 32.8992 37.4587 31.7405 37.35 30.5909C37.2413 29.4412 36.8499 28.3363 36.2107 27.3746C35.5715 26.4129 34.7044 25.6242 33.6865 25.0789C32.6686 24.5335 31.5317 24.2484 30.3769 24.2489ZM30.3769 25.9998C31.617 26.002 32.8165 26.4424 33.7633 27.2434C34.7101 28.0444 35.3432 29.1544 35.5507 30.377H25.203C25.4106 29.1544 26.0437 28.0444 26.9905 27.2434C27.9373 26.4424 29.1367 26.002 30.3769 25.9998ZM16.3699 19.8717C16.3699 18.7108 16.831 17.5975 17.6519 16.7766C18.4728 15.9557 19.5861 15.4946 20.7471 15.4946C21.908 15.4946 23.0213 15.9557 23.8422 16.7766C24.6631 17.5975 25.1243 18.7108 25.1243 19.8717V25.1244H16.3699V19.8717ZM20.7471 36.5051C19.5866 36.5037 18.474 36.0421 17.6534 35.2215C16.8329 34.4009 16.3712 33.2884 16.3699 32.1279V26.8753H24.9185C24.04 27.9644 23.5098 29.2927 23.3967 30.6873C23.2837 32.082 23.5931 33.4783 24.2847 34.6947C23.8802 35.2547 23.3486 35.7108 22.7337 36.0255C22.1187 36.3402 21.4379 36.5046 20.7471 36.5051ZM30.3769 36.5051C29.1367 36.503 27.9373 36.0625 26.9905 35.2615C26.0437 34.4605 25.4106 33.3506 25.203 32.1279H35.5507C35.3432 33.3506 34.7101 34.4605 33.7633 35.2615C32.8165 36.0625 31.617 36.503 30.3769 36.5051Z" fill="#142E2A"/>
</svg>
