<svg width="50" height="50" viewBox="0 0 50 50" fill="none" xmlns="http://www.w3.org/2000/svg">
<rect width="50" height="50" rx="25" fill="#F7F9F2"/>
<path fill-rule="evenodd" clip-rule="evenodd" d="M26.9769 11.6348H24.3308C22.0279 11.6348 20.2037 11.6348 18.7766 11.8249C17.3081 12.0215 16.1191 12.4342 15.1807 13.3641C15.0147 13.5409 14.9243 13.7747 14.9286 14.0162C14.9329 14.2578 15.0315 14.4883 15.2037 14.6591C15.3758 14.83 15.6082 14.9278 15.8516 14.9321C16.0951 14.9363 16.3307 14.8467 16.5088 14.682C17.04 14.1573 17.7667 13.8416 19.0271 13.6737C20.3139 13.5021 22.0116 13.4996 24.401 13.4996H26.9068C29.2961 13.4996 30.9926 13.5021 32.2818 13.6737C33.541 13.8416 34.2678 14.1573 34.7977 14.6833C35.3277 15.2092 35.646 15.9302 35.8151 17.1797C35.988 18.459 35.9905 20.1423 35.9905 22.5133V27.4862C35.9905 29.8572 35.988 31.5418 35.8151 32.8199C35.646 34.0694 35.3277 34.7904 34.7977 35.3163C34.2678 35.8422 33.541 36.158 32.2806 36.3259C30.9926 36.4974 29.2961 36.4999 26.9068 36.4999H24.401C22.0116 36.4999 20.3139 36.4974 19.0258 36.3259C17.7667 36.158 17.04 35.8422 16.5101 35.3163C15.638 34.451 15.3736 33.1071 15.3285 29.9591C15.3248 29.7118 15.2224 29.4761 15.0436 29.3038C14.955 29.2185 14.8504 29.1513 14.7357 29.1061C14.6209 29.0608 14.4985 29.0386 14.375 29.0404C14.2517 29.0421 14.1298 29.0681 14.0164 29.1166C13.9032 29.1651 13.8006 29.2353 13.7146 29.3231C13.6287 29.411 13.5609 29.5148 13.5154 29.6286C13.4699 29.7425 13.4473 29.864 13.4491 29.9865C13.4929 33.0038 13.6896 35.1559 15.1807 36.6354C16.1191 37.5653 17.3081 37.9781 18.7766 38.1746C20.2049 38.3648 22.0279 38.3648 24.3308 38.3648H26.9769C29.2799 38.3648 31.1041 38.3648 32.5312 38.1746C33.9996 37.9781 35.1887 37.5653 36.1271 36.6354C37.0642 35.7042 37.4802 34.5244 37.6782 33.0673C37.8699 31.65 37.8699 29.841 37.8699 27.5559V22.4436C37.8699 20.1586 37.8699 18.3484 37.6782 16.9323C37.4802 15.4752 37.0642 14.2953 36.1271 13.3641C35.1887 12.4342 33.9996 12.0215 32.5312 11.8249C31.1029 11.6348 29.2799 11.6348 26.9769 11.6348ZM17.9935 18.8407C17.6802 18.5154 17.3047 18.2554 16.8888 18.0761C16.4729 17.8968 16.0252 17.8018 15.5717 17.7967C15.1183 17.7916 14.6685 17.8763 14.2486 18.0461C13.8286 18.216 13.4472 18.4674 13.1266 18.7854C12.806 19.1036 12.5526 19.4821 12.3816 19.8988C12.2104 20.3155 12.125 20.7619 12.1301 21.2117C12.1353 21.6617 12.2311 22.106 12.4118 22.5186C12.5924 22.9314 12.8544 23.304 13.1823 23.6148L19.1386 29.5289C19.3864 29.7881 19.65 30.0317 19.928 30.2587C20.217 30.4825 20.5278 30.6732 20.8602 30.8307C21.1408 30.9636 21.4365 31.0606 21.87 31.2036L24.4811 32.0677C24.7639 32.1615 25.0674 32.1754 25.3576 32.1076C25.6478 32.0398 25.9132 31.893 26.124 31.6838C26.3348 31.4747 26.4827 31.2112 26.551 30.9233C26.6193 30.6353 26.6055 30.3342 26.5108 30.0536L25.6577 27.5173L25.6401 27.4639C25.4947 27.0325 25.397 26.7403 25.2629 26.4618C25.1055 26.1335 24.9122 25.8233 24.6866 25.5368C24.4949 25.2932 24.2756 25.0756 23.9511 24.7536L23.9123 24.715L17.9935 18.8407ZM14.5104 20.1586C14.6518 20.0181 14.8198 19.9067 15.0047 19.8307C15.1896 19.7546 15.3877 19.7155 15.5879 19.7155C15.788 19.7155 15.9862 19.7546 16.1711 19.8307C16.3559 19.9067 16.5239 20.0181 16.6654 20.1586L16.8934 20.3848L16.8508 20.5178C16.733 20.8535 16.5088 21.3011 16.0853 21.7213C15.7105 22.0957 15.2476 22.3713 14.7384 22.5232L14.5104 22.297C14.3688 22.1566 14.2565 21.9899 14.1799 21.8064C14.1034 21.623 14.0639 21.4263 14.0639 21.2278C14.0639 21.0292 14.1034 20.8326 14.1799 20.649C14.2565 20.4656 14.3688 20.2989 14.5104 20.1586ZM16.1743 23.948C16.6324 23.7107 17.0508 23.4046 17.4146 23.0404C17.7816 22.6794 18.0902 22.2642 18.3293 21.8096L22.5842 26.0316C22.9613 26.4059 23.0942 26.5402 23.2056 26.6819C23.3477 26.8626 23.4684 27.0561 23.5678 27.2625C23.6454 27.4254 23.7069 27.6032 23.876 28.1054L24.3771 29.5973L24.0226 29.9492L22.5191 29.4519C22.0129 29.284 21.8337 29.2231 21.6695 29.146C21.4624 29.0466 21.2674 28.9268 21.0845 28.7867C20.9416 28.676 20.8063 28.5443 20.4292 28.17L16.1743 23.948ZM31.6053 21.27C31.6053 21.0227 31.5063 20.7855 31.3301 20.6107C31.1538 20.4358 30.9148 20.3376 30.6656 20.3376H22.5215C22.2724 20.3376 22.0334 20.4358 21.857 20.6107C21.6808 20.7855 21.5818 21.0227 21.5818 21.27C21.5818 21.5173 21.6808 21.7544 21.857 21.9294C22.0334 22.1042 22.2724 22.2024 22.5215 22.2024H30.6656C30.9148 22.2024 31.1538 22.1042 31.3301 21.9294C31.5063 21.7544 31.6053 21.5173 31.6053 21.27ZM31.6053 26.243C31.6053 25.9957 31.5063 25.7586 31.3301 25.5837C31.1538 25.4088 30.9148 25.3106 30.6656 25.3106H27.5332C27.284 25.3106 27.045 25.4088 26.8688 25.5837C26.6926 25.7586 26.5936 25.9957 26.5936 26.243C26.5936 26.4903 26.6926 26.7275 26.8688 26.9023C27.045 27.0772 27.284 27.1755 27.5332 27.1755H30.6656C30.9148 27.1755 31.1538 27.0772 31.3301 26.9023C31.5063 26.7275 31.6053 26.4903 31.6053 26.243ZM31.6053 31.2161C31.6053 30.9688 31.5063 30.7316 31.3301 30.5567C31.1538 30.3818 30.9148 30.2836 30.6656 30.2836H28.7862C28.537 30.2836 28.298 30.3818 28.1218 30.5567C27.9455 30.7316 27.8465 30.9688 27.8465 31.2161C27.8465 31.4634 27.9455 31.7005 28.1218 31.8754C28.298 32.0502 28.537 32.1485 28.7862 32.1485H30.6656C30.9148 32.1485 31.1538 32.0502 31.3301 31.8754C31.5063 31.7005 31.6053 31.4634 31.6053 31.2161Z" fill="#142E2A"/>
</svg>
