<svg width="50" height="50" viewBox="0 0 50 50" fill="none" xmlns="http://www.w3.org/2000/svg">
<rect width="50" height="50" rx="25" fill="#F7F9F2"/>
<path d="M24.9999 38.6328C32.5292 38.6328 38.6328 32.5292 38.6328 24.9999C38.6328 17.4708 32.5292 11.3672 24.9999 11.3672C17.4708 11.3672 11.3672 17.4708 11.3672 24.9999C11.3672 32.5292 17.4708 38.6328 24.9999 38.6328Z" stroke="#142E2A" stroke-width="2" stroke-linecap="round" stroke-linejoin="round"/>
<mask id="path-3-inside-1_4258_15308" fill="white">
<path d="M22.4026 28.9316C22.3806 29.6661 22.1294 30.3752 21.6847 30.9598C21.2397 31.5445 20.6233 31.9755 19.9214 32.1926L15.8007 34.1703C15.6268 34.2434 15.4591 34.3304 15.2991 34.4303"/>
</mask>
<path d="M21.6847 30.9598L22.4598 31.5496L22.4599 31.5495L21.6847 30.9598ZM19.9214 32.1926L19.6336 31.2621L19.5649 31.2833L19.5 31.3145L19.9214 32.1926ZM15.8007 34.1703L16.1784 35.0681L16.2005 35.0588L16.2221 35.0484L15.8007 34.1703ZM22.4026 28.9316L21.429 28.9024C21.4131 29.4337 21.2314 29.9469 20.9095 30.37L21.6847 30.9598L22.4599 31.5495C23.0274 30.8034 23.3481 29.8984 23.3762 28.9608L22.4026 28.9316ZM21.6847 30.9598L20.9095 30.3699C20.5875 30.7931 20.1415 31.105 19.6336 31.2621L19.9214 32.1926L20.2093 33.1231C21.1052 32.846 21.8919 32.2958 22.4598 31.5496L21.6847 30.9598ZM19.9214 32.1926L19.5 31.3145L15.3792 33.2921L15.8007 34.1703L16.2221 35.0484L20.3429 33.0707L19.9214 32.1926ZM15.8007 34.1703L15.4229 33.2725C15.2011 33.3658 14.9872 33.4767 14.7831 33.6041L15.2991 34.4303L15.815 35.2565C15.931 35.1841 16.0525 35.121 16.1784 35.0681L15.8007 34.1703Z" fill="#142E2A" mask="url(#path-3-inside-1_4258_15308)"/>
<path d="M22.4026 28.9316C22.3806 29.6661 22.1294 30.3752 21.6847 30.9598C21.2397 31.5445 20.6233 31.9755 19.9214 32.1926L15.8007 34.1703C15.6268 34.2434 15.4591 34.3304 15.2991 34.4303" stroke="#142E2A" stroke-width="2" stroke-linecap="round" stroke-linejoin="round"/>
<path d="M34.9625 34.4352C34.8026 34.3351 34.6349 34.2482 34.4608 34.1753L30.3437 32.1975C28.8315 31.4014 27.8625 30.5017 27.8625 28.9365" stroke="#142E2A" stroke-width="2" stroke-linecap="round" stroke-linejoin="round"/>
<path d="M24.5617 28.6718C28.0474 28.6718 30.8733 25.8461 30.8733 22.3603C30.8733 18.8746 28.0474 16.0488 24.5617 16.0488C21.076 16.0488 18.2502 18.8746 18.2502 22.3603C18.2502 25.8461 21.076 28.6718 24.5617 28.6718Z" stroke="#142E2A" stroke-width="2" stroke-linecap="round" stroke-linejoin="round"/>
</svg>
