<svg width="33" height="33" viewBox="0 0 33 33" fill="none" xmlns="http://www.w3.org/2000/svg">
<g clip-path="url(#clip0_4277_30970)">
<path d="M16.503 10.9967V17.5987H23.1048" stroke="#142E2A" stroke-width="2.025" stroke-miterlimit="10" stroke-linecap="round" stroke-linejoin="round"/>
<path d="M6.56306 28.4594L5.76093 22.0809L12.024 23.826" stroke="#142E2A" stroke-width="2.025" stroke-miterlimit="10" stroke-linecap="round" stroke-linejoin="round"/>
<path d="M5.75342 22.0802C7.11693 24.707 9.39558 26.7431 12.1586 27.8036C14.9216 28.8641 17.9773 28.8757 20.7482 27.8359C23.5191 26.7961 25.813 24.7771 27.1962 22.1608C28.5794 19.5443 28.956 16.5118 28.2549 13.6365C27.5538 10.7613 25.8235 8.24249 23.3912 6.55645C20.9589 4.87044 17.9931 4.13401 15.0547 4.4864C12.1162 4.8388 9.40867 6.25561 7.444 8.46893C5.47933 10.6823 4.39368 13.5387 4.39231 16.4983" stroke="#142E2A" stroke-width="2.025" stroke-miterlimit="10" stroke-linecap="round" stroke-linejoin="round"/>
</g>
<defs>
<clipPath id="clip0_4277_30970">
<rect width="32.4" height="32.4" fill="white" transform="scale(1.01851)"/>
</clipPath>
</defs>
</svg>
