<svg width="33" height="33" viewBox="0 0 33 33" fill="none" xmlns="http://www.w3.org/2000/svg">
<g clip-path="url(#clip0_4277_30940)">
<path d="M12.5399 23.3633H16.8958L21.5158 27.8513V23.3633H23.7597C24.0659 23.3639 24.3688 23.3018 24.6501 23.1808C24.9313 23.0599 25.1848 22.8827 25.395 22.6601C25.6052 22.4376 25.7676 22.1744 25.8723 21.8867C25.977 21.599 26.0217 21.293 26.0037 20.9874V13.4635C26.0037 12.8683 25.7673 12.2976 25.3465 11.8767C24.9256 11.4559 24.3549 11.2195 23.7597 11.2195H22.9677" stroke="#142E2A" stroke-width="1.944" stroke-linecap="round" stroke-linejoin="round"/>
<path d="M19.1426 8.18411H7.26275C6.93524 8.14458 6.60305 8.17775 6.28983 8.28124C5.9766 8.38474 5.69005 8.55602 5.45057 8.7829C5.21109 9.00977 5.02458 9.28665 4.90432 9.59383C4.78405 9.90101 4.733 10.2309 4.75478 10.5601V18.216C4.75478 18.8111 4.99119 19.3819 5.41202 19.8027C5.83285 20.2235 6.40361 20.46 6.99875 20.46H9.24272V24.9479L13.8627 20.46H19.1426C19.7377 20.46 20.3085 20.2235 20.7293 19.8027C21.1502 19.3819 21.3866 18.8111 21.3866 18.216V10.4281C21.3866 9.83295 21.1502 9.26218 20.7293 8.84136C20.3085 8.42053 19.7377 8.18411 19.1426 8.18411Z" stroke="#142E2A" stroke-width="1.944" stroke-linecap="round" stroke-linejoin="round"/>
</g>
<defs>
<clipPath id="clip0_4277_30940">
<rect width="32.4" height="32.4" fill="white" transform="scale(1.01851)"/>
</clipPath>
</defs>
</svg>
