<svg width="33" height="33" viewBox="0 0 33 33" fill="none" xmlns="http://www.w3.org/2000/svg">
<g clip-path="url(#clip0_4277_30872)">
<path d="M16.5004 28.6C23.1829 28.6 28.6002 23.1827 28.6002 16.5001C28.6002 9.81755 23.1829 4.40027 16.5004 4.40027C9.81781 4.40027 4.40051 9.81755 4.40051 16.5001C4.40051 23.1827 9.81781 28.6 16.5004 28.6Z" stroke="#142E2A" stroke-width="2.025" stroke-linecap="round" stroke-linejoin="round"/>
<path d="M14.0788 19.9882C14.0593 20.6401 13.8364 21.2694 13.4416 21.7883C13.0468 22.3072 12.4997 22.6898 11.8767 22.8825L8.21934 24.6378C8.06497 24.7027 7.91608 24.7799 7.77407 24.8685" stroke="#142E2A" stroke-width="2.025" stroke-linecap="round" stroke-linejoin="round"/>
<path d="M25.2235 24.8685C25.0816 24.7797 24.9327 24.7026 24.7783 24.6378L21.1241 22.8825C19.7819 22.1759 18.9219 21.3773 18.9219 19.9882" stroke="#142E2A" stroke-width="2.025" stroke-linecap="round" stroke-linejoin="round"/>
<path d="M16.5001 21.339C19.6185 21.339 22.1467 18.811 22.1467 15.6924C22.1467 12.5739 19.6185 10.0458 16.5001 10.0458C13.3815 10.0458 10.8535 12.5739 10.8535 15.6924C10.8535 18.811 13.3815 21.339 16.5001 21.339Z" stroke="#142E2A" stroke-width="2.025" stroke-linecap="round" stroke-linejoin="round"/>
</g>
<defs>
<clipPath id="clip0_4277_30872">
<rect width="32.4" height="32.4" fill="white" transform="scale(1.01851)"/>
</clipPath>
</defs>
</svg>
