<svg width="33" height="33" viewBox="0 0 33 33" fill="none" xmlns="http://www.w3.org/2000/svg">
<g clip-path="url(#clip0_4277_30914)">
<path d="M16.495 10.9967V17.5987H23.0969" stroke="#142E2A" stroke-width="2.025" stroke-miterlimit="10" stroke-linecap="round" stroke-linejoin="round"/>
<path d="M6.55511 28.4594L5.75297 22.0809L12.016 23.826" stroke="#142E2A" stroke-width="2.025" stroke-miterlimit="10" stroke-linecap="round" stroke-linejoin="round"/>
<path d="M5.76138 22.0802C7.12489 24.707 9.40354 26.7431 12.1665 27.8036C14.9295 28.8641 17.9853 28.8757 20.7562 27.8359C23.527 26.7961 25.8209 24.7771 27.2041 22.1608C28.5874 19.5443 28.964 16.5118 28.2629 13.6365C27.5618 10.7613 25.8315 8.24249 23.3992 6.55645C20.9668 4.87044 18.0011 4.13401 15.0626 4.4864C12.1242 4.8388 9.41663 6.25561 7.45196 8.46893C5.48729 10.6823 4.40164 13.5387 4.40027 16.4983" stroke="#142E2A" stroke-width="2.025" stroke-miterlimit="10" stroke-linecap="round" stroke-linejoin="round"/>
</g>
<defs>
<clipPath id="clip0_4277_30914">
<rect width="32.4" height="32.4" fill="white" transform="scale(1.01851)"/>
</clipPath>
</defs>
</svg>
